M48
;GenerationSoftware,Autodesk,EAGLE,9.6.2*%
;CreationDate,2022-08-08T16:19:06Z*%
FMAT,2
ICI,OFF
METRIC,TZ,000.000
T3C0.350
T2C0.381
T1C0.400
%
G90
M71
T1
X16328Y10092
X16121Y9492
X56044Y40577
X55409Y40577
X53504Y40577
X15914Y8891
X16328Y73892
X15708Y8291
X54774Y40577
X54139Y40577
X52869Y40577
X16535Y10693
X16741Y11293
X127578Y40577
X128213Y40577
X128848Y40577
X129483Y40577
X130118Y40577
X130753Y40577
X90417Y8291
X90623Y8891
X90830Y9492
X91037Y10092
X91244Y10693
X91450Y11293
X202289Y40577
X202924Y40577
X203559Y40577
X204194Y40577
X204829Y40577
X205464Y40577
X165128Y8291
X165335Y8891
X165542Y9492
X165748Y10092
X165955Y10693
X166162Y11293
X52869Y104377
X53504Y104377
X54139Y104377
X54774Y104377
X55409Y104377
X56044Y104377
X15708Y72091
X15914Y72691
X16121Y73292
X16535Y74492
X16741Y75093
X127578Y104377
X128213Y104377
X128848Y104377
X129483Y104377
X130118Y104377
X130753Y104377
X90417Y72091
X90623Y72691
X90830Y73292
X91037Y73892
X91244Y74492
X91450Y75093
X202289Y104377
X202924Y104377
X203559Y104377
X204194Y104377
X204829Y104377
X205464Y104377
X165128Y72091
X165335Y72691
X165542Y73292
X165748Y73892
X165955Y74492
X166162Y75093
T2
X182947Y34100
X32676Y105139
X34708Y93963
X30644Y90915
X35978Y95995
X30644Y86724
X18579Y100694
X29501Y99170
X35343Y110346
X50456Y97265
X43217Y78088
X22135Y80628
X36867Y88502
X21881Y94852
X35851Y86724
X38645Y86724
X25437Y97138
X24421Y78850
X33184Y108568
X28218Y84438
X27202Y95106
X33527Y97900
X107385Y105139
X109417Y93963
X105353Y90915
X110687Y95995
X105353Y86724
X93288Y100694
X104210Y99170
X110052Y110346
X125165Y97265
X117926Y78088
X96844Y80628
X110687Y32195
X96590Y94852
X110560Y86724
X113354Y86724
X100146Y97138
X99130Y78850
X107893Y108568
X102927Y84438
X101911Y95106
X108236Y97900
X182096Y105139
X184128Y93963
X180064Y90915
X185398Y95995
X180064Y86724
X167999Y100694
X178921Y99170
X184763Y110346
X199876Y97265
X192637Y78088
X171555Y80628
X186287Y88502
X171301Y94852
X185271Y86724
X188065Y86724
X174857Y97138
X173841Y78850
X182604Y108568
X177639Y84438
X176623Y95106
X182947Y97900
X32676Y41339
X34708Y30163
X30644Y27115
X35978Y32195
X30644Y22924
X18579Y36894
X29501Y35370
X35343Y46546
X50456Y33465
X43217Y14288
X22135Y16828
X36867Y24702
X21881Y31052
X35851Y22924
X38645Y22924
X25437Y33338
X24421Y15050
X33184Y44768
X28218Y20638
X27202Y31306
X33527Y34100
X107385Y41339
X109417Y30163
X105353Y27115
X105353Y22924
X93288Y36894
X104210Y35370
X110052Y46546
X125165Y33465
X117926Y14288
X96844Y16828
X111576Y24702
X96590Y31052
X110560Y22924
X113354Y22924
X111576Y88502
X100146Y33338
X99130Y15050
X107893Y44768
X102927Y20638
X101911Y31306
X108236Y34100
X182096Y41339
X184128Y30163
X180064Y27115
X185398Y32195
X180064Y22924
X167999Y36894
X178921Y35370
X184763Y46546
X199876Y33465
X192637Y14288
X171555Y16828
X186287Y24702
X171301Y31052
X185271Y22924
X188065Y22924
X174857Y33338
X173841Y15050
X182604Y44768
X177639Y20638
X176623Y31306
T3
X112338Y92312
X131388Y99932
X37629Y92312
X56679Y99932
X187049Y28512
X206099Y36132
X112338Y28512
X131388Y36132
X37629Y28512
X56679Y36132
X206099Y99932
X187049Y92312
M30