G04 EAGLE Gerber RS-274X export*
G75*
%MOMM*%
%FSLAX34Y34*%
%LPD*%
%INSolderpaste Top*%
%IPPOS*%
%AMOC8*
5,1,8,0,0,1.08239X$1,22.5*%
G01*
%ADD10C,0.096000*%
%ADD11C,0.102000*%
%ADD12C,0.300000*%
%ADD13C,0.100000*%


D10*
X195079Y185553D02*
X198673Y195990D01*
X216675Y189791D01*
X213081Y179354D01*
X195079Y185553D01*
X210433Y180266D02*
X213395Y180266D01*
X213709Y181178D02*
X207784Y181178D01*
X205136Y182090D02*
X214023Y182090D01*
X214337Y183002D02*
X202487Y183002D01*
X199839Y183914D02*
X214651Y183914D01*
X214965Y184826D02*
X197190Y184826D01*
X195143Y185738D02*
X215279Y185738D01*
X215593Y186650D02*
X195457Y186650D01*
X195771Y187562D02*
X215907Y187562D01*
X216221Y188474D02*
X196085Y188474D01*
X196399Y189386D02*
X216536Y189386D01*
X215203Y190298D02*
X196713Y190298D01*
X197027Y191210D02*
X212554Y191210D01*
X209906Y192122D02*
X197341Y192122D01*
X197655Y193034D02*
X207257Y193034D01*
X204609Y193946D02*
X197969Y193946D01*
X198283Y194858D02*
X201960Y194858D01*
X199312Y195770D02*
X198597Y195770D01*
X180441Y143041D02*
X176847Y132604D01*
X180441Y143041D02*
X198443Y136842D01*
X194849Y126405D01*
X176847Y132604D01*
X192201Y127317D02*
X195163Y127317D01*
X195477Y128229D02*
X189552Y128229D01*
X186904Y129141D02*
X195791Y129141D01*
X196105Y130053D02*
X184255Y130053D01*
X181607Y130965D02*
X196419Y130965D01*
X196733Y131877D02*
X178958Y131877D01*
X176911Y132789D02*
X197047Y132789D01*
X197361Y133701D02*
X177225Y133701D01*
X177539Y134613D02*
X197675Y134613D01*
X197989Y135525D02*
X177853Y135525D01*
X178167Y136437D02*
X198304Y136437D01*
X196971Y137349D02*
X178481Y137349D01*
X178795Y138261D02*
X194322Y138261D01*
X191674Y139173D02*
X179109Y139173D01*
X179423Y140085D02*
X189025Y140085D01*
X186377Y140997D02*
X179737Y140997D01*
X180051Y141909D02*
X183728Y141909D01*
X181080Y142821D02*
X180365Y142821D01*
D11*
X229682Y163094D02*
X231303Y167801D01*
X243102Y163738D01*
X241481Y159031D01*
X229682Y163094D01*
X238667Y160000D02*
X241815Y160000D01*
X242148Y160969D02*
X235853Y160969D01*
X233039Y161938D02*
X242482Y161938D01*
X242816Y162907D02*
X230225Y162907D01*
X229951Y163876D02*
X242701Y163876D01*
X239887Y164845D02*
X230285Y164845D01*
X230619Y165814D02*
X237073Y165814D01*
X234259Y166783D02*
X230952Y166783D01*
X231286Y167752D02*
X231445Y167752D01*
X228047Y158346D02*
X226426Y153639D01*
X228047Y158346D02*
X239846Y154283D01*
X238225Y149576D01*
X226426Y153639D01*
X235411Y150545D02*
X238559Y150545D01*
X238892Y151514D02*
X232597Y151514D01*
X229783Y152483D02*
X239226Y152483D01*
X239560Y153452D02*
X226969Y153452D01*
X226695Y154421D02*
X239445Y154421D01*
X236631Y155390D02*
X227029Y155390D01*
X227363Y156359D02*
X233817Y156359D01*
X231003Y157328D02*
X227696Y157328D01*
X228030Y158297D02*
X228189Y158297D01*
X224792Y148891D02*
X223171Y144184D01*
X224792Y148891D02*
X236591Y144828D01*
X234970Y140121D01*
X223171Y144184D01*
X232156Y141090D02*
X235304Y141090D01*
X235637Y142059D02*
X229342Y142059D01*
X226528Y143028D02*
X235971Y143028D01*
X236305Y143997D02*
X223714Y143997D01*
X223440Y144966D02*
X236190Y144966D01*
X233376Y145935D02*
X223774Y145935D01*
X224108Y146904D02*
X230562Y146904D01*
X227748Y147873D02*
X224441Y147873D01*
X224775Y148842D02*
X224934Y148842D01*
X221536Y139436D02*
X219915Y134729D01*
X221536Y139436D02*
X233335Y135373D01*
X231714Y130666D01*
X219915Y134729D01*
X228900Y131635D02*
X232048Y131635D01*
X232381Y132604D02*
X226086Y132604D01*
X223272Y133573D02*
X232715Y133573D01*
X233049Y134542D02*
X220458Y134542D01*
X220184Y135511D02*
X232934Y135511D01*
X230120Y136480D02*
X220518Y136480D01*
X220852Y137449D02*
X227306Y137449D01*
X224492Y138418D02*
X221185Y138418D01*
X221519Y139387D02*
X221678Y139387D01*
D10*
X392941Y131978D02*
X401816Y125411D01*
X392941Y131978D02*
X404266Y147283D01*
X413141Y140716D01*
X401816Y125411D01*
X402491Y126323D02*
X400583Y126323D01*
X399351Y127235D02*
X403166Y127235D01*
X403841Y128147D02*
X398118Y128147D01*
X396886Y129059D02*
X404515Y129059D01*
X405190Y129971D02*
X395653Y129971D01*
X394421Y130883D02*
X405865Y130883D01*
X406540Y131795D02*
X393188Y131795D01*
X393480Y132707D02*
X407215Y132707D01*
X407890Y133619D02*
X394155Y133619D01*
X394830Y134531D02*
X408564Y134531D01*
X409239Y135443D02*
X395505Y135443D01*
X396180Y136355D02*
X409914Y136355D01*
X410589Y137267D02*
X396855Y137267D01*
X397529Y138179D02*
X411264Y138179D01*
X411939Y139091D02*
X398204Y139091D01*
X398879Y140003D02*
X412613Y140003D01*
X412872Y140915D02*
X399554Y140915D01*
X400229Y141827D02*
X411640Y141827D01*
X410407Y142739D02*
X400904Y142739D01*
X401578Y143651D02*
X409174Y143651D01*
X407942Y144563D02*
X402253Y144563D01*
X402928Y145475D02*
X406709Y145475D01*
X405477Y146387D02*
X403603Y146387D01*
X437957Y98668D02*
X446832Y92101D01*
X437957Y98668D02*
X449282Y113973D01*
X458157Y107406D01*
X446832Y92101D01*
X447507Y93013D02*
X445599Y93013D01*
X444367Y93925D02*
X448182Y93925D01*
X448857Y94837D02*
X443134Y94837D01*
X441902Y95749D02*
X449531Y95749D01*
X450206Y96661D02*
X440669Y96661D01*
X439437Y97573D02*
X450881Y97573D01*
X451556Y98485D02*
X438204Y98485D01*
X438496Y99397D02*
X452231Y99397D01*
X452906Y100309D02*
X439171Y100309D01*
X439846Y101221D02*
X453580Y101221D01*
X454255Y102133D02*
X440521Y102133D01*
X441196Y103045D02*
X454930Y103045D01*
X455605Y103957D02*
X441871Y103957D01*
X442545Y104869D02*
X456280Y104869D01*
X456955Y105781D02*
X443220Y105781D01*
X443895Y106693D02*
X457629Y106693D01*
X457888Y107605D02*
X444570Y107605D01*
X445245Y108517D02*
X456656Y108517D01*
X455423Y109429D02*
X445920Y109429D01*
X446594Y110341D02*
X454190Y110341D01*
X452958Y111253D02*
X447269Y111253D01*
X447944Y112165D02*
X451725Y112165D01*
X450493Y113077D02*
X448619Y113077D01*
D11*
X433640Y151659D02*
X429637Y154622D01*
X437060Y164653D01*
X441063Y161690D01*
X433640Y151659D01*
X434357Y152628D02*
X432331Y152628D01*
X431022Y153597D02*
X435074Y153597D01*
X435791Y154566D02*
X429713Y154566D01*
X430313Y155535D02*
X436508Y155535D01*
X437225Y156504D02*
X431030Y156504D01*
X431747Y157473D02*
X437942Y157473D01*
X438659Y158442D02*
X432464Y158442D01*
X433181Y159411D02*
X439377Y159411D01*
X440094Y160380D02*
X433898Y160380D01*
X434615Y161349D02*
X440811Y161349D01*
X440215Y162318D02*
X435332Y162318D01*
X436049Y163287D02*
X438905Y163287D01*
X437596Y164256D02*
X436766Y164256D01*
X437676Y148673D02*
X441679Y145710D01*
X437676Y148673D02*
X445099Y158704D01*
X449102Y155741D01*
X441679Y145710D01*
X442396Y146679D02*
X440370Y146679D01*
X439061Y147648D02*
X443113Y147648D01*
X443830Y148617D02*
X437752Y148617D01*
X438352Y149586D02*
X444547Y149586D01*
X445264Y150555D02*
X439069Y150555D01*
X439786Y151524D02*
X445981Y151524D01*
X446698Y152493D02*
X440503Y152493D01*
X441220Y153462D02*
X447416Y153462D01*
X448133Y154431D02*
X441937Y154431D01*
X442654Y155400D02*
X448850Y155400D01*
X448254Y156369D02*
X443371Y156369D01*
X444088Y157338D02*
X446944Y157338D01*
X445635Y158307D02*
X444805Y158307D01*
X445715Y142725D02*
X449718Y139762D01*
X445715Y142725D02*
X453138Y152756D01*
X457141Y149793D01*
X449718Y139762D01*
X450435Y140731D02*
X448409Y140731D01*
X447100Y141700D02*
X451152Y141700D01*
X451869Y142669D02*
X445791Y142669D01*
X446391Y143638D02*
X452586Y143638D01*
X453303Y144607D02*
X447108Y144607D01*
X447825Y145576D02*
X454020Y145576D01*
X454737Y146545D02*
X448542Y146545D01*
X449259Y147514D02*
X455455Y147514D01*
X456172Y148483D02*
X449976Y148483D01*
X450693Y149452D02*
X456889Y149452D01*
X456293Y150421D02*
X451410Y150421D01*
X452127Y151390D02*
X454983Y151390D01*
X453674Y152359D02*
X452844Y152359D01*
X453753Y136777D02*
X457756Y133814D01*
X453753Y136777D02*
X461176Y146808D01*
X465179Y143845D01*
X457756Y133814D01*
X458473Y134783D02*
X456447Y134783D01*
X455138Y135752D02*
X459190Y135752D01*
X459907Y136721D02*
X453829Y136721D01*
X454429Y137690D02*
X460624Y137690D01*
X461341Y138659D02*
X455146Y138659D01*
X455863Y139628D02*
X462058Y139628D01*
X462775Y140597D02*
X456580Y140597D01*
X457297Y141566D02*
X463493Y141566D01*
X464210Y142535D02*
X458014Y142535D01*
X458731Y143504D02*
X464927Y143504D01*
X464331Y144473D02*
X459448Y144473D01*
X460165Y145442D02*
X463021Y145442D01*
X461712Y146411D02*
X460882Y146411D01*
D10*
X510488Y297840D02*
X519476Y304251D01*
X510488Y297840D02*
X499432Y313339D01*
X508420Y319750D01*
X519476Y304251D01*
X511767Y298752D02*
X509837Y298752D01*
X509187Y299664D02*
X513045Y299664D01*
X514324Y300576D02*
X508536Y300576D01*
X507886Y301488D02*
X515602Y301488D01*
X516881Y302400D02*
X507235Y302400D01*
X506585Y303312D02*
X518160Y303312D01*
X519438Y304224D02*
X505934Y304224D01*
X505283Y305136D02*
X518845Y305136D01*
X518194Y306048D02*
X504633Y306048D01*
X503982Y306960D02*
X517544Y306960D01*
X516893Y307872D02*
X503332Y307872D01*
X502681Y308784D02*
X516242Y308784D01*
X515592Y309696D02*
X502031Y309696D01*
X501380Y310608D02*
X514941Y310608D01*
X514291Y311520D02*
X500730Y311520D01*
X500079Y312432D02*
X513640Y312432D01*
X512990Y313344D02*
X499439Y313344D01*
X500718Y314256D02*
X512339Y314256D01*
X511689Y315168D02*
X501996Y315168D01*
X503275Y316080D02*
X511038Y316080D01*
X510387Y316992D02*
X504553Y316992D01*
X505832Y317904D02*
X509737Y317904D01*
X509086Y318816D02*
X507111Y318816D01*
X508389Y319728D02*
X508436Y319728D01*
X556079Y330359D02*
X565067Y336770D01*
X556079Y330359D02*
X545023Y345858D01*
X554011Y352269D01*
X565067Y336770D01*
X557358Y331271D02*
X555428Y331271D01*
X554778Y332183D02*
X558636Y332183D01*
X559915Y333095D02*
X554127Y333095D01*
X553477Y334007D02*
X561193Y334007D01*
X562472Y334919D02*
X552826Y334919D01*
X552176Y335831D02*
X563751Y335831D01*
X565029Y336743D02*
X551525Y336743D01*
X550874Y337655D02*
X564436Y337655D01*
X563785Y338567D02*
X550224Y338567D01*
X549573Y339479D02*
X563135Y339479D01*
X562484Y340391D02*
X548923Y340391D01*
X548272Y341303D02*
X561833Y341303D01*
X561183Y342215D02*
X547622Y342215D01*
X546971Y343127D02*
X560532Y343127D01*
X559882Y344039D02*
X546321Y344039D01*
X545670Y344951D02*
X559231Y344951D01*
X558581Y345863D02*
X545030Y345863D01*
X546309Y346775D02*
X557930Y346775D01*
X557280Y347687D02*
X547587Y347687D01*
X548866Y348599D02*
X556629Y348599D01*
X555978Y349511D02*
X550144Y349511D01*
X551423Y350423D02*
X555328Y350423D01*
X554677Y351335D02*
X552702Y351335D01*
X553980Y352247D02*
X554027Y352247D01*
D11*
X504347Y342629D02*
X500293Y339737D01*
X493047Y349897D01*
X497101Y352789D01*
X504347Y342629D01*
X501651Y340706D02*
X499602Y340706D01*
X498911Y341675D02*
X503010Y341675D01*
X504336Y342644D02*
X498220Y342644D01*
X497529Y343613D02*
X503645Y343613D01*
X502954Y344582D02*
X496838Y344582D01*
X496147Y345551D02*
X502263Y345551D01*
X501572Y346520D02*
X495455Y346520D01*
X494764Y347489D02*
X500881Y347489D01*
X500190Y348458D02*
X494073Y348458D01*
X493382Y349427D02*
X499499Y349427D01*
X498808Y350396D02*
X493746Y350396D01*
X495105Y351365D02*
X498117Y351365D01*
X497426Y352334D02*
X496463Y352334D01*
X508434Y345544D02*
X512488Y348436D01*
X508434Y345544D02*
X501188Y355704D01*
X505242Y358596D01*
X512488Y348436D01*
X509792Y346513D02*
X507743Y346513D01*
X507052Y347482D02*
X511151Y347482D01*
X512477Y348451D02*
X506361Y348451D01*
X505670Y349420D02*
X511786Y349420D01*
X511095Y350389D02*
X504979Y350389D01*
X504288Y351358D02*
X510404Y351358D01*
X509713Y352327D02*
X503596Y352327D01*
X502905Y353296D02*
X509022Y353296D01*
X508331Y354265D02*
X502214Y354265D01*
X501523Y355234D02*
X507640Y355234D01*
X506949Y356203D02*
X501887Y356203D01*
X503246Y357172D02*
X506258Y357172D01*
X505567Y358141D02*
X504604Y358141D01*
X516575Y351351D02*
X520629Y354243D01*
X516575Y351351D02*
X509329Y361511D01*
X513383Y364403D01*
X520629Y354243D01*
X517933Y352320D02*
X515884Y352320D01*
X515193Y353289D02*
X519292Y353289D01*
X520618Y354258D02*
X514502Y354258D01*
X513811Y355227D02*
X519927Y355227D01*
X519236Y356196D02*
X513120Y356196D01*
X512429Y357165D02*
X518545Y357165D01*
X517854Y358134D02*
X511737Y358134D01*
X511046Y359103D02*
X517163Y359103D01*
X516472Y360072D02*
X510355Y360072D01*
X509664Y361041D02*
X515781Y361041D01*
X515090Y362010D02*
X510028Y362010D01*
X511387Y362979D02*
X514399Y362979D01*
X513708Y363948D02*
X512745Y363948D01*
X524716Y357158D02*
X528770Y360050D01*
X524716Y357158D02*
X517470Y367318D01*
X521524Y370210D01*
X528770Y360050D01*
X526074Y358127D02*
X524025Y358127D01*
X523334Y359096D02*
X527433Y359096D01*
X528759Y360065D02*
X522643Y360065D01*
X521952Y361034D02*
X528068Y361034D01*
X527377Y362003D02*
X521261Y362003D01*
X520570Y362972D02*
X526686Y362972D01*
X525995Y363941D02*
X519878Y363941D01*
X519187Y364910D02*
X525304Y364910D01*
X524613Y365879D02*
X518496Y365879D01*
X517805Y366848D02*
X523922Y366848D01*
X523231Y367817D02*
X518169Y367817D01*
X519528Y368786D02*
X522540Y368786D01*
X521849Y369755D02*
X520886Y369755D01*
D10*
X204069Y401243D02*
X193029Y401243D01*
X204069Y401243D02*
X204069Y382203D01*
X193029Y382203D01*
X193029Y401243D01*
X193029Y383115D02*
X204069Y383115D01*
X204069Y384027D02*
X193029Y384027D01*
X193029Y384939D02*
X204069Y384939D01*
X204069Y385851D02*
X193029Y385851D01*
X193029Y386763D02*
X204069Y386763D01*
X204069Y387675D02*
X193029Y387675D01*
X193029Y388587D02*
X204069Y388587D01*
X204069Y389499D02*
X193029Y389499D01*
X193029Y390411D02*
X204069Y390411D01*
X204069Y391323D02*
X193029Y391323D01*
X193029Y392235D02*
X204069Y392235D01*
X204069Y393147D02*
X193029Y393147D01*
X193029Y394059D02*
X204069Y394059D01*
X204069Y394971D02*
X193029Y394971D01*
X193029Y395883D02*
X204069Y395883D01*
X204069Y396795D02*
X193029Y396795D01*
X193029Y397707D02*
X204069Y397707D01*
X204069Y398619D02*
X193029Y398619D01*
X193029Y399531D02*
X204069Y399531D01*
X204069Y400443D02*
X193029Y400443D01*
X148069Y401243D02*
X137029Y401243D01*
X148069Y401243D02*
X148069Y382203D01*
X137029Y382203D01*
X137029Y401243D01*
X137029Y383115D02*
X148069Y383115D01*
X148069Y384027D02*
X137029Y384027D01*
X137029Y384939D02*
X148069Y384939D01*
X148069Y385851D02*
X137029Y385851D01*
X137029Y386763D02*
X148069Y386763D01*
X148069Y387675D02*
X137029Y387675D01*
X137029Y388587D02*
X148069Y388587D01*
X148069Y389499D02*
X137029Y389499D01*
X137029Y390411D02*
X148069Y390411D01*
X148069Y391323D02*
X137029Y391323D01*
X137029Y392235D02*
X148069Y392235D01*
X148069Y393147D02*
X137029Y393147D01*
X137029Y394059D02*
X148069Y394059D01*
X148069Y394971D02*
X137029Y394971D01*
X137029Y395883D02*
X148069Y395883D01*
X148069Y396795D02*
X137029Y396795D01*
X137029Y397707D02*
X148069Y397707D01*
X148069Y398619D02*
X137029Y398619D01*
X137029Y399531D02*
X148069Y399531D01*
X148069Y400443D02*
X137029Y400443D01*
D11*
X183059Y361213D02*
X188039Y361213D01*
X188039Y348733D01*
X183059Y348733D01*
X183059Y361213D01*
X183059Y349702D02*
X188039Y349702D01*
X188039Y350671D02*
X183059Y350671D01*
X183059Y351640D02*
X188039Y351640D01*
X188039Y352609D02*
X183059Y352609D01*
X183059Y353578D02*
X188039Y353578D01*
X188039Y354547D02*
X183059Y354547D01*
X183059Y355516D02*
X188039Y355516D01*
X188039Y356485D02*
X183059Y356485D01*
X183059Y357454D02*
X188039Y357454D01*
X188039Y358423D02*
X183059Y358423D01*
X183059Y359392D02*
X188039Y359392D01*
X188039Y360361D02*
X183059Y360361D01*
X178039Y361213D02*
X173059Y361213D01*
X178039Y361213D02*
X178039Y348733D01*
X173059Y348733D01*
X173059Y361213D01*
X173059Y349702D02*
X178039Y349702D01*
X178039Y350671D02*
X173059Y350671D01*
X173059Y351640D02*
X178039Y351640D01*
X178039Y352609D02*
X173059Y352609D01*
X173059Y353578D02*
X178039Y353578D01*
X178039Y354547D02*
X173059Y354547D01*
X173059Y355516D02*
X178039Y355516D01*
X178039Y356485D02*
X173059Y356485D01*
X173059Y357454D02*
X178039Y357454D01*
X178039Y358423D02*
X173059Y358423D01*
X173059Y359392D02*
X178039Y359392D01*
X178039Y360361D02*
X173059Y360361D01*
X168039Y361213D02*
X163059Y361213D01*
X168039Y361213D02*
X168039Y348733D01*
X163059Y348733D01*
X163059Y361213D01*
X163059Y349702D02*
X168039Y349702D01*
X168039Y350671D02*
X163059Y350671D01*
X163059Y351640D02*
X168039Y351640D01*
X168039Y352609D02*
X163059Y352609D01*
X163059Y353578D02*
X168039Y353578D01*
X168039Y354547D02*
X163059Y354547D01*
X163059Y355516D02*
X168039Y355516D01*
X168039Y356485D02*
X163059Y356485D01*
X163059Y357454D02*
X168039Y357454D01*
X168039Y358423D02*
X163059Y358423D01*
X163059Y359392D02*
X168039Y359392D01*
X168039Y360361D02*
X163059Y360361D01*
X158039Y361213D02*
X153059Y361213D01*
X158039Y361213D02*
X158039Y348733D01*
X153059Y348733D01*
X153059Y361213D01*
X153059Y349702D02*
X158039Y349702D01*
X158039Y350671D02*
X153059Y350671D01*
X153059Y351640D02*
X158039Y351640D01*
X158039Y352609D02*
X153059Y352609D01*
X153059Y353578D02*
X158039Y353578D01*
X158039Y354547D02*
X153059Y354547D01*
X153059Y355516D02*
X158039Y355516D01*
X158039Y356485D02*
X153059Y356485D01*
X153059Y357454D02*
X158039Y357454D01*
X158039Y358423D02*
X153059Y358423D01*
X153059Y359392D02*
X158039Y359392D01*
X158039Y360361D02*
X153059Y360361D01*
D12*
X323138Y366713D02*
X323138Y373713D01*
X330138Y373713D01*
X330138Y366713D01*
X323138Y366713D01*
X323138Y369563D02*
X330138Y369563D01*
X330138Y372413D02*
X323138Y372413D01*
X305598Y373713D02*
X305598Y366713D01*
X305598Y373713D02*
X312598Y373713D01*
X312598Y366713D01*
X305598Y366713D01*
X305598Y369563D02*
X312598Y369563D01*
X312598Y372413D02*
X305598Y372413D01*
D13*
X304368Y350473D02*
X314368Y350473D01*
X304368Y350473D02*
X304368Y359473D01*
X314368Y359473D01*
X314368Y350473D01*
X314368Y351423D02*
X304368Y351423D01*
X304368Y352373D02*
X314368Y352373D01*
X314368Y353323D02*
X304368Y353323D01*
X304368Y354273D02*
X314368Y354273D01*
X314368Y355223D02*
X304368Y355223D01*
X304368Y356173D02*
X314368Y356173D01*
X314368Y357123D02*
X304368Y357123D01*
X304368Y358073D02*
X314368Y358073D01*
X314368Y359023D02*
X304368Y359023D01*
X321368Y350473D02*
X331368Y350473D01*
X321368Y350473D02*
X321368Y359473D01*
X331368Y359473D01*
X331368Y350473D01*
X331368Y351423D02*
X321368Y351423D01*
X321368Y352373D02*
X331368Y352373D01*
X331368Y353323D02*
X321368Y353323D01*
X321368Y354273D02*
X331368Y354273D01*
X331368Y355223D02*
X321368Y355223D01*
X321368Y356173D02*
X331368Y356173D01*
X331368Y357123D02*
X321368Y357123D01*
X321368Y358073D02*
X331368Y358073D01*
X331368Y359023D02*
X321368Y359023D01*
D10*
X389825Y457474D02*
X386523Y468008D01*
X389825Y457474D02*
X371657Y451780D01*
X368355Y462314D01*
X386523Y468008D01*
X374567Y452692D02*
X371371Y452692D01*
X371085Y453604D02*
X377477Y453604D01*
X380387Y454516D02*
X370799Y454516D01*
X370513Y455428D02*
X383297Y455428D01*
X386207Y456340D02*
X370228Y456340D01*
X369942Y457252D02*
X389117Y457252D01*
X389609Y458164D02*
X369656Y458164D01*
X369370Y459076D02*
X389323Y459076D01*
X389037Y459988D02*
X369084Y459988D01*
X368798Y460900D02*
X388751Y460900D01*
X388465Y461812D02*
X368512Y461812D01*
X369663Y462724D02*
X388179Y462724D01*
X387893Y463636D02*
X372573Y463636D01*
X375483Y464548D02*
X387608Y464548D01*
X387322Y465460D02*
X378393Y465460D01*
X381303Y466372D02*
X387036Y466372D01*
X386750Y467284D02*
X384213Y467284D01*
X373079Y510912D02*
X369777Y521446D01*
X373079Y510912D02*
X354911Y505218D01*
X351609Y515752D01*
X369777Y521446D01*
X357821Y506130D02*
X354625Y506130D01*
X354339Y507042D02*
X360731Y507042D01*
X363641Y507954D02*
X354053Y507954D01*
X353767Y508866D02*
X366551Y508866D01*
X369461Y509778D02*
X353482Y509778D01*
X353196Y510690D02*
X372371Y510690D01*
X372863Y511602D02*
X352910Y511602D01*
X352624Y512514D02*
X372577Y512514D01*
X372291Y513426D02*
X352338Y513426D01*
X352052Y514338D02*
X372005Y514338D01*
X371719Y515250D02*
X351766Y515250D01*
X352917Y516162D02*
X371433Y516162D01*
X371147Y517074D02*
X355827Y517074D01*
X358737Y517986D02*
X370862Y517986D01*
X370576Y518898D02*
X361647Y518898D01*
X364557Y519810D02*
X370290Y519810D01*
X370004Y520722D02*
X367467Y520722D01*
D11*
X345343Y465552D02*
X346833Y460800D01*
X334925Y457068D01*
X333435Y461820D01*
X345343Y465552D01*
X338017Y458037D02*
X334621Y458037D01*
X334317Y459006D02*
X341109Y459006D01*
X344201Y459975D02*
X334014Y459975D01*
X333710Y460944D02*
X346788Y460944D01*
X346484Y461913D02*
X333732Y461913D01*
X336824Y462882D02*
X346180Y462882D01*
X345876Y463851D02*
X339915Y463851D01*
X343007Y464820D02*
X345573Y464820D01*
X343843Y470342D02*
X342353Y475094D01*
X343843Y470342D02*
X331935Y466610D01*
X330445Y471362D01*
X342353Y475094D01*
X335027Y467579D02*
X331631Y467579D01*
X331327Y468548D02*
X338119Y468548D01*
X341211Y469517D02*
X331024Y469517D01*
X330720Y470486D02*
X343798Y470486D01*
X343494Y471455D02*
X330742Y471455D01*
X333834Y472424D02*
X343190Y472424D01*
X342886Y473393D02*
X336925Y473393D01*
X340017Y474362D02*
X342583Y474362D01*
X340852Y479885D02*
X339362Y484637D01*
X340852Y479885D02*
X328944Y476153D01*
X327454Y480905D01*
X339362Y484637D01*
X332036Y477122D02*
X328640Y477122D01*
X328336Y478091D02*
X335128Y478091D01*
X338220Y479060D02*
X328033Y479060D01*
X327729Y480029D02*
X340807Y480029D01*
X340503Y480998D02*
X327751Y480998D01*
X330843Y481967D02*
X340199Y481967D01*
X339895Y482936D02*
X333934Y482936D01*
X337026Y483905D02*
X339592Y483905D01*
X337862Y489427D02*
X336372Y494179D01*
X337862Y489427D02*
X325954Y485695D01*
X324464Y490447D01*
X336372Y494179D01*
X329046Y486664D02*
X325650Y486664D01*
X325346Y487633D02*
X332138Y487633D01*
X335230Y488602D02*
X325043Y488602D01*
X324739Y489571D02*
X337817Y489571D01*
X337513Y490540D02*
X324761Y490540D01*
X327853Y491509D02*
X337209Y491509D01*
X336905Y492478D02*
X330944Y492478D01*
X334036Y493447D02*
X336602Y493447D01*
D10*
X945763Y195990D02*
X942169Y185553D01*
X945763Y195990D02*
X963765Y189791D01*
X960171Y179354D01*
X942169Y185553D01*
X957523Y180266D02*
X960485Y180266D01*
X960799Y181178D02*
X954874Y181178D01*
X952226Y182090D02*
X961113Y182090D01*
X961427Y183002D02*
X949577Y183002D01*
X946929Y183914D02*
X961741Y183914D01*
X962055Y184826D02*
X944280Y184826D01*
X942233Y185738D02*
X962369Y185738D01*
X962683Y186650D02*
X942547Y186650D01*
X942861Y187562D02*
X962997Y187562D01*
X963311Y188474D02*
X943175Y188474D01*
X943489Y189386D02*
X963626Y189386D01*
X962293Y190298D02*
X943803Y190298D01*
X944117Y191210D02*
X959644Y191210D01*
X956996Y192122D02*
X944431Y192122D01*
X944745Y193034D02*
X954347Y193034D01*
X951699Y193946D02*
X945059Y193946D01*
X945373Y194858D02*
X949050Y194858D01*
X946402Y195770D02*
X945687Y195770D01*
X927531Y143041D02*
X923937Y132604D01*
X927531Y143041D02*
X945533Y136842D01*
X941939Y126405D01*
X923937Y132604D01*
X939291Y127317D02*
X942253Y127317D01*
X942567Y128229D02*
X936642Y128229D01*
X933994Y129141D02*
X942881Y129141D01*
X943195Y130053D02*
X931345Y130053D01*
X928697Y130965D02*
X943509Y130965D01*
X943823Y131877D02*
X926048Y131877D01*
X924001Y132789D02*
X944137Y132789D01*
X944451Y133701D02*
X924315Y133701D01*
X924629Y134613D02*
X944765Y134613D01*
X945079Y135525D02*
X924943Y135525D01*
X925257Y136437D02*
X945394Y136437D01*
X944061Y137349D02*
X925571Y137349D01*
X925885Y138261D02*
X941412Y138261D01*
X938764Y139173D02*
X926199Y139173D01*
X926513Y140085D02*
X936115Y140085D01*
X933467Y140997D02*
X926827Y140997D01*
X927141Y141909D02*
X930818Y141909D01*
X928170Y142821D02*
X927455Y142821D01*
D11*
X976772Y163094D02*
X978393Y167801D01*
X990192Y163738D01*
X988571Y159031D01*
X976772Y163094D01*
X985757Y160000D02*
X988905Y160000D01*
X989238Y160969D02*
X982943Y160969D01*
X980129Y161938D02*
X989572Y161938D01*
X989906Y162907D02*
X977315Y162907D01*
X977041Y163876D02*
X989791Y163876D01*
X986977Y164845D02*
X977375Y164845D01*
X977709Y165814D02*
X984163Y165814D01*
X981349Y166783D02*
X978042Y166783D01*
X978376Y167752D02*
X978535Y167752D01*
X975137Y158346D02*
X973516Y153639D01*
X975137Y158346D02*
X986936Y154283D01*
X985315Y149576D01*
X973516Y153639D01*
X982501Y150545D02*
X985649Y150545D01*
X985982Y151514D02*
X979687Y151514D01*
X976873Y152483D02*
X986316Y152483D01*
X986650Y153452D02*
X974059Y153452D01*
X973785Y154421D02*
X986535Y154421D01*
X983721Y155390D02*
X974119Y155390D01*
X974453Y156359D02*
X980907Y156359D01*
X978093Y157328D02*
X974786Y157328D01*
X975120Y158297D02*
X975279Y158297D01*
X971882Y148891D02*
X970261Y144184D01*
X971882Y148891D02*
X983681Y144828D01*
X982060Y140121D01*
X970261Y144184D01*
X979246Y141090D02*
X982394Y141090D01*
X982727Y142059D02*
X976432Y142059D01*
X973618Y143028D02*
X983061Y143028D01*
X983395Y143997D02*
X970804Y143997D01*
X970530Y144966D02*
X983280Y144966D01*
X980466Y145935D02*
X970864Y145935D01*
X971198Y146904D02*
X977652Y146904D01*
X974838Y147873D02*
X971531Y147873D01*
X971865Y148842D02*
X972024Y148842D01*
X968626Y139436D02*
X967005Y134729D01*
X968626Y139436D02*
X980425Y135373D01*
X978804Y130666D01*
X967005Y134729D01*
X975990Y131635D02*
X979138Y131635D01*
X979471Y132604D02*
X973176Y132604D01*
X970362Y133573D02*
X979805Y133573D01*
X980139Y134542D02*
X967548Y134542D01*
X967274Y135511D02*
X980024Y135511D01*
X977210Y136480D02*
X967608Y136480D01*
X967942Y137449D02*
X974396Y137449D01*
X971582Y138418D02*
X968275Y138418D01*
X968609Y139387D02*
X968768Y139387D01*
D10*
X1140031Y131978D02*
X1148906Y125411D01*
X1140031Y131978D02*
X1151356Y147283D01*
X1160231Y140716D01*
X1148906Y125411D01*
X1149581Y126323D02*
X1147673Y126323D01*
X1146441Y127235D02*
X1150256Y127235D01*
X1150931Y128147D02*
X1145208Y128147D01*
X1143976Y129059D02*
X1151605Y129059D01*
X1152280Y129971D02*
X1142743Y129971D01*
X1141511Y130883D02*
X1152955Y130883D01*
X1153630Y131795D02*
X1140278Y131795D01*
X1140570Y132707D02*
X1154305Y132707D01*
X1154980Y133619D02*
X1141245Y133619D01*
X1141920Y134531D02*
X1155654Y134531D01*
X1156329Y135443D02*
X1142595Y135443D01*
X1143270Y136355D02*
X1157004Y136355D01*
X1157679Y137267D02*
X1143945Y137267D01*
X1144619Y138179D02*
X1158354Y138179D01*
X1159029Y139091D02*
X1145294Y139091D01*
X1145969Y140003D02*
X1159703Y140003D01*
X1159962Y140915D02*
X1146644Y140915D01*
X1147319Y141827D02*
X1158730Y141827D01*
X1157497Y142739D02*
X1147994Y142739D01*
X1148668Y143651D02*
X1156264Y143651D01*
X1155032Y144563D02*
X1149343Y144563D01*
X1150018Y145475D02*
X1153799Y145475D01*
X1152567Y146387D02*
X1150693Y146387D01*
X1185047Y98668D02*
X1193922Y92101D01*
X1185047Y98668D02*
X1196372Y113973D01*
X1205247Y107406D01*
X1193922Y92101D01*
X1194597Y93013D02*
X1192689Y93013D01*
X1191457Y93925D02*
X1195272Y93925D01*
X1195947Y94837D02*
X1190224Y94837D01*
X1188992Y95749D02*
X1196621Y95749D01*
X1197296Y96661D02*
X1187759Y96661D01*
X1186527Y97573D02*
X1197971Y97573D01*
X1198646Y98485D02*
X1185294Y98485D01*
X1185586Y99397D02*
X1199321Y99397D01*
X1199996Y100309D02*
X1186261Y100309D01*
X1186936Y101221D02*
X1200670Y101221D01*
X1201345Y102133D02*
X1187611Y102133D01*
X1188286Y103045D02*
X1202020Y103045D01*
X1202695Y103957D02*
X1188961Y103957D01*
X1189635Y104869D02*
X1203370Y104869D01*
X1204045Y105781D02*
X1190310Y105781D01*
X1190985Y106693D02*
X1204719Y106693D01*
X1204978Y107605D02*
X1191660Y107605D01*
X1192335Y108517D02*
X1203746Y108517D01*
X1202513Y109429D02*
X1193010Y109429D01*
X1193684Y110341D02*
X1201280Y110341D01*
X1200048Y111253D02*
X1194359Y111253D01*
X1195034Y112165D02*
X1198815Y112165D01*
X1197583Y113077D02*
X1195709Y113077D01*
D11*
X1180731Y151659D02*
X1176728Y154622D01*
X1184151Y164653D01*
X1188154Y161690D01*
X1180731Y151659D01*
X1181448Y152628D02*
X1179422Y152628D01*
X1178113Y153597D02*
X1182165Y153597D01*
X1182882Y154566D02*
X1176804Y154566D01*
X1177404Y155535D02*
X1183599Y155535D01*
X1184316Y156504D02*
X1178121Y156504D01*
X1178838Y157473D02*
X1185033Y157473D01*
X1185750Y158442D02*
X1179555Y158442D01*
X1180272Y159411D02*
X1186468Y159411D01*
X1187185Y160380D02*
X1180989Y160380D01*
X1181706Y161349D02*
X1187902Y161349D01*
X1187306Y162318D02*
X1182423Y162318D01*
X1183140Y163287D02*
X1185996Y163287D01*
X1184687Y164256D02*
X1183857Y164256D01*
X1184766Y148673D02*
X1188769Y145710D01*
X1184766Y148673D02*
X1192189Y158704D01*
X1196192Y155741D01*
X1188769Y145710D01*
X1189486Y146679D02*
X1187460Y146679D01*
X1186151Y147648D02*
X1190203Y147648D01*
X1190920Y148617D02*
X1184842Y148617D01*
X1185442Y149586D02*
X1191637Y149586D01*
X1192354Y150555D02*
X1186159Y150555D01*
X1186876Y151524D02*
X1193071Y151524D01*
X1193788Y152493D02*
X1187593Y152493D01*
X1188310Y153462D02*
X1194506Y153462D01*
X1195223Y154431D02*
X1189027Y154431D01*
X1189744Y155400D02*
X1195940Y155400D01*
X1195344Y156369D02*
X1190461Y156369D01*
X1191178Y157338D02*
X1194034Y157338D01*
X1192725Y158307D02*
X1191895Y158307D01*
X1192805Y142725D02*
X1196808Y139762D01*
X1192805Y142725D02*
X1200228Y152756D01*
X1204231Y149793D01*
X1196808Y139762D01*
X1197525Y140731D02*
X1195499Y140731D01*
X1194190Y141700D02*
X1198242Y141700D01*
X1198959Y142669D02*
X1192881Y142669D01*
X1193481Y143638D02*
X1199676Y143638D01*
X1200393Y144607D02*
X1194198Y144607D01*
X1194915Y145576D02*
X1201110Y145576D01*
X1201827Y146545D02*
X1195632Y146545D01*
X1196349Y147514D02*
X1202545Y147514D01*
X1203262Y148483D02*
X1197066Y148483D01*
X1197783Y149452D02*
X1203979Y149452D01*
X1203383Y150421D02*
X1198500Y150421D01*
X1199217Y151390D02*
X1202073Y151390D01*
X1200764Y152359D02*
X1199934Y152359D01*
X1200843Y136777D02*
X1204846Y133814D01*
X1200843Y136777D02*
X1208266Y146808D01*
X1212269Y143845D01*
X1204846Y133814D01*
X1205563Y134783D02*
X1203537Y134783D01*
X1202228Y135752D02*
X1206280Y135752D01*
X1206997Y136721D02*
X1200919Y136721D01*
X1201519Y137690D02*
X1207714Y137690D01*
X1208431Y138659D02*
X1202236Y138659D01*
X1202953Y139628D02*
X1209148Y139628D01*
X1209865Y140597D02*
X1203670Y140597D01*
X1204387Y141566D02*
X1210583Y141566D01*
X1211300Y142535D02*
X1205104Y142535D01*
X1205821Y143504D02*
X1212017Y143504D01*
X1211421Y144473D02*
X1206538Y144473D01*
X1207255Y145442D02*
X1210111Y145442D01*
X1208802Y146411D02*
X1207972Y146411D01*
D10*
X1257578Y297840D02*
X1266566Y304251D01*
X1257578Y297840D02*
X1246522Y313339D01*
X1255510Y319750D01*
X1266566Y304251D01*
X1258857Y298752D02*
X1256927Y298752D01*
X1256277Y299664D02*
X1260135Y299664D01*
X1261414Y300576D02*
X1255626Y300576D01*
X1254976Y301488D02*
X1262692Y301488D01*
X1263971Y302400D02*
X1254325Y302400D01*
X1253675Y303312D02*
X1265250Y303312D01*
X1266528Y304224D02*
X1253024Y304224D01*
X1252373Y305136D02*
X1265935Y305136D01*
X1265284Y306048D02*
X1251723Y306048D01*
X1251072Y306960D02*
X1264634Y306960D01*
X1263983Y307872D02*
X1250422Y307872D01*
X1249771Y308784D02*
X1263332Y308784D01*
X1262682Y309696D02*
X1249121Y309696D01*
X1248470Y310608D02*
X1262031Y310608D01*
X1261381Y311520D02*
X1247820Y311520D01*
X1247169Y312432D02*
X1260730Y312432D01*
X1260080Y313344D02*
X1246529Y313344D01*
X1247808Y314256D02*
X1259429Y314256D01*
X1258779Y315168D02*
X1249086Y315168D01*
X1250365Y316080D02*
X1258128Y316080D01*
X1257477Y316992D02*
X1251643Y316992D01*
X1252922Y317904D02*
X1256827Y317904D01*
X1256176Y318816D02*
X1254201Y318816D01*
X1255479Y319728D02*
X1255526Y319728D01*
X1303169Y330359D02*
X1312157Y336770D01*
X1303169Y330359D02*
X1292113Y345858D01*
X1301101Y352269D01*
X1312157Y336770D01*
X1304448Y331271D02*
X1302518Y331271D01*
X1301868Y332183D02*
X1305726Y332183D01*
X1307005Y333095D02*
X1301217Y333095D01*
X1300567Y334007D02*
X1308283Y334007D01*
X1309562Y334919D02*
X1299916Y334919D01*
X1299266Y335831D02*
X1310841Y335831D01*
X1312119Y336743D02*
X1298615Y336743D01*
X1297964Y337655D02*
X1311526Y337655D01*
X1310875Y338567D02*
X1297314Y338567D01*
X1296663Y339479D02*
X1310225Y339479D01*
X1309574Y340391D02*
X1296013Y340391D01*
X1295362Y341303D02*
X1308923Y341303D01*
X1308273Y342215D02*
X1294712Y342215D01*
X1294061Y343127D02*
X1307622Y343127D01*
X1306972Y344039D02*
X1293411Y344039D01*
X1292760Y344951D02*
X1306321Y344951D01*
X1305671Y345863D02*
X1292120Y345863D01*
X1293399Y346775D02*
X1305020Y346775D01*
X1304370Y347687D02*
X1294677Y347687D01*
X1295956Y348599D02*
X1303719Y348599D01*
X1303068Y349511D02*
X1297234Y349511D01*
X1298513Y350423D02*
X1302418Y350423D01*
X1301767Y351335D02*
X1299792Y351335D01*
X1301070Y352247D02*
X1301117Y352247D01*
D11*
X1251437Y342629D02*
X1247383Y339737D01*
X1240137Y349897D01*
X1244191Y352789D01*
X1251437Y342629D01*
X1248741Y340706D02*
X1246692Y340706D01*
X1246001Y341675D02*
X1250100Y341675D01*
X1251426Y342644D02*
X1245310Y342644D01*
X1244619Y343613D02*
X1250735Y343613D01*
X1250044Y344582D02*
X1243928Y344582D01*
X1243237Y345551D02*
X1249353Y345551D01*
X1248662Y346520D02*
X1242545Y346520D01*
X1241854Y347489D02*
X1247971Y347489D01*
X1247280Y348458D02*
X1241163Y348458D01*
X1240472Y349427D02*
X1246589Y349427D01*
X1245898Y350396D02*
X1240836Y350396D01*
X1242195Y351365D02*
X1245207Y351365D01*
X1244516Y352334D02*
X1243553Y352334D01*
X1255524Y345544D02*
X1259578Y348436D01*
X1255524Y345544D02*
X1248278Y355704D01*
X1252332Y358596D01*
X1259578Y348436D01*
X1256882Y346513D02*
X1254833Y346513D01*
X1254142Y347482D02*
X1258241Y347482D01*
X1259567Y348451D02*
X1253451Y348451D01*
X1252760Y349420D02*
X1258876Y349420D01*
X1258185Y350389D02*
X1252069Y350389D01*
X1251378Y351358D02*
X1257494Y351358D01*
X1256803Y352327D02*
X1250686Y352327D01*
X1249995Y353296D02*
X1256112Y353296D01*
X1255421Y354265D02*
X1249304Y354265D01*
X1248613Y355234D02*
X1254730Y355234D01*
X1254039Y356203D02*
X1248977Y356203D01*
X1250336Y357172D02*
X1253348Y357172D01*
X1252657Y358141D02*
X1251694Y358141D01*
X1263665Y351351D02*
X1267719Y354243D01*
X1263665Y351351D02*
X1256419Y361511D01*
X1260473Y364403D01*
X1267719Y354243D01*
X1265023Y352320D02*
X1262974Y352320D01*
X1262283Y353289D02*
X1266382Y353289D01*
X1267708Y354258D02*
X1261592Y354258D01*
X1260901Y355227D02*
X1267017Y355227D01*
X1266326Y356196D02*
X1260210Y356196D01*
X1259519Y357165D02*
X1265635Y357165D01*
X1264944Y358134D02*
X1258827Y358134D01*
X1258136Y359103D02*
X1264253Y359103D01*
X1263562Y360072D02*
X1257445Y360072D01*
X1256754Y361041D02*
X1262871Y361041D01*
X1262180Y362010D02*
X1257118Y362010D01*
X1258477Y362979D02*
X1261489Y362979D01*
X1260798Y363948D02*
X1259835Y363948D01*
X1271806Y357158D02*
X1275860Y360050D01*
X1271806Y357158D02*
X1264560Y367318D01*
X1268614Y370210D01*
X1275860Y360050D01*
X1273164Y358127D02*
X1271115Y358127D01*
X1270424Y359096D02*
X1274523Y359096D01*
X1275849Y360065D02*
X1269733Y360065D01*
X1269042Y361034D02*
X1275158Y361034D01*
X1274467Y362003D02*
X1268351Y362003D01*
X1267660Y362972D02*
X1273776Y362972D01*
X1273085Y363941D02*
X1266968Y363941D01*
X1266277Y364910D02*
X1272394Y364910D01*
X1271703Y365879D02*
X1265586Y365879D01*
X1264895Y366848D02*
X1271012Y366848D01*
X1270321Y367817D02*
X1265259Y367817D01*
X1266618Y368786D02*
X1269630Y368786D01*
X1268939Y369755D02*
X1267976Y369755D01*
D10*
X951159Y401243D02*
X940119Y401243D01*
X951159Y401243D02*
X951159Y382203D01*
X940119Y382203D01*
X940119Y401243D01*
X940119Y383115D02*
X951159Y383115D01*
X951159Y384027D02*
X940119Y384027D01*
X940119Y384939D02*
X951159Y384939D01*
X951159Y385851D02*
X940119Y385851D01*
X940119Y386763D02*
X951159Y386763D01*
X951159Y387675D02*
X940119Y387675D01*
X940119Y388587D02*
X951159Y388587D01*
X951159Y389499D02*
X940119Y389499D01*
X940119Y390411D02*
X951159Y390411D01*
X951159Y391323D02*
X940119Y391323D01*
X940119Y392235D02*
X951159Y392235D01*
X951159Y393147D02*
X940119Y393147D01*
X940119Y394059D02*
X951159Y394059D01*
X951159Y394971D02*
X940119Y394971D01*
X940119Y395883D02*
X951159Y395883D01*
X951159Y396795D02*
X940119Y396795D01*
X940119Y397707D02*
X951159Y397707D01*
X951159Y398619D02*
X940119Y398619D01*
X940119Y399531D02*
X951159Y399531D01*
X951159Y400443D02*
X940119Y400443D01*
X895159Y401243D02*
X884119Y401243D01*
X895159Y401243D02*
X895159Y382203D01*
X884119Y382203D01*
X884119Y401243D01*
X884119Y383115D02*
X895159Y383115D01*
X895159Y384027D02*
X884119Y384027D01*
X884119Y384939D02*
X895159Y384939D01*
X895159Y385851D02*
X884119Y385851D01*
X884119Y386763D02*
X895159Y386763D01*
X895159Y387675D02*
X884119Y387675D01*
X884119Y388587D02*
X895159Y388587D01*
X895159Y389499D02*
X884119Y389499D01*
X884119Y390411D02*
X895159Y390411D01*
X895159Y391323D02*
X884119Y391323D01*
X884119Y392235D02*
X895159Y392235D01*
X895159Y393147D02*
X884119Y393147D01*
X884119Y394059D02*
X895159Y394059D01*
X895159Y394971D02*
X884119Y394971D01*
X884119Y395883D02*
X895159Y395883D01*
X895159Y396795D02*
X884119Y396795D01*
X884119Y397707D02*
X895159Y397707D01*
X895159Y398619D02*
X884119Y398619D01*
X884119Y399531D02*
X895159Y399531D01*
X895159Y400443D02*
X884119Y400443D01*
D11*
X930149Y361213D02*
X935129Y361213D01*
X935129Y348733D01*
X930149Y348733D01*
X930149Y361213D01*
X930149Y349702D02*
X935129Y349702D01*
X935129Y350671D02*
X930149Y350671D01*
X930149Y351640D02*
X935129Y351640D01*
X935129Y352609D02*
X930149Y352609D01*
X930149Y353578D02*
X935129Y353578D01*
X935129Y354547D02*
X930149Y354547D01*
X930149Y355516D02*
X935129Y355516D01*
X935129Y356485D02*
X930149Y356485D01*
X930149Y357454D02*
X935129Y357454D01*
X935129Y358423D02*
X930149Y358423D01*
X930149Y359392D02*
X935129Y359392D01*
X935129Y360361D02*
X930149Y360361D01*
X925129Y361213D02*
X920149Y361213D01*
X925129Y361213D02*
X925129Y348733D01*
X920149Y348733D01*
X920149Y361213D01*
X920149Y349702D02*
X925129Y349702D01*
X925129Y350671D02*
X920149Y350671D01*
X920149Y351640D02*
X925129Y351640D01*
X925129Y352609D02*
X920149Y352609D01*
X920149Y353578D02*
X925129Y353578D01*
X925129Y354547D02*
X920149Y354547D01*
X920149Y355516D02*
X925129Y355516D01*
X925129Y356485D02*
X920149Y356485D01*
X920149Y357454D02*
X925129Y357454D01*
X925129Y358423D02*
X920149Y358423D01*
X920149Y359392D02*
X925129Y359392D01*
X925129Y360361D02*
X920149Y360361D01*
X915129Y361213D02*
X910149Y361213D01*
X915129Y361213D02*
X915129Y348733D01*
X910149Y348733D01*
X910149Y361213D01*
X910149Y349702D02*
X915129Y349702D01*
X915129Y350671D02*
X910149Y350671D01*
X910149Y351640D02*
X915129Y351640D01*
X915129Y352609D02*
X910149Y352609D01*
X910149Y353578D02*
X915129Y353578D01*
X915129Y354547D02*
X910149Y354547D01*
X910149Y355516D02*
X915129Y355516D01*
X915129Y356485D02*
X910149Y356485D01*
X910149Y357454D02*
X915129Y357454D01*
X915129Y358423D02*
X910149Y358423D01*
X910149Y359392D02*
X915129Y359392D01*
X915129Y360361D02*
X910149Y360361D01*
X905129Y361213D02*
X900149Y361213D01*
X905129Y361213D02*
X905129Y348733D01*
X900149Y348733D01*
X900149Y361213D01*
X900149Y349702D02*
X905129Y349702D01*
X905129Y350671D02*
X900149Y350671D01*
X900149Y351640D02*
X905129Y351640D01*
X905129Y352609D02*
X900149Y352609D01*
X900149Y353578D02*
X905129Y353578D01*
X905129Y354547D02*
X900149Y354547D01*
X900149Y355516D02*
X905129Y355516D01*
X905129Y356485D02*
X900149Y356485D01*
X900149Y357454D02*
X905129Y357454D01*
X905129Y358423D02*
X900149Y358423D01*
X900149Y359392D02*
X905129Y359392D01*
X905129Y360361D02*
X900149Y360361D01*
D12*
X1070229Y366713D02*
X1070229Y373713D01*
X1077229Y373713D01*
X1077229Y366713D01*
X1070229Y366713D01*
X1070229Y369563D02*
X1077229Y369563D01*
X1077229Y372413D02*
X1070229Y372413D01*
X1052689Y373713D02*
X1052689Y366713D01*
X1052689Y373713D02*
X1059689Y373713D01*
X1059689Y366713D01*
X1052689Y366713D01*
X1052689Y369563D02*
X1059689Y369563D01*
X1059689Y372413D02*
X1052689Y372413D01*
D13*
X1051459Y350473D02*
X1061459Y350473D01*
X1051459Y350473D02*
X1051459Y359473D01*
X1061459Y359473D01*
X1061459Y350473D01*
X1061459Y351423D02*
X1051459Y351423D01*
X1051459Y352373D02*
X1061459Y352373D01*
X1061459Y353323D02*
X1051459Y353323D01*
X1051459Y354273D02*
X1061459Y354273D01*
X1061459Y355223D02*
X1051459Y355223D01*
X1051459Y356173D02*
X1061459Y356173D01*
X1061459Y357123D02*
X1051459Y357123D01*
X1051459Y358073D02*
X1061459Y358073D01*
X1061459Y359023D02*
X1051459Y359023D01*
X1068459Y350473D02*
X1078459Y350473D01*
X1068459Y350473D02*
X1068459Y359473D01*
X1078459Y359473D01*
X1078459Y350473D01*
X1078459Y351423D02*
X1068459Y351423D01*
X1068459Y352373D02*
X1078459Y352373D01*
X1078459Y353323D02*
X1068459Y353323D01*
X1068459Y354273D02*
X1078459Y354273D01*
X1078459Y355223D02*
X1068459Y355223D01*
X1068459Y356173D02*
X1078459Y356173D01*
X1078459Y357123D02*
X1068459Y357123D01*
X1068459Y358073D02*
X1078459Y358073D01*
X1078459Y359023D02*
X1068459Y359023D01*
D10*
X1136915Y457474D02*
X1133613Y468008D01*
X1136915Y457474D02*
X1118747Y451780D01*
X1115445Y462314D01*
X1133613Y468008D01*
X1121657Y452692D02*
X1118461Y452692D01*
X1118175Y453604D02*
X1124567Y453604D01*
X1127477Y454516D02*
X1117889Y454516D01*
X1117603Y455428D02*
X1130387Y455428D01*
X1133297Y456340D02*
X1117318Y456340D01*
X1117032Y457252D02*
X1136207Y457252D01*
X1136699Y458164D02*
X1116746Y458164D01*
X1116460Y459076D02*
X1136413Y459076D01*
X1136127Y459988D02*
X1116174Y459988D01*
X1115888Y460900D02*
X1135841Y460900D01*
X1135555Y461812D02*
X1115602Y461812D01*
X1116753Y462724D02*
X1135269Y462724D01*
X1134983Y463636D02*
X1119663Y463636D01*
X1122573Y464548D02*
X1134698Y464548D01*
X1134412Y465460D02*
X1125483Y465460D01*
X1128393Y466372D02*
X1134126Y466372D01*
X1133840Y467284D02*
X1131303Y467284D01*
X1120169Y510912D02*
X1116867Y521446D01*
X1120169Y510912D02*
X1102001Y505218D01*
X1098699Y515752D01*
X1116867Y521446D01*
X1104911Y506130D02*
X1101715Y506130D01*
X1101429Y507042D02*
X1107821Y507042D01*
X1110731Y507954D02*
X1101143Y507954D01*
X1100857Y508866D02*
X1113641Y508866D01*
X1116551Y509778D02*
X1100572Y509778D01*
X1100286Y510690D02*
X1119461Y510690D01*
X1119953Y511602D02*
X1100000Y511602D01*
X1099714Y512514D02*
X1119667Y512514D01*
X1119381Y513426D02*
X1099428Y513426D01*
X1099142Y514338D02*
X1119095Y514338D01*
X1118809Y515250D02*
X1098856Y515250D01*
X1100007Y516162D02*
X1118523Y516162D01*
X1118237Y517074D02*
X1102917Y517074D01*
X1105827Y517986D02*
X1117952Y517986D01*
X1117666Y518898D02*
X1108737Y518898D01*
X1111647Y519810D02*
X1117380Y519810D01*
X1117094Y520722D02*
X1114557Y520722D01*
D11*
X1092433Y465552D02*
X1093923Y460800D01*
X1082015Y457068D01*
X1080525Y461820D01*
X1092433Y465552D01*
X1085107Y458037D02*
X1081711Y458037D01*
X1081407Y459006D02*
X1088199Y459006D01*
X1091291Y459975D02*
X1081104Y459975D01*
X1080800Y460944D02*
X1093878Y460944D01*
X1093574Y461913D02*
X1080822Y461913D01*
X1083914Y462882D02*
X1093270Y462882D01*
X1092966Y463851D02*
X1087005Y463851D01*
X1090097Y464820D02*
X1092663Y464820D01*
X1090933Y470342D02*
X1089443Y475094D01*
X1090933Y470342D02*
X1079025Y466610D01*
X1077535Y471362D01*
X1089443Y475094D01*
X1082117Y467579D02*
X1078721Y467579D01*
X1078417Y468548D02*
X1085209Y468548D01*
X1088301Y469517D02*
X1078114Y469517D01*
X1077810Y470486D02*
X1090888Y470486D01*
X1090584Y471455D02*
X1077832Y471455D01*
X1080924Y472424D02*
X1090280Y472424D01*
X1089976Y473393D02*
X1084015Y473393D01*
X1087107Y474362D02*
X1089673Y474362D01*
X1087942Y479885D02*
X1086452Y484637D01*
X1087942Y479885D02*
X1076034Y476153D01*
X1074544Y480905D01*
X1086452Y484637D01*
X1079126Y477122D02*
X1075730Y477122D01*
X1075426Y478091D02*
X1082218Y478091D01*
X1085310Y479060D02*
X1075123Y479060D01*
X1074819Y480029D02*
X1087897Y480029D01*
X1087593Y480998D02*
X1074841Y480998D01*
X1077933Y481967D02*
X1087289Y481967D01*
X1086985Y482936D02*
X1081024Y482936D01*
X1084116Y483905D02*
X1086682Y483905D01*
X1084952Y489427D02*
X1083462Y494179D01*
X1084952Y489427D02*
X1073044Y485695D01*
X1071554Y490447D01*
X1083462Y494179D01*
X1076136Y486664D02*
X1072740Y486664D01*
X1072436Y487633D02*
X1079228Y487633D01*
X1082320Y488602D02*
X1072133Y488602D01*
X1071829Y489571D02*
X1084907Y489571D01*
X1084603Y490540D02*
X1071851Y490540D01*
X1074943Y491509D02*
X1084299Y491509D01*
X1083995Y492478D02*
X1078034Y492478D01*
X1081126Y493447D02*
X1083692Y493447D01*
D10*
X1692878Y195990D02*
X1689284Y185553D01*
X1692878Y195990D02*
X1710880Y189791D01*
X1707286Y179354D01*
X1689284Y185553D01*
X1704638Y180266D02*
X1707600Y180266D01*
X1707914Y181178D02*
X1701989Y181178D01*
X1699341Y182090D02*
X1708228Y182090D01*
X1708542Y183002D02*
X1696692Y183002D01*
X1694044Y183914D02*
X1708856Y183914D01*
X1709170Y184826D02*
X1691395Y184826D01*
X1689348Y185738D02*
X1709484Y185738D01*
X1709798Y186650D02*
X1689662Y186650D01*
X1689976Y187562D02*
X1710112Y187562D01*
X1710426Y188474D02*
X1690290Y188474D01*
X1690604Y189386D02*
X1710741Y189386D01*
X1709408Y190298D02*
X1690918Y190298D01*
X1691232Y191210D02*
X1706759Y191210D01*
X1704111Y192122D02*
X1691546Y192122D01*
X1691860Y193034D02*
X1701462Y193034D01*
X1698814Y193946D02*
X1692174Y193946D01*
X1692488Y194858D02*
X1696165Y194858D01*
X1693517Y195770D02*
X1692802Y195770D01*
X1674647Y143041D02*
X1671053Y132604D01*
X1674647Y143041D02*
X1692649Y136842D01*
X1689055Y126405D01*
X1671053Y132604D01*
X1686407Y127317D02*
X1689369Y127317D01*
X1689683Y128229D02*
X1683758Y128229D01*
X1681110Y129141D02*
X1689997Y129141D01*
X1690311Y130053D02*
X1678461Y130053D01*
X1675813Y130965D02*
X1690625Y130965D01*
X1690939Y131877D02*
X1673164Y131877D01*
X1671117Y132789D02*
X1691253Y132789D01*
X1691567Y133701D02*
X1671431Y133701D01*
X1671745Y134613D02*
X1691881Y134613D01*
X1692195Y135525D02*
X1672059Y135525D01*
X1672373Y136437D02*
X1692510Y136437D01*
X1691177Y137349D02*
X1672687Y137349D01*
X1673001Y138261D02*
X1688528Y138261D01*
X1685880Y139173D02*
X1673315Y139173D01*
X1673629Y140085D02*
X1683231Y140085D01*
X1680583Y140997D02*
X1673943Y140997D01*
X1674257Y141909D02*
X1677934Y141909D01*
X1675286Y142821D02*
X1674571Y142821D01*
D11*
X1723888Y163094D02*
X1725509Y167801D01*
X1737308Y163738D01*
X1735687Y159031D01*
X1723888Y163094D01*
X1732873Y160000D02*
X1736021Y160000D01*
X1736354Y160969D02*
X1730059Y160969D01*
X1727245Y161938D02*
X1736688Y161938D01*
X1737022Y162907D02*
X1724431Y162907D01*
X1724157Y163876D02*
X1736907Y163876D01*
X1734093Y164845D02*
X1724491Y164845D01*
X1724825Y165814D02*
X1731279Y165814D01*
X1728465Y166783D02*
X1725158Y166783D01*
X1725492Y167752D02*
X1725651Y167752D01*
X1722253Y158346D02*
X1720632Y153639D01*
X1722253Y158346D02*
X1734052Y154283D01*
X1732431Y149576D01*
X1720632Y153639D01*
X1729617Y150545D02*
X1732765Y150545D01*
X1733098Y151514D02*
X1726803Y151514D01*
X1723989Y152483D02*
X1733432Y152483D01*
X1733766Y153452D02*
X1721175Y153452D01*
X1720901Y154421D02*
X1733651Y154421D01*
X1730837Y155390D02*
X1721235Y155390D01*
X1721569Y156359D02*
X1728023Y156359D01*
X1725209Y157328D02*
X1721902Y157328D01*
X1722236Y158297D02*
X1722395Y158297D01*
X1718997Y148891D02*
X1717376Y144184D01*
X1718997Y148891D02*
X1730796Y144828D01*
X1729175Y140121D01*
X1717376Y144184D01*
X1726361Y141090D02*
X1729509Y141090D01*
X1729842Y142059D02*
X1723547Y142059D01*
X1720733Y143028D02*
X1730176Y143028D01*
X1730510Y143997D02*
X1717919Y143997D01*
X1717645Y144966D02*
X1730395Y144966D01*
X1727581Y145935D02*
X1717979Y145935D01*
X1718313Y146904D02*
X1724767Y146904D01*
X1721953Y147873D02*
X1718646Y147873D01*
X1718980Y148842D02*
X1719139Y148842D01*
X1715742Y139436D02*
X1714121Y134729D01*
X1715742Y139436D02*
X1727541Y135373D01*
X1725920Y130666D01*
X1714121Y134729D01*
X1723106Y131635D02*
X1726254Y131635D01*
X1726587Y132604D02*
X1720292Y132604D01*
X1717478Y133573D02*
X1726921Y133573D01*
X1727255Y134542D02*
X1714664Y134542D01*
X1714390Y135511D02*
X1727140Y135511D01*
X1724326Y136480D02*
X1714724Y136480D01*
X1715058Y137449D02*
X1721512Y137449D01*
X1718698Y138418D02*
X1715391Y138418D01*
X1715725Y139387D02*
X1715884Y139387D01*
D10*
X1887146Y131978D02*
X1896021Y125411D01*
X1887146Y131978D02*
X1898471Y147283D01*
X1907346Y140716D01*
X1896021Y125411D01*
X1896696Y126323D02*
X1894788Y126323D01*
X1893556Y127235D02*
X1897371Y127235D01*
X1898046Y128147D02*
X1892323Y128147D01*
X1891091Y129059D02*
X1898720Y129059D01*
X1899395Y129971D02*
X1889858Y129971D01*
X1888626Y130883D02*
X1900070Y130883D01*
X1900745Y131795D02*
X1887393Y131795D01*
X1887685Y132707D02*
X1901420Y132707D01*
X1902095Y133619D02*
X1888360Y133619D01*
X1889035Y134531D02*
X1902769Y134531D01*
X1903444Y135443D02*
X1889710Y135443D01*
X1890385Y136355D02*
X1904119Y136355D01*
X1904794Y137267D02*
X1891060Y137267D01*
X1891734Y138179D02*
X1905469Y138179D01*
X1906144Y139091D02*
X1892409Y139091D01*
X1893084Y140003D02*
X1906818Y140003D01*
X1907077Y140915D02*
X1893759Y140915D01*
X1894434Y141827D02*
X1905845Y141827D01*
X1904612Y142739D02*
X1895109Y142739D01*
X1895783Y143651D02*
X1903379Y143651D01*
X1902147Y144563D02*
X1896458Y144563D01*
X1897133Y145475D02*
X1900914Y145475D01*
X1899682Y146387D02*
X1897808Y146387D01*
X1932162Y98668D02*
X1941037Y92101D01*
X1932162Y98668D02*
X1943487Y113973D01*
X1952362Y107406D01*
X1941037Y92101D01*
X1941712Y93013D02*
X1939804Y93013D01*
X1938572Y93925D02*
X1942387Y93925D01*
X1943062Y94837D02*
X1937339Y94837D01*
X1936107Y95749D02*
X1943736Y95749D01*
X1944411Y96661D02*
X1934874Y96661D01*
X1933642Y97573D02*
X1945086Y97573D01*
X1945761Y98485D02*
X1932409Y98485D01*
X1932701Y99397D02*
X1946436Y99397D01*
X1947111Y100309D02*
X1933376Y100309D01*
X1934051Y101221D02*
X1947785Y101221D01*
X1948460Y102133D02*
X1934726Y102133D01*
X1935401Y103045D02*
X1949135Y103045D01*
X1949810Y103957D02*
X1936076Y103957D01*
X1936750Y104869D02*
X1950485Y104869D01*
X1951160Y105781D02*
X1937425Y105781D01*
X1938100Y106693D02*
X1951834Y106693D01*
X1952093Y107605D02*
X1938775Y107605D01*
X1939450Y108517D02*
X1950861Y108517D01*
X1949628Y109429D02*
X1940125Y109429D01*
X1940799Y110341D02*
X1948395Y110341D01*
X1947163Y111253D02*
X1941474Y111253D01*
X1942149Y112165D02*
X1945930Y112165D01*
X1944698Y113077D02*
X1942824Y113077D01*
D11*
X1927846Y151659D02*
X1923843Y154622D01*
X1931266Y164653D01*
X1935269Y161690D01*
X1927846Y151659D01*
X1928563Y152628D02*
X1926537Y152628D01*
X1925228Y153597D02*
X1929280Y153597D01*
X1929997Y154566D02*
X1923919Y154566D01*
X1924519Y155535D02*
X1930714Y155535D01*
X1931431Y156504D02*
X1925236Y156504D01*
X1925953Y157473D02*
X1932148Y157473D01*
X1932865Y158442D02*
X1926670Y158442D01*
X1927387Y159411D02*
X1933583Y159411D01*
X1934300Y160380D02*
X1928104Y160380D01*
X1928821Y161349D02*
X1935017Y161349D01*
X1934421Y162318D02*
X1929538Y162318D01*
X1930255Y163287D02*
X1933111Y163287D01*
X1931802Y164256D02*
X1930972Y164256D01*
X1931882Y148673D02*
X1935885Y145710D01*
X1931882Y148673D02*
X1939305Y158704D01*
X1943308Y155741D01*
X1935885Y145710D01*
X1936602Y146679D02*
X1934576Y146679D01*
X1933267Y147648D02*
X1937319Y147648D01*
X1938036Y148617D02*
X1931958Y148617D01*
X1932558Y149586D02*
X1938753Y149586D01*
X1939470Y150555D02*
X1933275Y150555D01*
X1933992Y151524D02*
X1940187Y151524D01*
X1940904Y152493D02*
X1934709Y152493D01*
X1935426Y153462D02*
X1941622Y153462D01*
X1942339Y154431D02*
X1936143Y154431D01*
X1936860Y155400D02*
X1943056Y155400D01*
X1942460Y156369D02*
X1937577Y156369D01*
X1938294Y157338D02*
X1941150Y157338D01*
X1939841Y158307D02*
X1939011Y158307D01*
X1939920Y142725D02*
X1943923Y139762D01*
X1939920Y142725D02*
X1947343Y152756D01*
X1951346Y149793D01*
X1943923Y139762D01*
X1944640Y140731D02*
X1942614Y140731D01*
X1941305Y141700D02*
X1945357Y141700D01*
X1946074Y142669D02*
X1939996Y142669D01*
X1940596Y143638D02*
X1946791Y143638D01*
X1947508Y144607D02*
X1941313Y144607D01*
X1942030Y145576D02*
X1948225Y145576D01*
X1948942Y146545D02*
X1942747Y146545D01*
X1943464Y147514D02*
X1949660Y147514D01*
X1950377Y148483D02*
X1944181Y148483D01*
X1944898Y149452D02*
X1951094Y149452D01*
X1950498Y150421D02*
X1945615Y150421D01*
X1946332Y151390D02*
X1949188Y151390D01*
X1947879Y152359D02*
X1947049Y152359D01*
X1947959Y136777D02*
X1951962Y133814D01*
X1947959Y136777D02*
X1955382Y146808D01*
X1959385Y143845D01*
X1951962Y133814D01*
X1952679Y134783D02*
X1950653Y134783D01*
X1949344Y135752D02*
X1953396Y135752D01*
X1954113Y136721D02*
X1948035Y136721D01*
X1948635Y137690D02*
X1954830Y137690D01*
X1955547Y138659D02*
X1949352Y138659D01*
X1950069Y139628D02*
X1956264Y139628D01*
X1956981Y140597D02*
X1950786Y140597D01*
X1951503Y141566D02*
X1957699Y141566D01*
X1958416Y142535D02*
X1952220Y142535D01*
X1952937Y143504D02*
X1959133Y143504D01*
X1958537Y144473D02*
X1953654Y144473D01*
X1954371Y145442D02*
X1957227Y145442D01*
X1955918Y146411D02*
X1955088Y146411D01*
D10*
X2004694Y297840D02*
X2013682Y304251D01*
X2004694Y297840D02*
X1993638Y313339D01*
X2002626Y319750D01*
X2013682Y304251D01*
X2005973Y298752D02*
X2004043Y298752D01*
X2003393Y299664D02*
X2007251Y299664D01*
X2008530Y300576D02*
X2002742Y300576D01*
X2002092Y301488D02*
X2009808Y301488D01*
X2011087Y302400D02*
X2001441Y302400D01*
X2000791Y303312D02*
X2012366Y303312D01*
X2013644Y304224D02*
X2000140Y304224D01*
X1999489Y305136D02*
X2013051Y305136D01*
X2012400Y306048D02*
X1998839Y306048D01*
X1998188Y306960D02*
X2011750Y306960D01*
X2011099Y307872D02*
X1997538Y307872D01*
X1996887Y308784D02*
X2010448Y308784D01*
X2009798Y309696D02*
X1996237Y309696D01*
X1995586Y310608D02*
X2009147Y310608D01*
X2008497Y311520D02*
X1994936Y311520D01*
X1994285Y312432D02*
X2007846Y312432D01*
X2007196Y313344D02*
X1993645Y313344D01*
X1994924Y314256D02*
X2006545Y314256D01*
X2005895Y315168D02*
X1996202Y315168D01*
X1997481Y316080D02*
X2005244Y316080D01*
X2004593Y316992D02*
X1998759Y316992D01*
X2000038Y317904D02*
X2003943Y317904D01*
X2003292Y318816D02*
X2001317Y318816D01*
X2002595Y319728D02*
X2002642Y319728D01*
X2050284Y330359D02*
X2059272Y336770D01*
X2050284Y330359D02*
X2039228Y345858D01*
X2048216Y352269D01*
X2059272Y336770D01*
X2051563Y331271D02*
X2049633Y331271D01*
X2048983Y332183D02*
X2052841Y332183D01*
X2054120Y333095D02*
X2048332Y333095D01*
X2047682Y334007D02*
X2055398Y334007D01*
X2056677Y334919D02*
X2047031Y334919D01*
X2046381Y335831D02*
X2057956Y335831D01*
X2059234Y336743D02*
X2045730Y336743D01*
X2045079Y337655D02*
X2058641Y337655D01*
X2057990Y338567D02*
X2044429Y338567D01*
X2043778Y339479D02*
X2057340Y339479D01*
X2056689Y340391D02*
X2043128Y340391D01*
X2042477Y341303D02*
X2056038Y341303D01*
X2055388Y342215D02*
X2041827Y342215D01*
X2041176Y343127D02*
X2054737Y343127D01*
X2054087Y344039D02*
X2040526Y344039D01*
X2039875Y344951D02*
X2053436Y344951D01*
X2052786Y345863D02*
X2039235Y345863D01*
X2040514Y346775D02*
X2052135Y346775D01*
X2051485Y347687D02*
X2041792Y347687D01*
X2043071Y348599D02*
X2050834Y348599D01*
X2050183Y349511D02*
X2044349Y349511D01*
X2045628Y350423D02*
X2049533Y350423D01*
X2048882Y351335D02*
X2046907Y351335D01*
X2048185Y352247D02*
X2048232Y352247D01*
D11*
X1998553Y342629D02*
X1994499Y339737D01*
X1987253Y349897D01*
X1991307Y352789D01*
X1998553Y342629D01*
X1995857Y340706D02*
X1993808Y340706D01*
X1993117Y341675D02*
X1997216Y341675D01*
X1998542Y342644D02*
X1992426Y342644D01*
X1991735Y343613D02*
X1997851Y343613D01*
X1997160Y344582D02*
X1991044Y344582D01*
X1990353Y345551D02*
X1996469Y345551D01*
X1995778Y346520D02*
X1989661Y346520D01*
X1988970Y347489D02*
X1995087Y347489D01*
X1994396Y348458D02*
X1988279Y348458D01*
X1987588Y349427D02*
X1993705Y349427D01*
X1993014Y350396D02*
X1987952Y350396D01*
X1989311Y351365D02*
X1992323Y351365D01*
X1991632Y352334D02*
X1990669Y352334D01*
X2002640Y345544D02*
X2006694Y348436D01*
X2002640Y345544D02*
X1995394Y355704D01*
X1999448Y358596D01*
X2006694Y348436D01*
X2003998Y346513D02*
X2001949Y346513D01*
X2001258Y347482D02*
X2005357Y347482D01*
X2006683Y348451D02*
X2000567Y348451D01*
X1999876Y349420D02*
X2005992Y349420D01*
X2005301Y350389D02*
X1999185Y350389D01*
X1998494Y351358D02*
X2004610Y351358D01*
X2003919Y352327D02*
X1997802Y352327D01*
X1997111Y353296D02*
X2003228Y353296D01*
X2002537Y354265D02*
X1996420Y354265D01*
X1995729Y355234D02*
X2001846Y355234D01*
X2001155Y356203D02*
X1996093Y356203D01*
X1997452Y357172D02*
X2000464Y357172D01*
X1999773Y358141D02*
X1998810Y358141D01*
X2010781Y351351D02*
X2014835Y354243D01*
X2010781Y351351D02*
X2003535Y361511D01*
X2007589Y364403D01*
X2014835Y354243D01*
X2012139Y352320D02*
X2010090Y352320D01*
X2009399Y353289D02*
X2013498Y353289D01*
X2014824Y354258D02*
X2008708Y354258D01*
X2008017Y355227D02*
X2014133Y355227D01*
X2013442Y356196D02*
X2007326Y356196D01*
X2006635Y357165D02*
X2012751Y357165D01*
X2012060Y358134D02*
X2005943Y358134D01*
X2005252Y359103D02*
X2011369Y359103D01*
X2010678Y360072D02*
X2004561Y360072D01*
X2003870Y361041D02*
X2009987Y361041D01*
X2009296Y362010D02*
X2004234Y362010D01*
X2005593Y362979D02*
X2008605Y362979D01*
X2007914Y363948D02*
X2006951Y363948D01*
X2018922Y357158D02*
X2022976Y360050D01*
X2018922Y357158D02*
X2011676Y367318D01*
X2015730Y370210D01*
X2022976Y360050D01*
X2020280Y358127D02*
X2018231Y358127D01*
X2017540Y359096D02*
X2021639Y359096D01*
X2022965Y360065D02*
X2016849Y360065D01*
X2016158Y361034D02*
X2022274Y361034D01*
X2021583Y362003D02*
X2015467Y362003D01*
X2014776Y362972D02*
X2020892Y362972D01*
X2020201Y363941D02*
X2014084Y363941D01*
X2013393Y364910D02*
X2019510Y364910D01*
X2018819Y365879D02*
X2012702Y365879D01*
X2012011Y366848D02*
X2018128Y366848D01*
X2017437Y367817D02*
X2012375Y367817D01*
X2013734Y368786D02*
X2016746Y368786D01*
X2016055Y369755D02*
X2015092Y369755D01*
D10*
X1698274Y401243D02*
X1687234Y401243D01*
X1698274Y401243D02*
X1698274Y382203D01*
X1687234Y382203D01*
X1687234Y401243D01*
X1687234Y383115D02*
X1698274Y383115D01*
X1698274Y384027D02*
X1687234Y384027D01*
X1687234Y384939D02*
X1698274Y384939D01*
X1698274Y385851D02*
X1687234Y385851D01*
X1687234Y386763D02*
X1698274Y386763D01*
X1698274Y387675D02*
X1687234Y387675D01*
X1687234Y388587D02*
X1698274Y388587D01*
X1698274Y389499D02*
X1687234Y389499D01*
X1687234Y390411D02*
X1698274Y390411D01*
X1698274Y391323D02*
X1687234Y391323D01*
X1687234Y392235D02*
X1698274Y392235D01*
X1698274Y393147D02*
X1687234Y393147D01*
X1687234Y394059D02*
X1698274Y394059D01*
X1698274Y394971D02*
X1687234Y394971D01*
X1687234Y395883D02*
X1698274Y395883D01*
X1698274Y396795D02*
X1687234Y396795D01*
X1687234Y397707D02*
X1698274Y397707D01*
X1698274Y398619D02*
X1687234Y398619D01*
X1687234Y399531D02*
X1698274Y399531D01*
X1698274Y400443D02*
X1687234Y400443D01*
X1642274Y401243D02*
X1631234Y401243D01*
X1642274Y401243D02*
X1642274Y382203D01*
X1631234Y382203D01*
X1631234Y401243D01*
X1631234Y383115D02*
X1642274Y383115D01*
X1642274Y384027D02*
X1631234Y384027D01*
X1631234Y384939D02*
X1642274Y384939D01*
X1642274Y385851D02*
X1631234Y385851D01*
X1631234Y386763D02*
X1642274Y386763D01*
X1642274Y387675D02*
X1631234Y387675D01*
X1631234Y388587D02*
X1642274Y388587D01*
X1642274Y389499D02*
X1631234Y389499D01*
X1631234Y390411D02*
X1642274Y390411D01*
X1642274Y391323D02*
X1631234Y391323D01*
X1631234Y392235D02*
X1642274Y392235D01*
X1642274Y393147D02*
X1631234Y393147D01*
X1631234Y394059D02*
X1642274Y394059D01*
X1642274Y394971D02*
X1631234Y394971D01*
X1631234Y395883D02*
X1642274Y395883D01*
X1642274Y396795D02*
X1631234Y396795D01*
X1631234Y397707D02*
X1642274Y397707D01*
X1642274Y398619D02*
X1631234Y398619D01*
X1631234Y399531D02*
X1642274Y399531D01*
X1642274Y400443D02*
X1631234Y400443D01*
D11*
X1677264Y361213D02*
X1682244Y361213D01*
X1682244Y348733D01*
X1677264Y348733D01*
X1677264Y361213D01*
X1677264Y349702D02*
X1682244Y349702D01*
X1682244Y350671D02*
X1677264Y350671D01*
X1677264Y351640D02*
X1682244Y351640D01*
X1682244Y352609D02*
X1677264Y352609D01*
X1677264Y353578D02*
X1682244Y353578D01*
X1682244Y354547D02*
X1677264Y354547D01*
X1677264Y355516D02*
X1682244Y355516D01*
X1682244Y356485D02*
X1677264Y356485D01*
X1677264Y357454D02*
X1682244Y357454D01*
X1682244Y358423D02*
X1677264Y358423D01*
X1677264Y359392D02*
X1682244Y359392D01*
X1682244Y360361D02*
X1677264Y360361D01*
X1672244Y361213D02*
X1667264Y361213D01*
X1672244Y361213D02*
X1672244Y348733D01*
X1667264Y348733D01*
X1667264Y361213D01*
X1667264Y349702D02*
X1672244Y349702D01*
X1672244Y350671D02*
X1667264Y350671D01*
X1667264Y351640D02*
X1672244Y351640D01*
X1672244Y352609D02*
X1667264Y352609D01*
X1667264Y353578D02*
X1672244Y353578D01*
X1672244Y354547D02*
X1667264Y354547D01*
X1667264Y355516D02*
X1672244Y355516D01*
X1672244Y356485D02*
X1667264Y356485D01*
X1667264Y357454D02*
X1672244Y357454D01*
X1672244Y358423D02*
X1667264Y358423D01*
X1667264Y359392D02*
X1672244Y359392D01*
X1672244Y360361D02*
X1667264Y360361D01*
X1662244Y361213D02*
X1657264Y361213D01*
X1662244Y361213D02*
X1662244Y348733D01*
X1657264Y348733D01*
X1657264Y361213D01*
X1657264Y349702D02*
X1662244Y349702D01*
X1662244Y350671D02*
X1657264Y350671D01*
X1657264Y351640D02*
X1662244Y351640D01*
X1662244Y352609D02*
X1657264Y352609D01*
X1657264Y353578D02*
X1662244Y353578D01*
X1662244Y354547D02*
X1657264Y354547D01*
X1657264Y355516D02*
X1662244Y355516D01*
X1662244Y356485D02*
X1657264Y356485D01*
X1657264Y357454D02*
X1662244Y357454D01*
X1662244Y358423D02*
X1657264Y358423D01*
X1657264Y359392D02*
X1662244Y359392D01*
X1662244Y360361D02*
X1657264Y360361D01*
X1652244Y361213D02*
X1647264Y361213D01*
X1652244Y361213D02*
X1652244Y348733D01*
X1647264Y348733D01*
X1647264Y361213D01*
X1647264Y349702D02*
X1652244Y349702D01*
X1652244Y350671D02*
X1647264Y350671D01*
X1647264Y351640D02*
X1652244Y351640D01*
X1652244Y352609D02*
X1647264Y352609D01*
X1647264Y353578D02*
X1652244Y353578D01*
X1652244Y354547D02*
X1647264Y354547D01*
X1647264Y355516D02*
X1652244Y355516D01*
X1652244Y356485D02*
X1647264Y356485D01*
X1647264Y357454D02*
X1652244Y357454D01*
X1652244Y358423D02*
X1647264Y358423D01*
X1647264Y359392D02*
X1652244Y359392D01*
X1652244Y360361D02*
X1647264Y360361D01*
D12*
X1817344Y366713D02*
X1817344Y373713D01*
X1824344Y373713D01*
X1824344Y366713D01*
X1817344Y366713D01*
X1817344Y369563D02*
X1824344Y369563D01*
X1824344Y372413D02*
X1817344Y372413D01*
X1799804Y373713D02*
X1799804Y366713D01*
X1799804Y373713D02*
X1806804Y373713D01*
X1806804Y366713D01*
X1799804Y366713D01*
X1799804Y369563D02*
X1806804Y369563D01*
X1806804Y372413D02*
X1799804Y372413D01*
D13*
X1798574Y350473D02*
X1808574Y350473D01*
X1798574Y350473D02*
X1798574Y359473D01*
X1808574Y359473D01*
X1808574Y350473D01*
X1808574Y351423D02*
X1798574Y351423D01*
X1798574Y352373D02*
X1808574Y352373D01*
X1808574Y353323D02*
X1798574Y353323D01*
X1798574Y354273D02*
X1808574Y354273D01*
X1808574Y355223D02*
X1798574Y355223D01*
X1798574Y356173D02*
X1808574Y356173D01*
X1808574Y357123D02*
X1798574Y357123D01*
X1798574Y358073D02*
X1808574Y358073D01*
X1808574Y359023D02*
X1798574Y359023D01*
X1815574Y350473D02*
X1825574Y350473D01*
X1815574Y350473D02*
X1815574Y359473D01*
X1825574Y359473D01*
X1825574Y350473D01*
X1825574Y351423D02*
X1815574Y351423D01*
X1815574Y352373D02*
X1825574Y352373D01*
X1825574Y353323D02*
X1815574Y353323D01*
X1815574Y354273D02*
X1825574Y354273D01*
X1825574Y355223D02*
X1815574Y355223D01*
X1815574Y356173D02*
X1825574Y356173D01*
X1825574Y357123D02*
X1815574Y357123D01*
X1815574Y358073D02*
X1825574Y358073D01*
X1825574Y359023D02*
X1815574Y359023D01*
D10*
X1884031Y457474D02*
X1880729Y468008D01*
X1884031Y457474D02*
X1865863Y451780D01*
X1862561Y462314D01*
X1880729Y468008D01*
X1868773Y452692D02*
X1865577Y452692D01*
X1865291Y453604D02*
X1871683Y453604D01*
X1874593Y454516D02*
X1865005Y454516D01*
X1864719Y455428D02*
X1877503Y455428D01*
X1880413Y456340D02*
X1864434Y456340D01*
X1864148Y457252D02*
X1883323Y457252D01*
X1883815Y458164D02*
X1863862Y458164D01*
X1863576Y459076D02*
X1883529Y459076D01*
X1883243Y459988D02*
X1863290Y459988D01*
X1863004Y460900D02*
X1882957Y460900D01*
X1882671Y461812D02*
X1862718Y461812D01*
X1863869Y462724D02*
X1882385Y462724D01*
X1882099Y463636D02*
X1866779Y463636D01*
X1869689Y464548D02*
X1881814Y464548D01*
X1881528Y465460D02*
X1872599Y465460D01*
X1875509Y466372D02*
X1881242Y466372D01*
X1880956Y467284D02*
X1878419Y467284D01*
X1867284Y510912D02*
X1863982Y521446D01*
X1867284Y510912D02*
X1849116Y505218D01*
X1845814Y515752D01*
X1863982Y521446D01*
X1852026Y506130D02*
X1848830Y506130D01*
X1848544Y507042D02*
X1854936Y507042D01*
X1857846Y507954D02*
X1848258Y507954D01*
X1847972Y508866D02*
X1860756Y508866D01*
X1863666Y509778D02*
X1847687Y509778D01*
X1847401Y510690D02*
X1866576Y510690D01*
X1867068Y511602D02*
X1847115Y511602D01*
X1846829Y512514D02*
X1866782Y512514D01*
X1866496Y513426D02*
X1846543Y513426D01*
X1846257Y514338D02*
X1866210Y514338D01*
X1865924Y515250D02*
X1845971Y515250D01*
X1847122Y516162D02*
X1865638Y516162D01*
X1865352Y517074D02*
X1850032Y517074D01*
X1852942Y517986D02*
X1865067Y517986D01*
X1864781Y518898D02*
X1855852Y518898D01*
X1858762Y519810D02*
X1864495Y519810D01*
X1864209Y520722D02*
X1861672Y520722D01*
D11*
X1839549Y465552D02*
X1841039Y460800D01*
X1829131Y457068D01*
X1827641Y461820D01*
X1839549Y465552D01*
X1832223Y458037D02*
X1828827Y458037D01*
X1828523Y459006D02*
X1835315Y459006D01*
X1838407Y459975D02*
X1828220Y459975D01*
X1827916Y460944D02*
X1840994Y460944D01*
X1840690Y461913D02*
X1827938Y461913D01*
X1831030Y462882D02*
X1840386Y462882D01*
X1840082Y463851D02*
X1834121Y463851D01*
X1837213Y464820D02*
X1839779Y464820D01*
X1838048Y470342D02*
X1836558Y475094D01*
X1838048Y470342D02*
X1826140Y466610D01*
X1824650Y471362D01*
X1836558Y475094D01*
X1829232Y467579D02*
X1825836Y467579D01*
X1825532Y468548D02*
X1832324Y468548D01*
X1835416Y469517D02*
X1825229Y469517D01*
X1824925Y470486D02*
X1838003Y470486D01*
X1837699Y471455D02*
X1824947Y471455D01*
X1828039Y472424D02*
X1837395Y472424D01*
X1837091Y473393D02*
X1831130Y473393D01*
X1834222Y474362D02*
X1836788Y474362D01*
X1835058Y479885D02*
X1833568Y484637D01*
X1835058Y479885D02*
X1823150Y476153D01*
X1821660Y480905D01*
X1833568Y484637D01*
X1826242Y477122D02*
X1822846Y477122D01*
X1822542Y478091D02*
X1829334Y478091D01*
X1832426Y479060D02*
X1822239Y479060D01*
X1821935Y480029D02*
X1835013Y480029D01*
X1834709Y480998D02*
X1821957Y480998D01*
X1825049Y481967D02*
X1834405Y481967D01*
X1834101Y482936D02*
X1828140Y482936D01*
X1831232Y483905D02*
X1833798Y483905D01*
X1832068Y489427D02*
X1830578Y494179D01*
X1832068Y489427D02*
X1820160Y485695D01*
X1818670Y490447D01*
X1830578Y494179D01*
X1823252Y486664D02*
X1819856Y486664D01*
X1819552Y487633D02*
X1826344Y487633D01*
X1829436Y488602D02*
X1819249Y488602D01*
X1818945Y489571D02*
X1832023Y489571D01*
X1831719Y490540D02*
X1818967Y490540D01*
X1822059Y491509D02*
X1831415Y491509D01*
X1831111Y492478D02*
X1825150Y492478D01*
X1828242Y493447D02*
X1830808Y493447D01*
D10*
X198673Y833988D02*
X195079Y823551D01*
X198673Y833988D02*
X216675Y827789D01*
X213081Y817352D01*
X195079Y823551D01*
X210433Y818264D02*
X213395Y818264D01*
X213709Y819176D02*
X207784Y819176D01*
X205136Y820088D02*
X214023Y820088D01*
X214337Y821000D02*
X202487Y821000D01*
X199839Y821912D02*
X214651Y821912D01*
X214965Y822824D02*
X197190Y822824D01*
X195143Y823736D02*
X215279Y823736D01*
X215593Y824648D02*
X195457Y824648D01*
X195771Y825560D02*
X215907Y825560D01*
X216221Y826472D02*
X196085Y826472D01*
X196399Y827384D02*
X216536Y827384D01*
X215203Y828296D02*
X196713Y828296D01*
X197027Y829208D02*
X212554Y829208D01*
X209906Y830120D02*
X197341Y830120D01*
X197655Y831032D02*
X207257Y831032D01*
X204609Y831944D02*
X197969Y831944D01*
X198283Y832856D02*
X201960Y832856D01*
X199312Y833768D02*
X198597Y833768D01*
X180441Y781039D02*
X176847Y770602D01*
X180441Y781039D02*
X198443Y774840D01*
X194849Y764403D01*
X176847Y770602D01*
X192201Y765315D02*
X195163Y765315D01*
X195477Y766227D02*
X189552Y766227D01*
X186904Y767139D02*
X195791Y767139D01*
X196105Y768051D02*
X184255Y768051D01*
X181607Y768963D02*
X196419Y768963D01*
X196733Y769875D02*
X178958Y769875D01*
X176911Y770787D02*
X197047Y770787D01*
X197361Y771699D02*
X177225Y771699D01*
X177539Y772611D02*
X197675Y772611D01*
X197989Y773523D02*
X177853Y773523D01*
X178167Y774435D02*
X198304Y774435D01*
X196971Y775347D02*
X178481Y775347D01*
X178795Y776259D02*
X194322Y776259D01*
X191674Y777171D02*
X179109Y777171D01*
X179423Y778083D02*
X189025Y778083D01*
X186377Y778995D02*
X179737Y778995D01*
X180051Y779907D02*
X183728Y779907D01*
X181080Y780819D02*
X180365Y780819D01*
D11*
X229682Y801091D02*
X231303Y805798D01*
X243102Y801735D01*
X241481Y797028D01*
X229682Y801091D01*
X238667Y797997D02*
X241815Y797997D01*
X242148Y798966D02*
X235853Y798966D01*
X233039Y799935D02*
X242482Y799935D01*
X242816Y800904D02*
X230225Y800904D01*
X229951Y801873D02*
X242701Y801873D01*
X239887Y802842D02*
X230285Y802842D01*
X230619Y803811D02*
X237073Y803811D01*
X234259Y804780D02*
X230952Y804780D01*
X231286Y805749D02*
X231445Y805749D01*
X228047Y796343D02*
X226426Y791636D01*
X228047Y796343D02*
X239846Y792280D01*
X238225Y787573D01*
X226426Y791636D01*
X235411Y788542D02*
X238559Y788542D01*
X238892Y789511D02*
X232597Y789511D01*
X229783Y790480D02*
X239226Y790480D01*
X239560Y791449D02*
X226969Y791449D01*
X226695Y792418D02*
X239445Y792418D01*
X236631Y793387D02*
X227029Y793387D01*
X227363Y794356D02*
X233817Y794356D01*
X231003Y795325D02*
X227696Y795325D01*
X228030Y796294D02*
X228189Y796294D01*
X224792Y786888D02*
X223171Y782181D01*
X224792Y786888D02*
X236591Y782825D01*
X234970Y778118D01*
X223171Y782181D01*
X232156Y779087D02*
X235304Y779087D01*
X235637Y780056D02*
X229342Y780056D01*
X226528Y781025D02*
X235971Y781025D01*
X236305Y781994D02*
X223714Y781994D01*
X223440Y782963D02*
X236190Y782963D01*
X233376Y783932D02*
X223774Y783932D01*
X224108Y784901D02*
X230562Y784901D01*
X227748Y785870D02*
X224441Y785870D01*
X224775Y786839D02*
X224934Y786839D01*
X221536Y777433D02*
X219915Y772726D01*
X221536Y777433D02*
X233335Y773370D01*
X231714Y768663D01*
X219915Y772726D01*
X228900Y769632D02*
X232048Y769632D01*
X232381Y770601D02*
X226086Y770601D01*
X223272Y771570D02*
X232715Y771570D01*
X233049Y772539D02*
X220458Y772539D01*
X220184Y773508D02*
X232934Y773508D01*
X230120Y774477D02*
X220518Y774477D01*
X220852Y775446D02*
X227306Y775446D01*
X224492Y776415D02*
X221185Y776415D01*
X221519Y777384D02*
X221678Y777384D01*
D10*
X392941Y769975D02*
X401816Y763408D01*
X392941Y769975D02*
X404266Y785280D01*
X413141Y778713D01*
X401816Y763408D01*
X402491Y764320D02*
X400583Y764320D01*
X399351Y765232D02*
X403166Y765232D01*
X403841Y766144D02*
X398118Y766144D01*
X396886Y767056D02*
X404515Y767056D01*
X405190Y767968D02*
X395653Y767968D01*
X394421Y768880D02*
X405865Y768880D01*
X406540Y769792D02*
X393188Y769792D01*
X393480Y770704D02*
X407215Y770704D01*
X407890Y771616D02*
X394155Y771616D01*
X394830Y772528D02*
X408564Y772528D01*
X409239Y773440D02*
X395505Y773440D01*
X396180Y774352D02*
X409914Y774352D01*
X410589Y775264D02*
X396855Y775264D01*
X397529Y776176D02*
X411264Y776176D01*
X411939Y777088D02*
X398204Y777088D01*
X398879Y778000D02*
X412613Y778000D01*
X412872Y778912D02*
X399554Y778912D01*
X400229Y779824D02*
X411640Y779824D01*
X410407Y780736D02*
X400904Y780736D01*
X401578Y781648D02*
X409174Y781648D01*
X407942Y782560D02*
X402253Y782560D01*
X402928Y783472D02*
X406709Y783472D01*
X405477Y784384D02*
X403603Y784384D01*
X437957Y736665D02*
X446832Y730098D01*
X437957Y736665D02*
X449282Y751970D01*
X458157Y745403D01*
X446832Y730098D01*
X447507Y731010D02*
X445599Y731010D01*
X444367Y731922D02*
X448182Y731922D01*
X448857Y732834D02*
X443134Y732834D01*
X441902Y733746D02*
X449531Y733746D01*
X450206Y734658D02*
X440669Y734658D01*
X439437Y735570D02*
X450881Y735570D01*
X451556Y736482D02*
X438204Y736482D01*
X438496Y737394D02*
X452231Y737394D01*
X452906Y738306D02*
X439171Y738306D01*
X439846Y739218D02*
X453580Y739218D01*
X454255Y740130D02*
X440521Y740130D01*
X441196Y741042D02*
X454930Y741042D01*
X455605Y741954D02*
X441871Y741954D01*
X442545Y742866D02*
X456280Y742866D01*
X456955Y743778D02*
X443220Y743778D01*
X443895Y744690D02*
X457629Y744690D01*
X457888Y745602D02*
X444570Y745602D01*
X445245Y746514D02*
X456656Y746514D01*
X455423Y747426D02*
X445920Y747426D01*
X446594Y748338D02*
X454190Y748338D01*
X452958Y749250D02*
X447269Y749250D01*
X447944Y750162D02*
X451725Y750162D01*
X450493Y751074D02*
X448619Y751074D01*
D11*
X433640Y789656D02*
X429637Y792619D01*
X437060Y802650D01*
X441063Y799687D01*
X433640Y789656D01*
X434357Y790625D02*
X432331Y790625D01*
X431022Y791594D02*
X435074Y791594D01*
X435791Y792563D02*
X429713Y792563D01*
X430313Y793532D02*
X436508Y793532D01*
X437225Y794501D02*
X431030Y794501D01*
X431747Y795470D02*
X437942Y795470D01*
X438659Y796439D02*
X432464Y796439D01*
X433181Y797408D02*
X439377Y797408D01*
X440094Y798377D02*
X433898Y798377D01*
X434615Y799346D02*
X440811Y799346D01*
X440215Y800315D02*
X435332Y800315D01*
X436049Y801284D02*
X438905Y801284D01*
X437596Y802253D02*
X436766Y802253D01*
X437676Y786671D02*
X441679Y783708D01*
X437676Y786671D02*
X445099Y796702D01*
X449102Y793739D01*
X441679Y783708D01*
X442396Y784677D02*
X440370Y784677D01*
X439061Y785646D02*
X443113Y785646D01*
X443830Y786615D02*
X437752Y786615D01*
X438352Y787584D02*
X444547Y787584D01*
X445264Y788553D02*
X439069Y788553D01*
X439786Y789522D02*
X445981Y789522D01*
X446698Y790491D02*
X440503Y790491D01*
X441220Y791460D02*
X447416Y791460D01*
X448133Y792429D02*
X441937Y792429D01*
X442654Y793398D02*
X448850Y793398D01*
X448254Y794367D02*
X443371Y794367D01*
X444088Y795336D02*
X446944Y795336D01*
X445635Y796305D02*
X444805Y796305D01*
X445715Y780722D02*
X449718Y777759D01*
X445715Y780722D02*
X453138Y790753D01*
X457141Y787790D01*
X449718Y777759D01*
X450435Y778728D02*
X448409Y778728D01*
X447100Y779697D02*
X451152Y779697D01*
X451869Y780666D02*
X445791Y780666D01*
X446391Y781635D02*
X452586Y781635D01*
X453303Y782604D02*
X447108Y782604D01*
X447825Y783573D02*
X454020Y783573D01*
X454737Y784542D02*
X448542Y784542D01*
X449259Y785511D02*
X455455Y785511D01*
X456172Y786480D02*
X449976Y786480D01*
X450693Y787449D02*
X456889Y787449D01*
X456293Y788418D02*
X451410Y788418D01*
X452127Y789387D02*
X454983Y789387D01*
X453674Y790356D02*
X452844Y790356D01*
X453753Y774774D02*
X457756Y771811D01*
X453753Y774774D02*
X461176Y784805D01*
X465179Y781842D01*
X457756Y771811D01*
X458473Y772780D02*
X456447Y772780D01*
X455138Y773749D02*
X459190Y773749D01*
X459907Y774718D02*
X453829Y774718D01*
X454429Y775687D02*
X460624Y775687D01*
X461341Y776656D02*
X455146Y776656D01*
X455863Y777625D02*
X462058Y777625D01*
X462775Y778594D02*
X456580Y778594D01*
X457297Y779563D02*
X463493Y779563D01*
X464210Y780532D02*
X458014Y780532D01*
X458731Y781501D02*
X464927Y781501D01*
X464331Y782470D02*
X459448Y782470D01*
X460165Y783439D02*
X463021Y783439D01*
X461712Y784408D02*
X460882Y784408D01*
D10*
X510488Y935837D02*
X519476Y942248D01*
X510488Y935837D02*
X499432Y951336D01*
X508420Y957747D01*
X519476Y942248D01*
X511767Y936749D02*
X509837Y936749D01*
X509187Y937661D02*
X513045Y937661D01*
X514324Y938573D02*
X508536Y938573D01*
X507886Y939485D02*
X515602Y939485D01*
X516881Y940397D02*
X507235Y940397D01*
X506585Y941309D02*
X518160Y941309D01*
X519438Y942221D02*
X505934Y942221D01*
X505283Y943133D02*
X518845Y943133D01*
X518194Y944045D02*
X504633Y944045D01*
X503982Y944957D02*
X517544Y944957D01*
X516893Y945869D02*
X503332Y945869D01*
X502681Y946781D02*
X516242Y946781D01*
X515592Y947693D02*
X502031Y947693D01*
X501380Y948605D02*
X514941Y948605D01*
X514291Y949517D02*
X500730Y949517D01*
X500079Y950429D02*
X513640Y950429D01*
X512990Y951341D02*
X499439Y951341D01*
X500718Y952253D02*
X512339Y952253D01*
X511689Y953165D02*
X501996Y953165D01*
X503275Y954077D02*
X511038Y954077D01*
X510387Y954989D02*
X504553Y954989D01*
X505832Y955901D02*
X509737Y955901D01*
X509086Y956813D02*
X507111Y956813D01*
X508389Y957725D02*
X508436Y957725D01*
X556079Y968356D02*
X565067Y974767D01*
X556079Y968356D02*
X545023Y983855D01*
X554011Y990266D01*
X565067Y974767D01*
X557358Y969268D02*
X555428Y969268D01*
X554778Y970180D02*
X558636Y970180D01*
X559915Y971092D02*
X554127Y971092D01*
X553477Y972004D02*
X561193Y972004D01*
X562472Y972916D02*
X552826Y972916D01*
X552176Y973828D02*
X563751Y973828D01*
X565029Y974740D02*
X551525Y974740D01*
X550874Y975652D02*
X564436Y975652D01*
X563785Y976564D02*
X550224Y976564D01*
X549573Y977476D02*
X563135Y977476D01*
X562484Y978388D02*
X548923Y978388D01*
X548272Y979300D02*
X561833Y979300D01*
X561183Y980212D02*
X547622Y980212D01*
X546971Y981124D02*
X560532Y981124D01*
X559882Y982036D02*
X546321Y982036D01*
X545670Y982948D02*
X559231Y982948D01*
X558581Y983860D02*
X545030Y983860D01*
X546309Y984772D02*
X557930Y984772D01*
X557280Y985684D02*
X547587Y985684D01*
X548866Y986596D02*
X556629Y986596D01*
X555978Y987508D02*
X550144Y987508D01*
X551423Y988420D02*
X555328Y988420D01*
X554677Y989332D02*
X552702Y989332D01*
X553980Y990244D02*
X554027Y990244D01*
D11*
X504347Y980626D02*
X500293Y977734D01*
X493047Y987894D01*
X497101Y990786D01*
X504347Y980626D01*
X501651Y978703D02*
X499602Y978703D01*
X498911Y979672D02*
X503010Y979672D01*
X504336Y980641D02*
X498220Y980641D01*
X497529Y981610D02*
X503645Y981610D01*
X502954Y982579D02*
X496838Y982579D01*
X496147Y983548D02*
X502263Y983548D01*
X501572Y984517D02*
X495455Y984517D01*
X494764Y985486D02*
X500881Y985486D01*
X500190Y986455D02*
X494073Y986455D01*
X493382Y987424D02*
X499499Y987424D01*
X498808Y988393D02*
X493746Y988393D01*
X495105Y989362D02*
X498117Y989362D01*
X497426Y990331D02*
X496463Y990331D01*
X508434Y983541D02*
X512488Y986433D01*
X508434Y983541D02*
X501188Y993701D01*
X505242Y996593D01*
X512488Y986433D01*
X509792Y984510D02*
X507743Y984510D01*
X507052Y985479D02*
X511151Y985479D01*
X512477Y986448D02*
X506361Y986448D01*
X505670Y987417D02*
X511786Y987417D01*
X511095Y988386D02*
X504979Y988386D01*
X504288Y989355D02*
X510404Y989355D01*
X509713Y990324D02*
X503596Y990324D01*
X502905Y991293D02*
X509022Y991293D01*
X508331Y992262D02*
X502214Y992262D01*
X501523Y993231D02*
X507640Y993231D01*
X506949Y994200D02*
X501887Y994200D01*
X503246Y995169D02*
X506258Y995169D01*
X505567Y996138D02*
X504604Y996138D01*
X516575Y989348D02*
X520629Y992240D01*
X516575Y989348D02*
X509329Y999508D01*
X513383Y1002400D01*
X520629Y992240D01*
X517933Y990317D02*
X515884Y990317D01*
X515193Y991286D02*
X519292Y991286D01*
X520618Y992255D02*
X514502Y992255D01*
X513811Y993224D02*
X519927Y993224D01*
X519236Y994193D02*
X513120Y994193D01*
X512429Y995162D02*
X518545Y995162D01*
X517854Y996131D02*
X511737Y996131D01*
X511046Y997100D02*
X517163Y997100D01*
X516472Y998069D02*
X510355Y998069D01*
X509664Y999038D02*
X515781Y999038D01*
X515090Y1000007D02*
X510028Y1000007D01*
X511387Y1000976D02*
X514399Y1000976D01*
X513708Y1001945D02*
X512745Y1001945D01*
X524716Y995155D02*
X528770Y998047D01*
X524716Y995155D02*
X517470Y1005315D01*
X521524Y1008207D01*
X528770Y998047D01*
X526074Y996124D02*
X524025Y996124D01*
X523334Y997093D02*
X527433Y997093D01*
X528759Y998062D02*
X522643Y998062D01*
X521952Y999031D02*
X528068Y999031D01*
X527377Y1000000D02*
X521261Y1000000D01*
X520570Y1000969D02*
X526686Y1000969D01*
X525995Y1001938D02*
X519878Y1001938D01*
X519187Y1002907D02*
X525304Y1002907D01*
X524613Y1003876D02*
X518496Y1003876D01*
X517805Y1004845D02*
X523922Y1004845D01*
X523231Y1005814D02*
X518169Y1005814D01*
X519528Y1006783D02*
X522540Y1006783D01*
X521849Y1007752D02*
X520886Y1007752D01*
D10*
X204069Y1039240D02*
X193029Y1039240D01*
X204069Y1039240D02*
X204069Y1020200D01*
X193029Y1020200D01*
X193029Y1039240D01*
X193029Y1021112D02*
X204069Y1021112D01*
X204069Y1022024D02*
X193029Y1022024D01*
X193029Y1022936D02*
X204069Y1022936D01*
X204069Y1023848D02*
X193029Y1023848D01*
X193029Y1024760D02*
X204069Y1024760D01*
X204069Y1025672D02*
X193029Y1025672D01*
X193029Y1026584D02*
X204069Y1026584D01*
X204069Y1027496D02*
X193029Y1027496D01*
X193029Y1028408D02*
X204069Y1028408D01*
X204069Y1029320D02*
X193029Y1029320D01*
X193029Y1030232D02*
X204069Y1030232D01*
X204069Y1031144D02*
X193029Y1031144D01*
X193029Y1032056D02*
X204069Y1032056D01*
X204069Y1032968D02*
X193029Y1032968D01*
X193029Y1033880D02*
X204069Y1033880D01*
X204069Y1034792D02*
X193029Y1034792D01*
X193029Y1035704D02*
X204069Y1035704D01*
X204069Y1036616D02*
X193029Y1036616D01*
X193029Y1037528D02*
X204069Y1037528D01*
X204069Y1038440D02*
X193029Y1038440D01*
X148069Y1039240D02*
X137029Y1039240D01*
X148069Y1039240D02*
X148069Y1020200D01*
X137029Y1020200D01*
X137029Y1039240D01*
X137029Y1021112D02*
X148069Y1021112D01*
X148069Y1022024D02*
X137029Y1022024D01*
X137029Y1022936D02*
X148069Y1022936D01*
X148069Y1023848D02*
X137029Y1023848D01*
X137029Y1024760D02*
X148069Y1024760D01*
X148069Y1025672D02*
X137029Y1025672D01*
X137029Y1026584D02*
X148069Y1026584D01*
X148069Y1027496D02*
X137029Y1027496D01*
X137029Y1028408D02*
X148069Y1028408D01*
X148069Y1029320D02*
X137029Y1029320D01*
X137029Y1030232D02*
X148069Y1030232D01*
X148069Y1031144D02*
X137029Y1031144D01*
X137029Y1032056D02*
X148069Y1032056D01*
X148069Y1032968D02*
X137029Y1032968D01*
X137029Y1033880D02*
X148069Y1033880D01*
X148069Y1034792D02*
X137029Y1034792D01*
X137029Y1035704D02*
X148069Y1035704D01*
X148069Y1036616D02*
X137029Y1036616D01*
X137029Y1037528D02*
X148069Y1037528D01*
X148069Y1038440D02*
X137029Y1038440D01*
D11*
X183059Y999210D02*
X188039Y999210D01*
X188039Y986730D01*
X183059Y986730D01*
X183059Y999210D01*
X183059Y987699D02*
X188039Y987699D01*
X188039Y988668D02*
X183059Y988668D01*
X183059Y989637D02*
X188039Y989637D01*
X188039Y990606D02*
X183059Y990606D01*
X183059Y991575D02*
X188039Y991575D01*
X188039Y992544D02*
X183059Y992544D01*
X183059Y993513D02*
X188039Y993513D01*
X188039Y994482D02*
X183059Y994482D01*
X183059Y995451D02*
X188039Y995451D01*
X188039Y996420D02*
X183059Y996420D01*
X183059Y997389D02*
X188039Y997389D01*
X188039Y998358D02*
X183059Y998358D01*
X178039Y999210D02*
X173059Y999210D01*
X178039Y999210D02*
X178039Y986730D01*
X173059Y986730D01*
X173059Y999210D01*
X173059Y987699D02*
X178039Y987699D01*
X178039Y988668D02*
X173059Y988668D01*
X173059Y989637D02*
X178039Y989637D01*
X178039Y990606D02*
X173059Y990606D01*
X173059Y991575D02*
X178039Y991575D01*
X178039Y992544D02*
X173059Y992544D01*
X173059Y993513D02*
X178039Y993513D01*
X178039Y994482D02*
X173059Y994482D01*
X173059Y995451D02*
X178039Y995451D01*
X178039Y996420D02*
X173059Y996420D01*
X173059Y997389D02*
X178039Y997389D01*
X178039Y998358D02*
X173059Y998358D01*
X168039Y999210D02*
X163059Y999210D01*
X168039Y999210D02*
X168039Y986730D01*
X163059Y986730D01*
X163059Y999210D01*
X163059Y987699D02*
X168039Y987699D01*
X168039Y988668D02*
X163059Y988668D01*
X163059Y989637D02*
X168039Y989637D01*
X168039Y990606D02*
X163059Y990606D01*
X163059Y991575D02*
X168039Y991575D01*
X168039Y992544D02*
X163059Y992544D01*
X163059Y993513D02*
X168039Y993513D01*
X168039Y994482D02*
X163059Y994482D01*
X163059Y995451D02*
X168039Y995451D01*
X168039Y996420D02*
X163059Y996420D01*
X163059Y997389D02*
X168039Y997389D01*
X168039Y998358D02*
X163059Y998358D01*
X158039Y999210D02*
X153059Y999210D01*
X158039Y999210D02*
X158039Y986730D01*
X153059Y986730D01*
X153059Y999210D01*
X153059Y987699D02*
X158039Y987699D01*
X158039Y988668D02*
X153059Y988668D01*
X153059Y989637D02*
X158039Y989637D01*
X158039Y990606D02*
X153059Y990606D01*
X153059Y991575D02*
X158039Y991575D01*
X158039Y992544D02*
X153059Y992544D01*
X153059Y993513D02*
X158039Y993513D01*
X158039Y994482D02*
X153059Y994482D01*
X153059Y995451D02*
X158039Y995451D01*
X158039Y996420D02*
X153059Y996420D01*
X153059Y997389D02*
X158039Y997389D01*
X158039Y998358D02*
X153059Y998358D01*
D12*
X323138Y1004711D02*
X323138Y1011711D01*
X330138Y1011711D01*
X330138Y1004711D01*
X323138Y1004711D01*
X323138Y1007561D02*
X330138Y1007561D01*
X330138Y1010411D02*
X323138Y1010411D01*
X305598Y1011711D02*
X305598Y1004711D01*
X305598Y1011711D02*
X312598Y1011711D01*
X312598Y1004711D01*
X305598Y1004711D01*
X305598Y1007561D02*
X312598Y1007561D01*
X312598Y1010411D02*
X305598Y1010411D01*
D13*
X304368Y988471D02*
X314368Y988471D01*
X304368Y988471D02*
X304368Y997471D01*
X314368Y997471D01*
X314368Y988471D01*
X314368Y989421D02*
X304368Y989421D01*
X304368Y990371D02*
X314368Y990371D01*
X314368Y991321D02*
X304368Y991321D01*
X304368Y992271D02*
X314368Y992271D01*
X314368Y993221D02*
X304368Y993221D01*
X304368Y994171D02*
X314368Y994171D01*
X314368Y995121D02*
X304368Y995121D01*
X304368Y996071D02*
X314368Y996071D01*
X314368Y997021D02*
X304368Y997021D01*
X321368Y988471D02*
X331368Y988471D01*
X321368Y988471D02*
X321368Y997471D01*
X331368Y997471D01*
X331368Y988471D01*
X331368Y989421D02*
X321368Y989421D01*
X321368Y990371D02*
X331368Y990371D01*
X331368Y991321D02*
X321368Y991321D01*
X321368Y992271D02*
X331368Y992271D01*
X331368Y993221D02*
X321368Y993221D01*
X321368Y994171D02*
X331368Y994171D01*
X331368Y995121D02*
X321368Y995121D01*
X321368Y996071D02*
X331368Y996071D01*
X331368Y997021D02*
X321368Y997021D01*
D10*
X389825Y1095472D02*
X386523Y1106006D01*
X389825Y1095472D02*
X371657Y1089778D01*
X368355Y1100312D01*
X386523Y1106006D01*
X374567Y1090690D02*
X371371Y1090690D01*
X371085Y1091602D02*
X377477Y1091602D01*
X380387Y1092514D02*
X370799Y1092514D01*
X370513Y1093426D02*
X383297Y1093426D01*
X386207Y1094338D02*
X370228Y1094338D01*
X369942Y1095250D02*
X389117Y1095250D01*
X389609Y1096162D02*
X369656Y1096162D01*
X369370Y1097074D02*
X389323Y1097074D01*
X389037Y1097986D02*
X369084Y1097986D01*
X368798Y1098898D02*
X388751Y1098898D01*
X388465Y1099810D02*
X368512Y1099810D01*
X369663Y1100722D02*
X388179Y1100722D01*
X387893Y1101634D02*
X372573Y1101634D01*
X375483Y1102546D02*
X387608Y1102546D01*
X387322Y1103458D02*
X378393Y1103458D01*
X381303Y1104370D02*
X387036Y1104370D01*
X386750Y1105282D02*
X384213Y1105282D01*
X373079Y1148909D02*
X369777Y1159443D01*
X373079Y1148909D02*
X354911Y1143215D01*
X351609Y1153749D01*
X369777Y1159443D01*
X357821Y1144127D02*
X354625Y1144127D01*
X354339Y1145039D02*
X360731Y1145039D01*
X363641Y1145951D02*
X354053Y1145951D01*
X353767Y1146863D02*
X366551Y1146863D01*
X369461Y1147775D02*
X353482Y1147775D01*
X353196Y1148687D02*
X372371Y1148687D01*
X372863Y1149599D02*
X352910Y1149599D01*
X352624Y1150511D02*
X372577Y1150511D01*
X372291Y1151423D02*
X352338Y1151423D01*
X352052Y1152335D02*
X372005Y1152335D01*
X371719Y1153247D02*
X351766Y1153247D01*
X352917Y1154159D02*
X371433Y1154159D01*
X371147Y1155071D02*
X355827Y1155071D01*
X358737Y1155983D02*
X370862Y1155983D01*
X370576Y1156895D02*
X361647Y1156895D01*
X364557Y1157807D02*
X370290Y1157807D01*
X370004Y1158719D02*
X367467Y1158719D01*
D11*
X345343Y1103549D02*
X346833Y1098797D01*
X334925Y1095065D01*
X333435Y1099817D01*
X345343Y1103549D01*
X338017Y1096034D02*
X334621Y1096034D01*
X334317Y1097003D02*
X341109Y1097003D01*
X344201Y1097972D02*
X334014Y1097972D01*
X333710Y1098941D02*
X346788Y1098941D01*
X346484Y1099910D02*
X333732Y1099910D01*
X336824Y1100879D02*
X346180Y1100879D01*
X345876Y1101848D02*
X339915Y1101848D01*
X343007Y1102817D02*
X345573Y1102817D01*
X343843Y1108339D02*
X342353Y1113091D01*
X343843Y1108339D02*
X331935Y1104607D01*
X330445Y1109359D01*
X342353Y1113091D01*
X335027Y1105576D02*
X331631Y1105576D01*
X331327Y1106545D02*
X338119Y1106545D01*
X341211Y1107514D02*
X331024Y1107514D01*
X330720Y1108483D02*
X343798Y1108483D01*
X343494Y1109452D02*
X330742Y1109452D01*
X333834Y1110421D02*
X343190Y1110421D01*
X342886Y1111390D02*
X336925Y1111390D01*
X340017Y1112359D02*
X342583Y1112359D01*
X340852Y1117882D02*
X339362Y1122634D01*
X340852Y1117882D02*
X328944Y1114150D01*
X327454Y1118902D01*
X339362Y1122634D01*
X332036Y1115119D02*
X328640Y1115119D01*
X328336Y1116088D02*
X335128Y1116088D01*
X338220Y1117057D02*
X328033Y1117057D01*
X327729Y1118026D02*
X340807Y1118026D01*
X340503Y1118995D02*
X327751Y1118995D01*
X330843Y1119964D02*
X340199Y1119964D01*
X339895Y1120933D02*
X333934Y1120933D01*
X337026Y1121902D02*
X339592Y1121902D01*
X337862Y1127424D02*
X336372Y1132176D01*
X337862Y1127424D02*
X325954Y1123692D01*
X324464Y1128444D01*
X336372Y1132176D01*
X329046Y1124661D02*
X325650Y1124661D01*
X325346Y1125630D02*
X332138Y1125630D01*
X335230Y1126599D02*
X325043Y1126599D01*
X324739Y1127568D02*
X337817Y1127568D01*
X337513Y1128537D02*
X324761Y1128537D01*
X327853Y1129506D02*
X337209Y1129506D01*
X336905Y1130475D02*
X330944Y1130475D01*
X334036Y1131444D02*
X336602Y1131444D01*
D10*
X945763Y833988D02*
X942169Y823551D01*
X945763Y833988D02*
X963765Y827789D01*
X960171Y817352D01*
X942169Y823551D01*
X957523Y818264D02*
X960485Y818264D01*
X960799Y819176D02*
X954874Y819176D01*
X952226Y820088D02*
X961113Y820088D01*
X961427Y821000D02*
X949577Y821000D01*
X946929Y821912D02*
X961741Y821912D01*
X962055Y822824D02*
X944280Y822824D01*
X942233Y823736D02*
X962369Y823736D01*
X962683Y824648D02*
X942547Y824648D01*
X942861Y825560D02*
X962997Y825560D01*
X963311Y826472D02*
X943175Y826472D01*
X943489Y827384D02*
X963626Y827384D01*
X962293Y828296D02*
X943803Y828296D01*
X944117Y829208D02*
X959644Y829208D01*
X956996Y830120D02*
X944431Y830120D01*
X944745Y831032D02*
X954347Y831032D01*
X951699Y831944D02*
X945059Y831944D01*
X945373Y832856D02*
X949050Y832856D01*
X946402Y833768D02*
X945687Y833768D01*
X927531Y781039D02*
X923937Y770602D01*
X927531Y781039D02*
X945533Y774840D01*
X941939Y764403D01*
X923937Y770602D01*
X939291Y765315D02*
X942253Y765315D01*
X942567Y766227D02*
X936642Y766227D01*
X933994Y767139D02*
X942881Y767139D01*
X943195Y768051D02*
X931345Y768051D01*
X928697Y768963D02*
X943509Y768963D01*
X943823Y769875D02*
X926048Y769875D01*
X924001Y770787D02*
X944137Y770787D01*
X944451Y771699D02*
X924315Y771699D01*
X924629Y772611D02*
X944765Y772611D01*
X945079Y773523D02*
X924943Y773523D01*
X925257Y774435D02*
X945394Y774435D01*
X944061Y775347D02*
X925571Y775347D01*
X925885Y776259D02*
X941412Y776259D01*
X938764Y777171D02*
X926199Y777171D01*
X926513Y778083D02*
X936115Y778083D01*
X933467Y778995D02*
X926827Y778995D01*
X927141Y779907D02*
X930818Y779907D01*
X928170Y780819D02*
X927455Y780819D01*
D11*
X976772Y801091D02*
X978393Y805798D01*
X990192Y801735D01*
X988571Y797028D01*
X976772Y801091D01*
X985757Y797997D02*
X988905Y797997D01*
X989238Y798966D02*
X982943Y798966D01*
X980129Y799935D02*
X989572Y799935D01*
X989906Y800904D02*
X977315Y800904D01*
X977041Y801873D02*
X989791Y801873D01*
X986977Y802842D02*
X977375Y802842D01*
X977709Y803811D02*
X984163Y803811D01*
X981349Y804780D02*
X978042Y804780D01*
X978376Y805749D02*
X978535Y805749D01*
X975137Y796343D02*
X973516Y791636D01*
X975137Y796343D02*
X986936Y792280D01*
X985315Y787573D01*
X973516Y791636D01*
X982501Y788542D02*
X985649Y788542D01*
X985982Y789511D02*
X979687Y789511D01*
X976873Y790480D02*
X986316Y790480D01*
X986650Y791449D02*
X974059Y791449D01*
X973785Y792418D02*
X986535Y792418D01*
X983721Y793387D02*
X974119Y793387D01*
X974453Y794356D02*
X980907Y794356D01*
X978093Y795325D02*
X974786Y795325D01*
X975120Y796294D02*
X975279Y796294D01*
X971882Y786888D02*
X970261Y782181D01*
X971882Y786888D02*
X983681Y782825D01*
X982060Y778118D01*
X970261Y782181D01*
X979246Y779087D02*
X982394Y779087D01*
X982727Y780056D02*
X976432Y780056D01*
X973618Y781025D02*
X983061Y781025D01*
X983395Y781994D02*
X970804Y781994D01*
X970530Y782963D02*
X983280Y782963D01*
X980466Y783932D02*
X970864Y783932D01*
X971198Y784901D02*
X977652Y784901D01*
X974838Y785870D02*
X971531Y785870D01*
X971865Y786839D02*
X972024Y786839D01*
X968626Y777433D02*
X967005Y772726D01*
X968626Y777433D02*
X980425Y773370D01*
X978804Y768663D01*
X967005Y772726D01*
X975990Y769632D02*
X979138Y769632D01*
X979471Y770601D02*
X973176Y770601D01*
X970362Y771570D02*
X979805Y771570D01*
X980139Y772539D02*
X967548Y772539D01*
X967274Y773508D02*
X980024Y773508D01*
X977210Y774477D02*
X967608Y774477D01*
X967942Y775446D02*
X974396Y775446D01*
X971582Y776415D02*
X968275Y776415D01*
X968609Y777384D02*
X968768Y777384D01*
D10*
X1140031Y769975D02*
X1148906Y763408D01*
X1140031Y769975D02*
X1151356Y785280D01*
X1160231Y778713D01*
X1148906Y763408D01*
X1149581Y764320D02*
X1147673Y764320D01*
X1146441Y765232D02*
X1150256Y765232D01*
X1150931Y766144D02*
X1145208Y766144D01*
X1143976Y767056D02*
X1151605Y767056D01*
X1152280Y767968D02*
X1142743Y767968D01*
X1141511Y768880D02*
X1152955Y768880D01*
X1153630Y769792D02*
X1140278Y769792D01*
X1140570Y770704D02*
X1154305Y770704D01*
X1154980Y771616D02*
X1141245Y771616D01*
X1141920Y772528D02*
X1155654Y772528D01*
X1156329Y773440D02*
X1142595Y773440D01*
X1143270Y774352D02*
X1157004Y774352D01*
X1157679Y775264D02*
X1143945Y775264D01*
X1144619Y776176D02*
X1158354Y776176D01*
X1159029Y777088D02*
X1145294Y777088D01*
X1145969Y778000D02*
X1159703Y778000D01*
X1159962Y778912D02*
X1146644Y778912D01*
X1147319Y779824D02*
X1158730Y779824D01*
X1157497Y780736D02*
X1147994Y780736D01*
X1148668Y781648D02*
X1156264Y781648D01*
X1155032Y782560D02*
X1149343Y782560D01*
X1150018Y783472D02*
X1153799Y783472D01*
X1152567Y784384D02*
X1150693Y784384D01*
X1185047Y736665D02*
X1193922Y730098D01*
X1185047Y736665D02*
X1196372Y751970D01*
X1205247Y745403D01*
X1193922Y730098D01*
X1194597Y731010D02*
X1192689Y731010D01*
X1191457Y731922D02*
X1195272Y731922D01*
X1195947Y732834D02*
X1190224Y732834D01*
X1188992Y733746D02*
X1196621Y733746D01*
X1197296Y734658D02*
X1187759Y734658D01*
X1186527Y735570D02*
X1197971Y735570D01*
X1198646Y736482D02*
X1185294Y736482D01*
X1185586Y737394D02*
X1199321Y737394D01*
X1199996Y738306D02*
X1186261Y738306D01*
X1186936Y739218D02*
X1200670Y739218D01*
X1201345Y740130D02*
X1187611Y740130D01*
X1188286Y741042D02*
X1202020Y741042D01*
X1202695Y741954D02*
X1188961Y741954D01*
X1189635Y742866D02*
X1203370Y742866D01*
X1204045Y743778D02*
X1190310Y743778D01*
X1190985Y744690D02*
X1204719Y744690D01*
X1204978Y745602D02*
X1191660Y745602D01*
X1192335Y746514D02*
X1203746Y746514D01*
X1202513Y747426D02*
X1193010Y747426D01*
X1193684Y748338D02*
X1201280Y748338D01*
X1200048Y749250D02*
X1194359Y749250D01*
X1195034Y750162D02*
X1198815Y750162D01*
X1197583Y751074D02*
X1195709Y751074D01*
D11*
X1180731Y789656D02*
X1176728Y792619D01*
X1184151Y802650D01*
X1188154Y799687D01*
X1180731Y789656D01*
X1181448Y790625D02*
X1179422Y790625D01*
X1178113Y791594D02*
X1182165Y791594D01*
X1182882Y792563D02*
X1176804Y792563D01*
X1177404Y793532D02*
X1183599Y793532D01*
X1184316Y794501D02*
X1178121Y794501D01*
X1178838Y795470D02*
X1185033Y795470D01*
X1185750Y796439D02*
X1179555Y796439D01*
X1180272Y797408D02*
X1186468Y797408D01*
X1187185Y798377D02*
X1180989Y798377D01*
X1181706Y799346D02*
X1187902Y799346D01*
X1187306Y800315D02*
X1182423Y800315D01*
X1183140Y801284D02*
X1185996Y801284D01*
X1184687Y802253D02*
X1183857Y802253D01*
X1184766Y786671D02*
X1188769Y783708D01*
X1184766Y786671D02*
X1192189Y796702D01*
X1196192Y793739D01*
X1188769Y783708D01*
X1189486Y784677D02*
X1187460Y784677D01*
X1186151Y785646D02*
X1190203Y785646D01*
X1190920Y786615D02*
X1184842Y786615D01*
X1185442Y787584D02*
X1191637Y787584D01*
X1192354Y788553D02*
X1186159Y788553D01*
X1186876Y789522D02*
X1193071Y789522D01*
X1193788Y790491D02*
X1187593Y790491D01*
X1188310Y791460D02*
X1194506Y791460D01*
X1195223Y792429D02*
X1189027Y792429D01*
X1189744Y793398D02*
X1195940Y793398D01*
X1195344Y794367D02*
X1190461Y794367D01*
X1191178Y795336D02*
X1194034Y795336D01*
X1192725Y796305D02*
X1191895Y796305D01*
X1192805Y780722D02*
X1196808Y777759D01*
X1192805Y780722D02*
X1200228Y790753D01*
X1204231Y787790D01*
X1196808Y777759D01*
X1197525Y778728D02*
X1195499Y778728D01*
X1194190Y779697D02*
X1198242Y779697D01*
X1198959Y780666D02*
X1192881Y780666D01*
X1193481Y781635D02*
X1199676Y781635D01*
X1200393Y782604D02*
X1194198Y782604D01*
X1194915Y783573D02*
X1201110Y783573D01*
X1201827Y784542D02*
X1195632Y784542D01*
X1196349Y785511D02*
X1202545Y785511D01*
X1203262Y786480D02*
X1197066Y786480D01*
X1197783Y787449D02*
X1203979Y787449D01*
X1203383Y788418D02*
X1198500Y788418D01*
X1199217Y789387D02*
X1202073Y789387D01*
X1200764Y790356D02*
X1199934Y790356D01*
X1200843Y774774D02*
X1204846Y771811D01*
X1200843Y774774D02*
X1208266Y784805D01*
X1212269Y781842D01*
X1204846Y771811D01*
X1205563Y772780D02*
X1203537Y772780D01*
X1202228Y773749D02*
X1206280Y773749D01*
X1206997Y774718D02*
X1200919Y774718D01*
X1201519Y775687D02*
X1207714Y775687D01*
X1208431Y776656D02*
X1202236Y776656D01*
X1202953Y777625D02*
X1209148Y777625D01*
X1209865Y778594D02*
X1203670Y778594D01*
X1204387Y779563D02*
X1210583Y779563D01*
X1211300Y780532D02*
X1205104Y780532D01*
X1205821Y781501D02*
X1212017Y781501D01*
X1211421Y782470D02*
X1206538Y782470D01*
X1207255Y783439D02*
X1210111Y783439D01*
X1208802Y784408D02*
X1207972Y784408D01*
D10*
X1257578Y935837D02*
X1266566Y942248D01*
X1257578Y935837D02*
X1246522Y951336D01*
X1255510Y957747D01*
X1266566Y942248D01*
X1258857Y936749D02*
X1256927Y936749D01*
X1256277Y937661D02*
X1260135Y937661D01*
X1261414Y938573D02*
X1255626Y938573D01*
X1254976Y939485D02*
X1262692Y939485D01*
X1263971Y940397D02*
X1254325Y940397D01*
X1253675Y941309D02*
X1265250Y941309D01*
X1266528Y942221D02*
X1253024Y942221D01*
X1252373Y943133D02*
X1265935Y943133D01*
X1265284Y944045D02*
X1251723Y944045D01*
X1251072Y944957D02*
X1264634Y944957D01*
X1263983Y945869D02*
X1250422Y945869D01*
X1249771Y946781D02*
X1263332Y946781D01*
X1262682Y947693D02*
X1249121Y947693D01*
X1248470Y948605D02*
X1262031Y948605D01*
X1261381Y949517D02*
X1247820Y949517D01*
X1247169Y950429D02*
X1260730Y950429D01*
X1260080Y951341D02*
X1246529Y951341D01*
X1247808Y952253D02*
X1259429Y952253D01*
X1258779Y953165D02*
X1249086Y953165D01*
X1250365Y954077D02*
X1258128Y954077D01*
X1257477Y954989D02*
X1251643Y954989D01*
X1252922Y955901D02*
X1256827Y955901D01*
X1256176Y956813D02*
X1254201Y956813D01*
X1255479Y957725D02*
X1255526Y957725D01*
X1303169Y968356D02*
X1312157Y974767D01*
X1303169Y968356D02*
X1292113Y983855D01*
X1301101Y990266D01*
X1312157Y974767D01*
X1304448Y969268D02*
X1302518Y969268D01*
X1301868Y970180D02*
X1305726Y970180D01*
X1307005Y971092D02*
X1301217Y971092D01*
X1300567Y972004D02*
X1308283Y972004D01*
X1309562Y972916D02*
X1299916Y972916D01*
X1299266Y973828D02*
X1310841Y973828D01*
X1312119Y974740D02*
X1298615Y974740D01*
X1297964Y975652D02*
X1311526Y975652D01*
X1310875Y976564D02*
X1297314Y976564D01*
X1296663Y977476D02*
X1310225Y977476D01*
X1309574Y978388D02*
X1296013Y978388D01*
X1295362Y979300D02*
X1308923Y979300D01*
X1308273Y980212D02*
X1294712Y980212D01*
X1294061Y981124D02*
X1307622Y981124D01*
X1306972Y982036D02*
X1293411Y982036D01*
X1292760Y982948D02*
X1306321Y982948D01*
X1305671Y983860D02*
X1292120Y983860D01*
X1293399Y984772D02*
X1305020Y984772D01*
X1304370Y985684D02*
X1294677Y985684D01*
X1295956Y986596D02*
X1303719Y986596D01*
X1303068Y987508D02*
X1297234Y987508D01*
X1298513Y988420D02*
X1302418Y988420D01*
X1301767Y989332D02*
X1299792Y989332D01*
X1301070Y990244D02*
X1301117Y990244D01*
D11*
X1251437Y980626D02*
X1247383Y977734D01*
X1240137Y987894D01*
X1244191Y990786D01*
X1251437Y980626D01*
X1248741Y978703D02*
X1246692Y978703D01*
X1246001Y979672D02*
X1250100Y979672D01*
X1251426Y980641D02*
X1245310Y980641D01*
X1244619Y981610D02*
X1250735Y981610D01*
X1250044Y982579D02*
X1243928Y982579D01*
X1243237Y983548D02*
X1249353Y983548D01*
X1248662Y984517D02*
X1242545Y984517D01*
X1241854Y985486D02*
X1247971Y985486D01*
X1247280Y986455D02*
X1241163Y986455D01*
X1240472Y987424D02*
X1246589Y987424D01*
X1245898Y988393D02*
X1240836Y988393D01*
X1242195Y989362D02*
X1245207Y989362D01*
X1244516Y990331D02*
X1243553Y990331D01*
X1255524Y983541D02*
X1259578Y986433D01*
X1255524Y983541D02*
X1248278Y993701D01*
X1252332Y996593D01*
X1259578Y986433D01*
X1256882Y984510D02*
X1254833Y984510D01*
X1254142Y985479D02*
X1258241Y985479D01*
X1259567Y986448D02*
X1253451Y986448D01*
X1252760Y987417D02*
X1258876Y987417D01*
X1258185Y988386D02*
X1252069Y988386D01*
X1251378Y989355D02*
X1257494Y989355D01*
X1256803Y990324D02*
X1250686Y990324D01*
X1249995Y991293D02*
X1256112Y991293D01*
X1255421Y992262D02*
X1249304Y992262D01*
X1248613Y993231D02*
X1254730Y993231D01*
X1254039Y994200D02*
X1248977Y994200D01*
X1250336Y995169D02*
X1253348Y995169D01*
X1252657Y996138D02*
X1251694Y996138D01*
X1263665Y989348D02*
X1267719Y992240D01*
X1263665Y989348D02*
X1256419Y999508D01*
X1260473Y1002400D01*
X1267719Y992240D01*
X1265023Y990317D02*
X1262974Y990317D01*
X1262283Y991286D02*
X1266382Y991286D01*
X1267708Y992255D02*
X1261592Y992255D01*
X1260901Y993224D02*
X1267017Y993224D01*
X1266326Y994193D02*
X1260210Y994193D01*
X1259519Y995162D02*
X1265635Y995162D01*
X1264944Y996131D02*
X1258827Y996131D01*
X1258136Y997100D02*
X1264253Y997100D01*
X1263562Y998069D02*
X1257445Y998069D01*
X1256754Y999038D02*
X1262871Y999038D01*
X1262180Y1000007D02*
X1257118Y1000007D01*
X1258477Y1000976D02*
X1261489Y1000976D01*
X1260798Y1001945D02*
X1259835Y1001945D01*
X1271806Y995155D02*
X1275860Y998047D01*
X1271806Y995155D02*
X1264560Y1005315D01*
X1268614Y1008207D01*
X1275860Y998047D01*
X1273164Y996124D02*
X1271115Y996124D01*
X1270424Y997093D02*
X1274523Y997093D01*
X1275849Y998062D02*
X1269733Y998062D01*
X1269042Y999031D02*
X1275158Y999031D01*
X1274467Y1000000D02*
X1268351Y1000000D01*
X1267660Y1000969D02*
X1273776Y1000969D01*
X1273085Y1001938D02*
X1266968Y1001938D01*
X1266277Y1002907D02*
X1272394Y1002907D01*
X1271703Y1003876D02*
X1265586Y1003876D01*
X1264895Y1004845D02*
X1271012Y1004845D01*
X1270321Y1005814D02*
X1265259Y1005814D01*
X1266618Y1006783D02*
X1269630Y1006783D01*
X1268939Y1007752D02*
X1267976Y1007752D01*
D10*
X951159Y1039240D02*
X940119Y1039240D01*
X951159Y1039240D02*
X951159Y1020200D01*
X940119Y1020200D01*
X940119Y1039240D01*
X940119Y1021112D02*
X951159Y1021112D01*
X951159Y1022024D02*
X940119Y1022024D01*
X940119Y1022936D02*
X951159Y1022936D01*
X951159Y1023848D02*
X940119Y1023848D01*
X940119Y1024760D02*
X951159Y1024760D01*
X951159Y1025672D02*
X940119Y1025672D01*
X940119Y1026584D02*
X951159Y1026584D01*
X951159Y1027496D02*
X940119Y1027496D01*
X940119Y1028408D02*
X951159Y1028408D01*
X951159Y1029320D02*
X940119Y1029320D01*
X940119Y1030232D02*
X951159Y1030232D01*
X951159Y1031144D02*
X940119Y1031144D01*
X940119Y1032056D02*
X951159Y1032056D01*
X951159Y1032968D02*
X940119Y1032968D01*
X940119Y1033880D02*
X951159Y1033880D01*
X951159Y1034792D02*
X940119Y1034792D01*
X940119Y1035704D02*
X951159Y1035704D01*
X951159Y1036616D02*
X940119Y1036616D01*
X940119Y1037528D02*
X951159Y1037528D01*
X951159Y1038440D02*
X940119Y1038440D01*
X895159Y1039240D02*
X884119Y1039240D01*
X895159Y1039240D02*
X895159Y1020200D01*
X884119Y1020200D01*
X884119Y1039240D01*
X884119Y1021112D02*
X895159Y1021112D01*
X895159Y1022024D02*
X884119Y1022024D01*
X884119Y1022936D02*
X895159Y1022936D01*
X895159Y1023848D02*
X884119Y1023848D01*
X884119Y1024760D02*
X895159Y1024760D01*
X895159Y1025672D02*
X884119Y1025672D01*
X884119Y1026584D02*
X895159Y1026584D01*
X895159Y1027496D02*
X884119Y1027496D01*
X884119Y1028408D02*
X895159Y1028408D01*
X895159Y1029320D02*
X884119Y1029320D01*
X884119Y1030232D02*
X895159Y1030232D01*
X895159Y1031144D02*
X884119Y1031144D01*
X884119Y1032056D02*
X895159Y1032056D01*
X895159Y1032968D02*
X884119Y1032968D01*
X884119Y1033880D02*
X895159Y1033880D01*
X895159Y1034792D02*
X884119Y1034792D01*
X884119Y1035704D02*
X895159Y1035704D01*
X895159Y1036616D02*
X884119Y1036616D01*
X884119Y1037528D02*
X895159Y1037528D01*
X895159Y1038440D02*
X884119Y1038440D01*
D11*
X930149Y999210D02*
X935129Y999210D01*
X935129Y986730D01*
X930149Y986730D01*
X930149Y999210D01*
X930149Y987699D02*
X935129Y987699D01*
X935129Y988668D02*
X930149Y988668D01*
X930149Y989637D02*
X935129Y989637D01*
X935129Y990606D02*
X930149Y990606D01*
X930149Y991575D02*
X935129Y991575D01*
X935129Y992544D02*
X930149Y992544D01*
X930149Y993513D02*
X935129Y993513D01*
X935129Y994482D02*
X930149Y994482D01*
X930149Y995451D02*
X935129Y995451D01*
X935129Y996420D02*
X930149Y996420D01*
X930149Y997389D02*
X935129Y997389D01*
X935129Y998358D02*
X930149Y998358D01*
X925129Y999210D02*
X920149Y999210D01*
X925129Y999210D02*
X925129Y986730D01*
X920149Y986730D01*
X920149Y999210D01*
X920149Y987699D02*
X925129Y987699D01*
X925129Y988668D02*
X920149Y988668D01*
X920149Y989637D02*
X925129Y989637D01*
X925129Y990606D02*
X920149Y990606D01*
X920149Y991575D02*
X925129Y991575D01*
X925129Y992544D02*
X920149Y992544D01*
X920149Y993513D02*
X925129Y993513D01*
X925129Y994482D02*
X920149Y994482D01*
X920149Y995451D02*
X925129Y995451D01*
X925129Y996420D02*
X920149Y996420D01*
X920149Y997389D02*
X925129Y997389D01*
X925129Y998358D02*
X920149Y998358D01*
X915129Y999210D02*
X910149Y999210D01*
X915129Y999210D02*
X915129Y986730D01*
X910149Y986730D01*
X910149Y999210D01*
X910149Y987699D02*
X915129Y987699D01*
X915129Y988668D02*
X910149Y988668D01*
X910149Y989637D02*
X915129Y989637D01*
X915129Y990606D02*
X910149Y990606D01*
X910149Y991575D02*
X915129Y991575D01*
X915129Y992544D02*
X910149Y992544D01*
X910149Y993513D02*
X915129Y993513D01*
X915129Y994482D02*
X910149Y994482D01*
X910149Y995451D02*
X915129Y995451D01*
X915129Y996420D02*
X910149Y996420D01*
X910149Y997389D02*
X915129Y997389D01*
X915129Y998358D02*
X910149Y998358D01*
X905129Y999210D02*
X900149Y999210D01*
X905129Y999210D02*
X905129Y986730D01*
X900149Y986730D01*
X900149Y999210D01*
X900149Y987699D02*
X905129Y987699D01*
X905129Y988668D02*
X900149Y988668D01*
X900149Y989637D02*
X905129Y989637D01*
X905129Y990606D02*
X900149Y990606D01*
X900149Y991575D02*
X905129Y991575D01*
X905129Y992544D02*
X900149Y992544D01*
X900149Y993513D02*
X905129Y993513D01*
X905129Y994482D02*
X900149Y994482D01*
X900149Y995451D02*
X905129Y995451D01*
X905129Y996420D02*
X900149Y996420D01*
X900149Y997389D02*
X905129Y997389D01*
X905129Y998358D02*
X900149Y998358D01*
D12*
X1070229Y1004711D02*
X1070229Y1011711D01*
X1077229Y1011711D01*
X1077229Y1004711D01*
X1070229Y1004711D01*
X1070229Y1007561D02*
X1077229Y1007561D01*
X1077229Y1010411D02*
X1070229Y1010411D01*
X1052689Y1011711D02*
X1052689Y1004711D01*
X1052689Y1011711D02*
X1059689Y1011711D01*
X1059689Y1004711D01*
X1052689Y1004711D01*
X1052689Y1007561D02*
X1059689Y1007561D01*
X1059689Y1010411D02*
X1052689Y1010411D01*
D13*
X1051459Y988471D02*
X1061459Y988471D01*
X1051459Y988471D02*
X1051459Y997471D01*
X1061459Y997471D01*
X1061459Y988471D01*
X1061459Y989421D02*
X1051459Y989421D01*
X1051459Y990371D02*
X1061459Y990371D01*
X1061459Y991321D02*
X1051459Y991321D01*
X1051459Y992271D02*
X1061459Y992271D01*
X1061459Y993221D02*
X1051459Y993221D01*
X1051459Y994171D02*
X1061459Y994171D01*
X1061459Y995121D02*
X1051459Y995121D01*
X1051459Y996071D02*
X1061459Y996071D01*
X1061459Y997021D02*
X1051459Y997021D01*
X1068459Y988471D02*
X1078459Y988471D01*
X1068459Y988471D02*
X1068459Y997471D01*
X1078459Y997471D01*
X1078459Y988471D01*
X1078459Y989421D02*
X1068459Y989421D01*
X1068459Y990371D02*
X1078459Y990371D01*
X1078459Y991321D02*
X1068459Y991321D01*
X1068459Y992271D02*
X1078459Y992271D01*
X1078459Y993221D02*
X1068459Y993221D01*
X1068459Y994171D02*
X1078459Y994171D01*
X1078459Y995121D02*
X1068459Y995121D01*
X1068459Y996071D02*
X1078459Y996071D01*
X1078459Y997021D02*
X1068459Y997021D01*
D10*
X1136915Y1095472D02*
X1133613Y1106006D01*
X1136915Y1095472D02*
X1118747Y1089778D01*
X1115445Y1100312D01*
X1133613Y1106006D01*
X1121657Y1090690D02*
X1118461Y1090690D01*
X1118175Y1091602D02*
X1124567Y1091602D01*
X1127477Y1092514D02*
X1117889Y1092514D01*
X1117603Y1093426D02*
X1130387Y1093426D01*
X1133297Y1094338D02*
X1117318Y1094338D01*
X1117032Y1095250D02*
X1136207Y1095250D01*
X1136699Y1096162D02*
X1116746Y1096162D01*
X1116460Y1097074D02*
X1136413Y1097074D01*
X1136127Y1097986D02*
X1116174Y1097986D01*
X1115888Y1098898D02*
X1135841Y1098898D01*
X1135555Y1099810D02*
X1115602Y1099810D01*
X1116753Y1100722D02*
X1135269Y1100722D01*
X1134983Y1101634D02*
X1119663Y1101634D01*
X1122573Y1102546D02*
X1134698Y1102546D01*
X1134412Y1103458D02*
X1125483Y1103458D01*
X1128393Y1104370D02*
X1134126Y1104370D01*
X1133840Y1105282D02*
X1131303Y1105282D01*
X1120169Y1148909D02*
X1116867Y1159443D01*
X1120169Y1148909D02*
X1102001Y1143215D01*
X1098699Y1153749D01*
X1116867Y1159443D01*
X1104911Y1144127D02*
X1101715Y1144127D01*
X1101429Y1145039D02*
X1107821Y1145039D01*
X1110731Y1145951D02*
X1101143Y1145951D01*
X1100857Y1146863D02*
X1113641Y1146863D01*
X1116551Y1147775D02*
X1100572Y1147775D01*
X1100286Y1148687D02*
X1119461Y1148687D01*
X1119953Y1149599D02*
X1100000Y1149599D01*
X1099714Y1150511D02*
X1119667Y1150511D01*
X1119381Y1151423D02*
X1099428Y1151423D01*
X1099142Y1152335D02*
X1119095Y1152335D01*
X1118809Y1153247D02*
X1098856Y1153247D01*
X1100007Y1154159D02*
X1118523Y1154159D01*
X1118237Y1155071D02*
X1102917Y1155071D01*
X1105827Y1155983D02*
X1117952Y1155983D01*
X1117666Y1156895D02*
X1108737Y1156895D01*
X1111647Y1157807D02*
X1117380Y1157807D01*
X1117094Y1158719D02*
X1114557Y1158719D01*
D11*
X1092433Y1103549D02*
X1093923Y1098797D01*
X1082015Y1095065D01*
X1080525Y1099817D01*
X1092433Y1103549D01*
X1085107Y1096034D02*
X1081711Y1096034D01*
X1081407Y1097003D02*
X1088199Y1097003D01*
X1091291Y1097972D02*
X1081104Y1097972D01*
X1080800Y1098941D02*
X1093878Y1098941D01*
X1093574Y1099910D02*
X1080822Y1099910D01*
X1083914Y1100879D02*
X1093270Y1100879D01*
X1092966Y1101848D02*
X1087005Y1101848D01*
X1090097Y1102817D02*
X1092663Y1102817D01*
X1090933Y1108339D02*
X1089443Y1113091D01*
X1090933Y1108339D02*
X1079025Y1104607D01*
X1077535Y1109359D01*
X1089443Y1113091D01*
X1082117Y1105576D02*
X1078721Y1105576D01*
X1078417Y1106545D02*
X1085209Y1106545D01*
X1088301Y1107514D02*
X1078114Y1107514D01*
X1077810Y1108483D02*
X1090888Y1108483D01*
X1090584Y1109452D02*
X1077832Y1109452D01*
X1080924Y1110421D02*
X1090280Y1110421D01*
X1089976Y1111390D02*
X1084015Y1111390D01*
X1087107Y1112359D02*
X1089673Y1112359D01*
X1087942Y1117882D02*
X1086452Y1122634D01*
X1087942Y1117882D02*
X1076034Y1114150D01*
X1074544Y1118902D01*
X1086452Y1122634D01*
X1079126Y1115119D02*
X1075730Y1115119D01*
X1075426Y1116088D02*
X1082218Y1116088D01*
X1085310Y1117057D02*
X1075123Y1117057D01*
X1074819Y1118026D02*
X1087897Y1118026D01*
X1087593Y1118995D02*
X1074841Y1118995D01*
X1077933Y1119964D02*
X1087289Y1119964D01*
X1086985Y1120933D02*
X1081024Y1120933D01*
X1084116Y1121902D02*
X1086682Y1121902D01*
X1084952Y1127424D02*
X1083462Y1132176D01*
X1084952Y1127424D02*
X1073044Y1123692D01*
X1071554Y1128444D01*
X1083462Y1132176D01*
X1076136Y1124661D02*
X1072740Y1124661D01*
X1072436Y1125630D02*
X1079228Y1125630D01*
X1082320Y1126599D02*
X1072133Y1126599D01*
X1071829Y1127568D02*
X1084907Y1127568D01*
X1084603Y1128537D02*
X1071851Y1128537D01*
X1074943Y1129506D02*
X1084299Y1129506D01*
X1083995Y1130475D02*
X1078034Y1130475D01*
X1081126Y1131444D02*
X1083692Y1131444D01*
D10*
X1692878Y833988D02*
X1689284Y823551D01*
X1692878Y833988D02*
X1710880Y827789D01*
X1707286Y817352D01*
X1689284Y823551D01*
X1704638Y818264D02*
X1707600Y818264D01*
X1707914Y819176D02*
X1701989Y819176D01*
X1699341Y820088D02*
X1708228Y820088D01*
X1708542Y821000D02*
X1696692Y821000D01*
X1694044Y821912D02*
X1708856Y821912D01*
X1709170Y822824D02*
X1691395Y822824D01*
X1689348Y823736D02*
X1709484Y823736D01*
X1709798Y824648D02*
X1689662Y824648D01*
X1689976Y825560D02*
X1710112Y825560D01*
X1710426Y826472D02*
X1690290Y826472D01*
X1690604Y827384D02*
X1710741Y827384D01*
X1709408Y828296D02*
X1690918Y828296D01*
X1691232Y829208D02*
X1706759Y829208D01*
X1704111Y830120D02*
X1691546Y830120D01*
X1691860Y831032D02*
X1701462Y831032D01*
X1698814Y831944D02*
X1692174Y831944D01*
X1692488Y832856D02*
X1696165Y832856D01*
X1693517Y833768D02*
X1692802Y833768D01*
X1674647Y781039D02*
X1671053Y770602D01*
X1674647Y781039D02*
X1692649Y774840D01*
X1689055Y764403D01*
X1671053Y770602D01*
X1686407Y765315D02*
X1689369Y765315D01*
X1689683Y766227D02*
X1683758Y766227D01*
X1681110Y767139D02*
X1689997Y767139D01*
X1690311Y768051D02*
X1678461Y768051D01*
X1675813Y768963D02*
X1690625Y768963D01*
X1690939Y769875D02*
X1673164Y769875D01*
X1671117Y770787D02*
X1691253Y770787D01*
X1691567Y771699D02*
X1671431Y771699D01*
X1671745Y772611D02*
X1691881Y772611D01*
X1692195Y773523D02*
X1672059Y773523D01*
X1672373Y774435D02*
X1692510Y774435D01*
X1691177Y775347D02*
X1672687Y775347D01*
X1673001Y776259D02*
X1688528Y776259D01*
X1685880Y777171D02*
X1673315Y777171D01*
X1673629Y778083D02*
X1683231Y778083D01*
X1680583Y778995D02*
X1673943Y778995D01*
X1674257Y779907D02*
X1677934Y779907D01*
X1675286Y780819D02*
X1674571Y780819D01*
D11*
X1723888Y801091D02*
X1725509Y805798D01*
X1737308Y801735D01*
X1735687Y797028D01*
X1723888Y801091D01*
X1732873Y797997D02*
X1736021Y797997D01*
X1736354Y798966D02*
X1730059Y798966D01*
X1727245Y799935D02*
X1736688Y799935D01*
X1737022Y800904D02*
X1724431Y800904D01*
X1724157Y801873D02*
X1736907Y801873D01*
X1734093Y802842D02*
X1724491Y802842D01*
X1724825Y803811D02*
X1731279Y803811D01*
X1728465Y804780D02*
X1725158Y804780D01*
X1725492Y805749D02*
X1725651Y805749D01*
X1722253Y796343D02*
X1720632Y791636D01*
X1722253Y796343D02*
X1734052Y792280D01*
X1732431Y787573D01*
X1720632Y791636D01*
X1729617Y788542D02*
X1732765Y788542D01*
X1733098Y789511D02*
X1726803Y789511D01*
X1723989Y790480D02*
X1733432Y790480D01*
X1733766Y791449D02*
X1721175Y791449D01*
X1720901Y792418D02*
X1733651Y792418D01*
X1730837Y793387D02*
X1721235Y793387D01*
X1721569Y794356D02*
X1728023Y794356D01*
X1725209Y795325D02*
X1721902Y795325D01*
X1722236Y796294D02*
X1722395Y796294D01*
X1718997Y786888D02*
X1717376Y782181D01*
X1718997Y786888D02*
X1730796Y782825D01*
X1729175Y778118D01*
X1717376Y782181D01*
X1726361Y779087D02*
X1729509Y779087D01*
X1729842Y780056D02*
X1723547Y780056D01*
X1720733Y781025D02*
X1730176Y781025D01*
X1730510Y781994D02*
X1717919Y781994D01*
X1717645Y782963D02*
X1730395Y782963D01*
X1727581Y783932D02*
X1717979Y783932D01*
X1718313Y784901D02*
X1724767Y784901D01*
X1721953Y785870D02*
X1718646Y785870D01*
X1718980Y786839D02*
X1719139Y786839D01*
X1715742Y777433D02*
X1714121Y772726D01*
X1715742Y777433D02*
X1727541Y773370D01*
X1725920Y768663D01*
X1714121Y772726D01*
X1723106Y769632D02*
X1726254Y769632D01*
X1726587Y770601D02*
X1720292Y770601D01*
X1717478Y771570D02*
X1726921Y771570D01*
X1727255Y772539D02*
X1714664Y772539D01*
X1714390Y773508D02*
X1727140Y773508D01*
X1724326Y774477D02*
X1714724Y774477D01*
X1715058Y775446D02*
X1721512Y775446D01*
X1718698Y776415D02*
X1715391Y776415D01*
X1715725Y777384D02*
X1715884Y777384D01*
D10*
X1887146Y769975D02*
X1896021Y763408D01*
X1887146Y769975D02*
X1898471Y785280D01*
X1907346Y778713D01*
X1896021Y763408D01*
X1896696Y764320D02*
X1894788Y764320D01*
X1893556Y765232D02*
X1897371Y765232D01*
X1898046Y766144D02*
X1892323Y766144D01*
X1891091Y767056D02*
X1898720Y767056D01*
X1899395Y767968D02*
X1889858Y767968D01*
X1888626Y768880D02*
X1900070Y768880D01*
X1900745Y769792D02*
X1887393Y769792D01*
X1887685Y770704D02*
X1901420Y770704D01*
X1902095Y771616D02*
X1888360Y771616D01*
X1889035Y772528D02*
X1902769Y772528D01*
X1903444Y773440D02*
X1889710Y773440D01*
X1890385Y774352D02*
X1904119Y774352D01*
X1904794Y775264D02*
X1891060Y775264D01*
X1891734Y776176D02*
X1905469Y776176D01*
X1906144Y777088D02*
X1892409Y777088D01*
X1893084Y778000D02*
X1906818Y778000D01*
X1907077Y778912D02*
X1893759Y778912D01*
X1894434Y779824D02*
X1905845Y779824D01*
X1904612Y780736D02*
X1895109Y780736D01*
X1895783Y781648D02*
X1903379Y781648D01*
X1902147Y782560D02*
X1896458Y782560D01*
X1897133Y783472D02*
X1900914Y783472D01*
X1899682Y784384D02*
X1897808Y784384D01*
X1932162Y736665D02*
X1941037Y730098D01*
X1932162Y736665D02*
X1943487Y751970D01*
X1952362Y745403D01*
X1941037Y730098D01*
X1941712Y731010D02*
X1939804Y731010D01*
X1938572Y731922D02*
X1942387Y731922D01*
X1943062Y732834D02*
X1937339Y732834D01*
X1936107Y733746D02*
X1943736Y733746D01*
X1944411Y734658D02*
X1934874Y734658D01*
X1933642Y735570D02*
X1945086Y735570D01*
X1945761Y736482D02*
X1932409Y736482D01*
X1932701Y737394D02*
X1946436Y737394D01*
X1947111Y738306D02*
X1933376Y738306D01*
X1934051Y739218D02*
X1947785Y739218D01*
X1948460Y740130D02*
X1934726Y740130D01*
X1935401Y741042D02*
X1949135Y741042D01*
X1949810Y741954D02*
X1936076Y741954D01*
X1936750Y742866D02*
X1950485Y742866D01*
X1951160Y743778D02*
X1937425Y743778D01*
X1938100Y744690D02*
X1951834Y744690D01*
X1952093Y745602D02*
X1938775Y745602D01*
X1939450Y746514D02*
X1950861Y746514D01*
X1949628Y747426D02*
X1940125Y747426D01*
X1940799Y748338D02*
X1948395Y748338D01*
X1947163Y749250D02*
X1941474Y749250D01*
X1942149Y750162D02*
X1945930Y750162D01*
X1944698Y751074D02*
X1942824Y751074D01*
D11*
X1927846Y789656D02*
X1923843Y792619D01*
X1931266Y802650D01*
X1935269Y799687D01*
X1927846Y789656D01*
X1928563Y790625D02*
X1926537Y790625D01*
X1925228Y791594D02*
X1929280Y791594D01*
X1929997Y792563D02*
X1923919Y792563D01*
X1924519Y793532D02*
X1930714Y793532D01*
X1931431Y794501D02*
X1925236Y794501D01*
X1925953Y795470D02*
X1932148Y795470D01*
X1932865Y796439D02*
X1926670Y796439D01*
X1927387Y797408D02*
X1933583Y797408D01*
X1934300Y798377D02*
X1928104Y798377D01*
X1928821Y799346D02*
X1935017Y799346D01*
X1934421Y800315D02*
X1929538Y800315D01*
X1930255Y801284D02*
X1933111Y801284D01*
X1931802Y802253D02*
X1930972Y802253D01*
X1931882Y786671D02*
X1935885Y783708D01*
X1931882Y786671D02*
X1939305Y796702D01*
X1943308Y793739D01*
X1935885Y783708D01*
X1936602Y784677D02*
X1934576Y784677D01*
X1933267Y785646D02*
X1937319Y785646D01*
X1938036Y786615D02*
X1931958Y786615D01*
X1932558Y787584D02*
X1938753Y787584D01*
X1939470Y788553D02*
X1933275Y788553D01*
X1933992Y789522D02*
X1940187Y789522D01*
X1940904Y790491D02*
X1934709Y790491D01*
X1935426Y791460D02*
X1941622Y791460D01*
X1942339Y792429D02*
X1936143Y792429D01*
X1936860Y793398D02*
X1943056Y793398D01*
X1942460Y794367D02*
X1937577Y794367D01*
X1938294Y795336D02*
X1941150Y795336D01*
X1939841Y796305D02*
X1939011Y796305D01*
X1939920Y780722D02*
X1943923Y777759D01*
X1939920Y780722D02*
X1947343Y790753D01*
X1951346Y787790D01*
X1943923Y777759D01*
X1944640Y778728D02*
X1942614Y778728D01*
X1941305Y779697D02*
X1945357Y779697D01*
X1946074Y780666D02*
X1939996Y780666D01*
X1940596Y781635D02*
X1946791Y781635D01*
X1947508Y782604D02*
X1941313Y782604D01*
X1942030Y783573D02*
X1948225Y783573D01*
X1948942Y784542D02*
X1942747Y784542D01*
X1943464Y785511D02*
X1949660Y785511D01*
X1950377Y786480D02*
X1944181Y786480D01*
X1944898Y787449D02*
X1951094Y787449D01*
X1950498Y788418D02*
X1945615Y788418D01*
X1946332Y789387D02*
X1949188Y789387D01*
X1947879Y790356D02*
X1947049Y790356D01*
X1947959Y774774D02*
X1951962Y771811D01*
X1947959Y774774D02*
X1955382Y784805D01*
X1959385Y781842D01*
X1951962Y771811D01*
X1952679Y772780D02*
X1950653Y772780D01*
X1949344Y773749D02*
X1953396Y773749D01*
X1954113Y774718D02*
X1948035Y774718D01*
X1948635Y775687D02*
X1954830Y775687D01*
X1955547Y776656D02*
X1949352Y776656D01*
X1950069Y777625D02*
X1956264Y777625D01*
X1956981Y778594D02*
X1950786Y778594D01*
X1951503Y779563D02*
X1957699Y779563D01*
X1958416Y780532D02*
X1952220Y780532D01*
X1952937Y781501D02*
X1959133Y781501D01*
X1958537Y782470D02*
X1953654Y782470D01*
X1954371Y783439D02*
X1957227Y783439D01*
X1955918Y784408D02*
X1955088Y784408D01*
D10*
X2004694Y935837D02*
X2013682Y942248D01*
X2004694Y935837D02*
X1993638Y951336D01*
X2002626Y957747D01*
X2013682Y942248D01*
X2005973Y936749D02*
X2004043Y936749D01*
X2003393Y937661D02*
X2007251Y937661D01*
X2008530Y938573D02*
X2002742Y938573D01*
X2002092Y939485D02*
X2009808Y939485D01*
X2011087Y940397D02*
X2001441Y940397D01*
X2000791Y941309D02*
X2012366Y941309D01*
X2013644Y942221D02*
X2000140Y942221D01*
X1999489Y943133D02*
X2013051Y943133D01*
X2012400Y944045D02*
X1998839Y944045D01*
X1998188Y944957D02*
X2011750Y944957D01*
X2011099Y945869D02*
X1997538Y945869D01*
X1996887Y946781D02*
X2010448Y946781D01*
X2009798Y947693D02*
X1996237Y947693D01*
X1995586Y948605D02*
X2009147Y948605D01*
X2008497Y949517D02*
X1994936Y949517D01*
X1994285Y950429D02*
X2007846Y950429D01*
X2007196Y951341D02*
X1993645Y951341D01*
X1994924Y952253D02*
X2006545Y952253D01*
X2005895Y953165D02*
X1996202Y953165D01*
X1997481Y954077D02*
X2005244Y954077D01*
X2004593Y954989D02*
X1998759Y954989D01*
X2000038Y955901D02*
X2003943Y955901D01*
X2003292Y956813D02*
X2001317Y956813D01*
X2002595Y957725D02*
X2002642Y957725D01*
X2050284Y968356D02*
X2059272Y974767D01*
X2050284Y968356D02*
X2039228Y983855D01*
X2048216Y990266D01*
X2059272Y974767D01*
X2051563Y969268D02*
X2049633Y969268D01*
X2048983Y970180D02*
X2052841Y970180D01*
X2054120Y971092D02*
X2048332Y971092D01*
X2047682Y972004D02*
X2055398Y972004D01*
X2056677Y972916D02*
X2047031Y972916D01*
X2046381Y973828D02*
X2057956Y973828D01*
X2059234Y974740D02*
X2045730Y974740D01*
X2045079Y975652D02*
X2058641Y975652D01*
X2057990Y976564D02*
X2044429Y976564D01*
X2043778Y977476D02*
X2057340Y977476D01*
X2056689Y978388D02*
X2043128Y978388D01*
X2042477Y979300D02*
X2056038Y979300D01*
X2055388Y980212D02*
X2041827Y980212D01*
X2041176Y981124D02*
X2054737Y981124D01*
X2054087Y982036D02*
X2040526Y982036D01*
X2039875Y982948D02*
X2053436Y982948D01*
X2052786Y983860D02*
X2039235Y983860D01*
X2040514Y984772D02*
X2052135Y984772D01*
X2051485Y985684D02*
X2041792Y985684D01*
X2043071Y986596D02*
X2050834Y986596D01*
X2050183Y987508D02*
X2044349Y987508D01*
X2045628Y988420D02*
X2049533Y988420D01*
X2048882Y989332D02*
X2046907Y989332D01*
X2048185Y990244D02*
X2048232Y990244D01*
D11*
X1998553Y980626D02*
X1994499Y977734D01*
X1987253Y987894D01*
X1991307Y990786D01*
X1998553Y980626D01*
X1995857Y978703D02*
X1993808Y978703D01*
X1993117Y979672D02*
X1997216Y979672D01*
X1998542Y980641D02*
X1992426Y980641D01*
X1991735Y981610D02*
X1997851Y981610D01*
X1997160Y982579D02*
X1991044Y982579D01*
X1990353Y983548D02*
X1996469Y983548D01*
X1995778Y984517D02*
X1989661Y984517D01*
X1988970Y985486D02*
X1995087Y985486D01*
X1994396Y986455D02*
X1988279Y986455D01*
X1987588Y987424D02*
X1993705Y987424D01*
X1993014Y988393D02*
X1987952Y988393D01*
X1989311Y989362D02*
X1992323Y989362D01*
X1991632Y990331D02*
X1990669Y990331D01*
X2002640Y983541D02*
X2006694Y986433D01*
X2002640Y983541D02*
X1995394Y993701D01*
X1999448Y996593D01*
X2006694Y986433D01*
X2003998Y984510D02*
X2001949Y984510D01*
X2001258Y985479D02*
X2005357Y985479D01*
X2006683Y986448D02*
X2000567Y986448D01*
X1999876Y987417D02*
X2005992Y987417D01*
X2005301Y988386D02*
X1999185Y988386D01*
X1998494Y989355D02*
X2004610Y989355D01*
X2003919Y990324D02*
X1997802Y990324D01*
X1997111Y991293D02*
X2003228Y991293D01*
X2002537Y992262D02*
X1996420Y992262D01*
X1995729Y993231D02*
X2001846Y993231D01*
X2001155Y994200D02*
X1996093Y994200D01*
X1997452Y995169D02*
X2000464Y995169D01*
X1999773Y996138D02*
X1998810Y996138D01*
X2010781Y989348D02*
X2014835Y992240D01*
X2010781Y989348D02*
X2003535Y999508D01*
X2007589Y1002400D01*
X2014835Y992240D01*
X2012139Y990317D02*
X2010090Y990317D01*
X2009399Y991286D02*
X2013498Y991286D01*
X2014824Y992255D02*
X2008708Y992255D01*
X2008017Y993224D02*
X2014133Y993224D01*
X2013442Y994193D02*
X2007326Y994193D01*
X2006635Y995162D02*
X2012751Y995162D01*
X2012060Y996131D02*
X2005943Y996131D01*
X2005252Y997100D02*
X2011369Y997100D01*
X2010678Y998069D02*
X2004561Y998069D01*
X2003870Y999038D02*
X2009987Y999038D01*
X2009296Y1000007D02*
X2004234Y1000007D01*
X2005593Y1000976D02*
X2008605Y1000976D01*
X2007914Y1001945D02*
X2006951Y1001945D01*
X2018922Y995155D02*
X2022976Y998047D01*
X2018922Y995155D02*
X2011676Y1005315D01*
X2015730Y1008207D01*
X2022976Y998047D01*
X2020280Y996124D02*
X2018231Y996124D01*
X2017540Y997093D02*
X2021639Y997093D01*
X2022965Y998062D02*
X2016849Y998062D01*
X2016158Y999031D02*
X2022274Y999031D01*
X2021583Y1000000D02*
X2015467Y1000000D01*
X2014776Y1000969D02*
X2020892Y1000969D01*
X2020201Y1001938D02*
X2014084Y1001938D01*
X2013393Y1002907D02*
X2019510Y1002907D01*
X2018819Y1003876D02*
X2012702Y1003876D01*
X2012011Y1004845D02*
X2018128Y1004845D01*
X2017437Y1005814D02*
X2012375Y1005814D01*
X2013734Y1006783D02*
X2016746Y1006783D01*
X2016055Y1007752D02*
X2015092Y1007752D01*
D10*
X1698274Y1039240D02*
X1687234Y1039240D01*
X1698274Y1039240D02*
X1698274Y1020200D01*
X1687234Y1020200D01*
X1687234Y1039240D01*
X1687234Y1021112D02*
X1698274Y1021112D01*
X1698274Y1022024D02*
X1687234Y1022024D01*
X1687234Y1022936D02*
X1698274Y1022936D01*
X1698274Y1023848D02*
X1687234Y1023848D01*
X1687234Y1024760D02*
X1698274Y1024760D01*
X1698274Y1025672D02*
X1687234Y1025672D01*
X1687234Y1026584D02*
X1698274Y1026584D01*
X1698274Y1027496D02*
X1687234Y1027496D01*
X1687234Y1028408D02*
X1698274Y1028408D01*
X1698274Y1029320D02*
X1687234Y1029320D01*
X1687234Y1030232D02*
X1698274Y1030232D01*
X1698274Y1031144D02*
X1687234Y1031144D01*
X1687234Y1032056D02*
X1698274Y1032056D01*
X1698274Y1032968D02*
X1687234Y1032968D01*
X1687234Y1033880D02*
X1698274Y1033880D01*
X1698274Y1034792D02*
X1687234Y1034792D01*
X1687234Y1035704D02*
X1698274Y1035704D01*
X1698274Y1036616D02*
X1687234Y1036616D01*
X1687234Y1037528D02*
X1698274Y1037528D01*
X1698274Y1038440D02*
X1687234Y1038440D01*
X1642274Y1039240D02*
X1631234Y1039240D01*
X1642274Y1039240D02*
X1642274Y1020200D01*
X1631234Y1020200D01*
X1631234Y1039240D01*
X1631234Y1021112D02*
X1642274Y1021112D01*
X1642274Y1022024D02*
X1631234Y1022024D01*
X1631234Y1022936D02*
X1642274Y1022936D01*
X1642274Y1023848D02*
X1631234Y1023848D01*
X1631234Y1024760D02*
X1642274Y1024760D01*
X1642274Y1025672D02*
X1631234Y1025672D01*
X1631234Y1026584D02*
X1642274Y1026584D01*
X1642274Y1027496D02*
X1631234Y1027496D01*
X1631234Y1028408D02*
X1642274Y1028408D01*
X1642274Y1029320D02*
X1631234Y1029320D01*
X1631234Y1030232D02*
X1642274Y1030232D01*
X1642274Y1031144D02*
X1631234Y1031144D01*
X1631234Y1032056D02*
X1642274Y1032056D01*
X1642274Y1032968D02*
X1631234Y1032968D01*
X1631234Y1033880D02*
X1642274Y1033880D01*
X1642274Y1034792D02*
X1631234Y1034792D01*
X1631234Y1035704D02*
X1642274Y1035704D01*
X1642274Y1036616D02*
X1631234Y1036616D01*
X1631234Y1037528D02*
X1642274Y1037528D01*
X1642274Y1038440D02*
X1631234Y1038440D01*
D11*
X1677264Y999210D02*
X1682244Y999210D01*
X1682244Y986730D01*
X1677264Y986730D01*
X1677264Y999210D01*
X1677264Y987699D02*
X1682244Y987699D01*
X1682244Y988668D02*
X1677264Y988668D01*
X1677264Y989637D02*
X1682244Y989637D01*
X1682244Y990606D02*
X1677264Y990606D01*
X1677264Y991575D02*
X1682244Y991575D01*
X1682244Y992544D02*
X1677264Y992544D01*
X1677264Y993513D02*
X1682244Y993513D01*
X1682244Y994482D02*
X1677264Y994482D01*
X1677264Y995451D02*
X1682244Y995451D01*
X1682244Y996420D02*
X1677264Y996420D01*
X1677264Y997389D02*
X1682244Y997389D01*
X1682244Y998358D02*
X1677264Y998358D01*
X1672244Y999210D02*
X1667264Y999210D01*
X1672244Y999210D02*
X1672244Y986730D01*
X1667264Y986730D01*
X1667264Y999210D01*
X1667264Y987699D02*
X1672244Y987699D01*
X1672244Y988668D02*
X1667264Y988668D01*
X1667264Y989637D02*
X1672244Y989637D01*
X1672244Y990606D02*
X1667264Y990606D01*
X1667264Y991575D02*
X1672244Y991575D01*
X1672244Y992544D02*
X1667264Y992544D01*
X1667264Y993513D02*
X1672244Y993513D01*
X1672244Y994482D02*
X1667264Y994482D01*
X1667264Y995451D02*
X1672244Y995451D01*
X1672244Y996420D02*
X1667264Y996420D01*
X1667264Y997389D02*
X1672244Y997389D01*
X1672244Y998358D02*
X1667264Y998358D01*
X1662244Y999210D02*
X1657264Y999210D01*
X1662244Y999210D02*
X1662244Y986730D01*
X1657264Y986730D01*
X1657264Y999210D01*
X1657264Y987699D02*
X1662244Y987699D01*
X1662244Y988668D02*
X1657264Y988668D01*
X1657264Y989637D02*
X1662244Y989637D01*
X1662244Y990606D02*
X1657264Y990606D01*
X1657264Y991575D02*
X1662244Y991575D01*
X1662244Y992544D02*
X1657264Y992544D01*
X1657264Y993513D02*
X1662244Y993513D01*
X1662244Y994482D02*
X1657264Y994482D01*
X1657264Y995451D02*
X1662244Y995451D01*
X1662244Y996420D02*
X1657264Y996420D01*
X1657264Y997389D02*
X1662244Y997389D01*
X1662244Y998358D02*
X1657264Y998358D01*
X1652244Y999210D02*
X1647264Y999210D01*
X1652244Y999210D02*
X1652244Y986730D01*
X1647264Y986730D01*
X1647264Y999210D01*
X1647264Y987699D02*
X1652244Y987699D01*
X1652244Y988668D02*
X1647264Y988668D01*
X1647264Y989637D02*
X1652244Y989637D01*
X1652244Y990606D02*
X1647264Y990606D01*
X1647264Y991575D02*
X1652244Y991575D01*
X1652244Y992544D02*
X1647264Y992544D01*
X1647264Y993513D02*
X1652244Y993513D01*
X1652244Y994482D02*
X1647264Y994482D01*
X1647264Y995451D02*
X1652244Y995451D01*
X1652244Y996420D02*
X1647264Y996420D01*
X1647264Y997389D02*
X1652244Y997389D01*
X1652244Y998358D02*
X1647264Y998358D01*
D12*
X1817344Y1004711D02*
X1817344Y1011711D01*
X1824344Y1011711D01*
X1824344Y1004711D01*
X1817344Y1004711D01*
X1817344Y1007561D02*
X1824344Y1007561D01*
X1824344Y1010411D02*
X1817344Y1010411D01*
X1799804Y1011711D02*
X1799804Y1004711D01*
X1799804Y1011711D02*
X1806804Y1011711D01*
X1806804Y1004711D01*
X1799804Y1004711D01*
X1799804Y1007561D02*
X1806804Y1007561D01*
X1806804Y1010411D02*
X1799804Y1010411D01*
D13*
X1798574Y988471D02*
X1808574Y988471D01*
X1798574Y988471D02*
X1798574Y997471D01*
X1808574Y997471D01*
X1808574Y988471D01*
X1808574Y989421D02*
X1798574Y989421D01*
X1798574Y990371D02*
X1808574Y990371D01*
X1808574Y991321D02*
X1798574Y991321D01*
X1798574Y992271D02*
X1808574Y992271D01*
X1808574Y993221D02*
X1798574Y993221D01*
X1798574Y994171D02*
X1808574Y994171D01*
X1808574Y995121D02*
X1798574Y995121D01*
X1798574Y996071D02*
X1808574Y996071D01*
X1808574Y997021D02*
X1798574Y997021D01*
X1815574Y988471D02*
X1825574Y988471D01*
X1815574Y988471D02*
X1815574Y997471D01*
X1825574Y997471D01*
X1825574Y988471D01*
X1825574Y989421D02*
X1815574Y989421D01*
X1815574Y990371D02*
X1825574Y990371D01*
X1825574Y991321D02*
X1815574Y991321D01*
X1815574Y992271D02*
X1825574Y992271D01*
X1825574Y993221D02*
X1815574Y993221D01*
X1815574Y994171D02*
X1825574Y994171D01*
X1825574Y995121D02*
X1815574Y995121D01*
X1815574Y996071D02*
X1825574Y996071D01*
X1825574Y997021D02*
X1815574Y997021D01*
D10*
X1884031Y1095472D02*
X1880729Y1106006D01*
X1884031Y1095472D02*
X1865863Y1089778D01*
X1862561Y1100312D01*
X1880729Y1106006D01*
X1868773Y1090690D02*
X1865577Y1090690D01*
X1865291Y1091602D02*
X1871683Y1091602D01*
X1874593Y1092514D02*
X1865005Y1092514D01*
X1864719Y1093426D02*
X1877503Y1093426D01*
X1880413Y1094338D02*
X1864434Y1094338D01*
X1864148Y1095250D02*
X1883323Y1095250D01*
X1883815Y1096162D02*
X1863862Y1096162D01*
X1863576Y1097074D02*
X1883529Y1097074D01*
X1883243Y1097986D02*
X1863290Y1097986D01*
X1863004Y1098898D02*
X1882957Y1098898D01*
X1882671Y1099810D02*
X1862718Y1099810D01*
X1863869Y1100722D02*
X1882385Y1100722D01*
X1882099Y1101634D02*
X1866779Y1101634D01*
X1869689Y1102546D02*
X1881814Y1102546D01*
X1881528Y1103458D02*
X1872599Y1103458D01*
X1875509Y1104370D02*
X1881242Y1104370D01*
X1880956Y1105282D02*
X1878419Y1105282D01*
X1867284Y1148909D02*
X1863982Y1159443D01*
X1867284Y1148909D02*
X1849116Y1143215D01*
X1845814Y1153749D01*
X1863982Y1159443D01*
X1852026Y1144127D02*
X1848830Y1144127D01*
X1848544Y1145039D02*
X1854936Y1145039D01*
X1857846Y1145951D02*
X1848258Y1145951D01*
X1847972Y1146863D02*
X1860756Y1146863D01*
X1863666Y1147775D02*
X1847687Y1147775D01*
X1847401Y1148687D02*
X1866576Y1148687D01*
X1867068Y1149599D02*
X1847115Y1149599D01*
X1846829Y1150511D02*
X1866782Y1150511D01*
X1866496Y1151423D02*
X1846543Y1151423D01*
X1846257Y1152335D02*
X1866210Y1152335D01*
X1865924Y1153247D02*
X1845971Y1153247D01*
X1847122Y1154159D02*
X1865638Y1154159D01*
X1865352Y1155071D02*
X1850032Y1155071D01*
X1852942Y1155983D02*
X1865067Y1155983D01*
X1864781Y1156895D02*
X1855852Y1156895D01*
X1858762Y1157807D02*
X1864495Y1157807D01*
X1864209Y1158719D02*
X1861672Y1158719D01*
D11*
X1839549Y1103549D02*
X1841039Y1098797D01*
X1829131Y1095065D01*
X1827641Y1099817D01*
X1839549Y1103549D01*
X1832223Y1096034D02*
X1828827Y1096034D01*
X1828523Y1097003D02*
X1835315Y1097003D01*
X1838407Y1097972D02*
X1828220Y1097972D01*
X1827916Y1098941D02*
X1840994Y1098941D01*
X1840690Y1099910D02*
X1827938Y1099910D01*
X1831030Y1100879D02*
X1840386Y1100879D01*
X1840082Y1101848D02*
X1834121Y1101848D01*
X1837213Y1102817D02*
X1839779Y1102817D01*
X1838048Y1108339D02*
X1836558Y1113091D01*
X1838048Y1108339D02*
X1826140Y1104607D01*
X1824650Y1109359D01*
X1836558Y1113091D01*
X1829232Y1105576D02*
X1825836Y1105576D01*
X1825532Y1106545D02*
X1832324Y1106545D01*
X1835416Y1107514D02*
X1825229Y1107514D01*
X1824925Y1108483D02*
X1838003Y1108483D01*
X1837699Y1109452D02*
X1824947Y1109452D01*
X1828039Y1110421D02*
X1837395Y1110421D01*
X1837091Y1111390D02*
X1831130Y1111390D01*
X1834222Y1112359D02*
X1836788Y1112359D01*
X1835058Y1117882D02*
X1833568Y1122634D01*
X1835058Y1117882D02*
X1823150Y1114150D01*
X1821660Y1118902D01*
X1833568Y1122634D01*
X1826242Y1115119D02*
X1822846Y1115119D01*
X1822542Y1116088D02*
X1829334Y1116088D01*
X1832426Y1117057D02*
X1822239Y1117057D01*
X1821935Y1118026D02*
X1835013Y1118026D01*
X1834709Y1118995D02*
X1821957Y1118995D01*
X1825049Y1119964D02*
X1834405Y1119964D01*
X1834101Y1120933D02*
X1828140Y1120933D01*
X1831232Y1121902D02*
X1833798Y1121902D01*
X1832068Y1127424D02*
X1830578Y1132176D01*
X1832068Y1127424D02*
X1820160Y1123692D01*
X1818670Y1128444D01*
X1830578Y1132176D01*
X1823252Y1124661D02*
X1819856Y1124661D01*
X1819552Y1125630D02*
X1826344Y1125630D01*
X1829436Y1126599D02*
X1819249Y1126599D01*
X1818945Y1127568D02*
X1832023Y1127568D01*
X1831719Y1128537D02*
X1818967Y1128537D01*
X1822059Y1129506D02*
X1831415Y1129506D01*
X1831111Y1130475D02*
X1825150Y1130475D01*
X1828242Y1131444D02*
X1830808Y1131444D01*
M02*
