G04 EAGLE Gerber RS-274X export*
G75*
%MOMM*%
%FSLAX34Y34*%
%LPD*%
%INSoldermask Top*%
%IPPOS*%
%AMOC8*
5,1,8,0,0,1.08239X$1,22.5*%
G01*
%ADD10C,0.527000*%
%ADD11C,0.225588*%
%ADD12C,0.225369*%
%ADD13C,0.428259*%
%ADD14C,0.225400*%
%ADD15C,1.127000*%
%ADD16C,1.270000*%
%ADD17C,1.627000*%


D10*
X528688Y405773D03*
X535038Y405773D03*
X541388Y405773D03*
X547738Y405773D03*
X554088Y405773D03*
X560438Y405773D03*
X157076Y82910D03*
X159143Y88914D03*
X161210Y94918D03*
X163278Y100922D03*
X165345Y106926D03*
X167412Y112930D03*
X1275779Y405773D03*
X1282129Y405773D03*
X1288479Y405773D03*
X1294829Y405773D03*
X1301179Y405773D03*
X1307529Y405773D03*
X904166Y82910D03*
X906233Y88914D03*
X908301Y94918D03*
X910368Y100922D03*
X912435Y106926D03*
X914503Y112930D03*
X2022894Y405773D03*
X2029244Y405773D03*
X2035594Y405773D03*
X2041944Y405773D03*
X2048294Y405773D03*
X2054644Y405773D03*
X1651281Y82910D03*
X1653349Y88914D03*
X1655416Y94918D03*
X1657483Y100922D03*
X1659551Y106926D03*
X1661618Y112930D03*
X528688Y1043771D03*
X535038Y1043770D03*
X541388Y1043771D03*
X547738Y1043771D03*
X554088Y1043771D03*
X560438Y1043770D03*
X157076Y720907D03*
X159143Y726911D03*
X161210Y732915D03*
X163278Y738919D03*
X165345Y744923D03*
X167412Y750927D03*
X1275779Y1043771D03*
X1282129Y1043770D03*
X1288479Y1043771D03*
X1294829Y1043771D03*
X1301179Y1043771D03*
X1307529Y1043770D03*
X904166Y720907D03*
X906233Y726911D03*
X908301Y732915D03*
X910368Y738919D03*
X912435Y744923D03*
X914503Y750927D03*
X2022894Y1043771D03*
X2029244Y1043770D03*
X2035594Y1043771D03*
X2041944Y1043771D03*
X2048294Y1043771D03*
X2054644Y1043770D03*
X1651281Y720907D03*
X1653349Y726911D03*
X1655416Y732915D03*
X1657483Y738919D03*
X1659551Y744923D03*
X1661618Y750927D03*
D11*
X198681Y195974D02*
X195096Y185561D01*
X198681Y195974D02*
X216658Y189783D01*
X213073Y179370D01*
X195096Y185561D01*
X206850Y181513D02*
X213811Y181513D01*
X214549Y183656D02*
X200628Y183656D01*
X195178Y185799D02*
X215286Y185799D01*
X216024Y187942D02*
X195916Y187942D01*
X196654Y190085D02*
X215781Y190085D01*
X209558Y192228D02*
X197391Y192228D01*
X198129Y194371D02*
X203336Y194371D01*
X180449Y143025D02*
X176864Y132612D01*
X180449Y143025D02*
X198426Y136834D01*
X194841Y126421D01*
X176864Y132612D01*
X188618Y128564D02*
X195579Y128564D01*
X196317Y130707D02*
X182396Y130707D01*
X176946Y132850D02*
X197054Y132850D01*
X197792Y134993D02*
X177684Y134993D01*
X178422Y137136D02*
X197549Y137136D01*
X191326Y139279D02*
X179159Y139279D01*
X179897Y141422D02*
X185104Y141422D01*
D12*
X229659Y163083D02*
X231292Y167824D01*
X243125Y163749D01*
X241492Y159008D01*
X229659Y163083D01*
X235275Y161149D02*
X242229Y161149D01*
X242967Y163290D02*
X229730Y163290D01*
X230468Y165431D02*
X238241Y165431D01*
X232024Y167572D02*
X231205Y167572D01*
X228036Y158369D02*
X226403Y153628D01*
X228036Y158369D02*
X239869Y154294D01*
X238236Y149553D01*
X226403Y153628D01*
X232019Y151694D02*
X238973Y151694D01*
X239711Y153835D02*
X226474Y153835D01*
X227212Y155976D02*
X234985Y155976D01*
X228768Y158117D02*
X227949Y158117D01*
X224781Y148914D02*
X223148Y144173D01*
X224781Y148914D02*
X236614Y144839D01*
X234981Y140098D01*
X223148Y144173D01*
X228764Y142239D02*
X235718Y142239D01*
X236456Y144380D02*
X223219Y144380D01*
X223957Y146521D02*
X231730Y146521D01*
X225513Y148662D02*
X224694Y148662D01*
X221525Y139459D02*
X219892Y134718D01*
X221525Y139459D02*
X233358Y135384D01*
X231725Y130643D01*
X219892Y134718D01*
X225508Y132784D02*
X232462Y132784D01*
X233200Y134925D02*
X219963Y134925D01*
X220701Y137066D02*
X228474Y137066D01*
X222257Y139207D02*
X221438Y139207D01*
D11*
X392960Y131981D02*
X401813Y125430D01*
X392960Y131981D02*
X404269Y147264D01*
X413122Y140713D01*
X401813Y125430D01*
X403399Y127573D02*
X398917Y127573D01*
X396021Y129716D02*
X404985Y129716D01*
X406570Y131859D02*
X393125Y131859D01*
X394455Y134002D02*
X408156Y134002D01*
X409742Y136145D02*
X396041Y136145D01*
X397627Y138288D02*
X411328Y138288D01*
X412913Y140431D02*
X399213Y140431D01*
X400799Y142574D02*
X410607Y142574D01*
X407711Y144717D02*
X402384Y144717D01*
X403970Y146860D02*
X404815Y146860D01*
X437976Y98671D02*
X446829Y92120D01*
X437976Y98671D02*
X449285Y113954D01*
X458138Y107403D01*
X446829Y92120D01*
X448415Y94263D02*
X443933Y94263D01*
X441037Y96406D02*
X450001Y96406D01*
X451586Y98549D02*
X438141Y98549D01*
X439471Y100692D02*
X453172Y100692D01*
X454758Y102835D02*
X441057Y102835D01*
X442643Y104978D02*
X456344Y104978D01*
X457929Y107121D02*
X444229Y107121D01*
X445815Y109264D02*
X455623Y109264D01*
X452727Y111407D02*
X447400Y111407D01*
X448986Y113550D02*
X449831Y113550D01*
D12*
X433644Y151634D02*
X429612Y154618D01*
X437056Y164678D01*
X441088Y161694D01*
X433644Y151634D01*
X435228Y153775D02*
X430751Y153775D01*
X430572Y155916D02*
X436813Y155916D01*
X438397Y158057D02*
X432157Y158057D01*
X433741Y160198D02*
X439981Y160198D01*
X440216Y162339D02*
X435325Y162339D01*
X436909Y164480D02*
X437324Y164480D01*
X437651Y148669D02*
X441683Y145685D01*
X437651Y148669D02*
X445095Y158729D01*
X449127Y155745D01*
X441683Y145685D01*
X443267Y147826D02*
X438790Y147826D01*
X438611Y149967D02*
X444852Y149967D01*
X446436Y152108D02*
X440196Y152108D01*
X441780Y154249D02*
X448020Y154249D01*
X448255Y156390D02*
X443364Y156390D01*
X444948Y158531D02*
X445363Y158531D01*
X445690Y142721D02*
X449722Y139737D01*
X445690Y142721D02*
X453134Y152781D01*
X457166Y149797D01*
X449722Y139737D01*
X451306Y141878D02*
X446829Y141878D01*
X446650Y144019D02*
X452891Y144019D01*
X454475Y146160D02*
X448235Y146160D01*
X449819Y148301D02*
X456059Y148301D01*
X456294Y150442D02*
X451403Y150442D01*
X452987Y152583D02*
X453402Y152583D01*
X453728Y136773D02*
X457760Y133789D01*
X453728Y136773D02*
X461172Y146833D01*
X465204Y143849D01*
X457760Y133789D01*
X459344Y135930D02*
X454867Y135930D01*
X454688Y138071D02*
X460929Y138071D01*
X462513Y140212D02*
X456273Y140212D01*
X457857Y142353D02*
X464097Y142353D01*
X464332Y144494D02*
X459441Y144494D01*
X461025Y146635D02*
X461440Y146635D01*
D11*
X510491Y297858D02*
X519458Y304254D01*
X510491Y297858D02*
X499450Y313336D01*
X508417Y319732D01*
X519458Y304254D01*
X513495Y300001D02*
X508962Y300001D01*
X507434Y302144D02*
X516500Y302144D01*
X519434Y304287D02*
X505905Y304287D01*
X504376Y306430D02*
X517906Y306430D01*
X516377Y308573D02*
X502848Y308573D01*
X501319Y310716D02*
X514848Y310716D01*
X513320Y312859D02*
X499790Y312859D01*
X501786Y315002D02*
X511791Y315002D01*
X510262Y317145D02*
X504790Y317145D01*
X507795Y319288D02*
X508734Y319288D01*
X556082Y330377D02*
X565049Y336773D01*
X556082Y330377D02*
X545041Y345855D01*
X554008Y352251D01*
X565049Y336773D01*
X559086Y332520D02*
X554553Y332520D01*
X553025Y334663D02*
X562091Y334663D01*
X565025Y336806D02*
X551496Y336806D01*
X549967Y338949D02*
X563497Y338949D01*
X561968Y341092D02*
X548439Y341092D01*
X546910Y343235D02*
X560439Y343235D01*
X558911Y345378D02*
X545381Y345378D01*
X547377Y347521D02*
X557382Y347521D01*
X555853Y349664D02*
X550381Y349664D01*
X553386Y351807D02*
X554325Y351807D01*
D12*
X504372Y342625D02*
X500289Y339712D01*
X493022Y349901D01*
X497105Y352814D01*
X504372Y342625D01*
X503290Y341853D02*
X498762Y341853D01*
X497235Y343994D02*
X503396Y343994D01*
X501869Y346135D02*
X495708Y346135D01*
X494181Y348276D02*
X500342Y348276D01*
X498815Y350417D02*
X493745Y350417D01*
X496746Y352558D02*
X497288Y352558D01*
X508430Y345519D02*
X512513Y348432D01*
X508430Y345519D02*
X501163Y355708D01*
X505246Y358621D01*
X512513Y348432D01*
X511431Y347660D02*
X506903Y347660D01*
X505376Y349801D02*
X511537Y349801D01*
X510010Y351942D02*
X503849Y351942D01*
X502322Y354083D02*
X508483Y354083D01*
X506956Y356224D02*
X501886Y356224D01*
X504887Y358365D02*
X505429Y358365D01*
X516571Y351326D02*
X520654Y354239D01*
X516571Y351326D02*
X509304Y361515D01*
X513387Y364428D01*
X520654Y354239D01*
X519572Y353467D02*
X515044Y353467D01*
X513517Y355608D02*
X519678Y355608D01*
X518151Y357749D02*
X511990Y357749D01*
X510463Y359890D02*
X516624Y359890D01*
X515097Y362031D02*
X510027Y362031D01*
X513028Y364172D02*
X513570Y364172D01*
X524712Y357133D02*
X528795Y360046D01*
X524712Y357133D02*
X517445Y367322D01*
X521528Y370235D01*
X528795Y360046D01*
X527713Y359274D02*
X523185Y359274D01*
X521658Y361415D02*
X527819Y361415D01*
X526292Y363556D02*
X520131Y363556D01*
X518604Y365697D02*
X524765Y365697D01*
X523238Y367838D02*
X518168Y367838D01*
X521169Y369979D02*
X521711Y369979D01*
D11*
X204056Y401230D02*
X193042Y401230D01*
X204056Y401230D02*
X204056Y382216D01*
X193042Y382216D01*
X193042Y401230D01*
X193042Y384359D02*
X204056Y384359D01*
X204056Y386502D02*
X193042Y386502D01*
X193042Y388645D02*
X204056Y388645D01*
X204056Y390788D02*
X193042Y390788D01*
X193042Y392931D02*
X204056Y392931D01*
X204056Y395074D02*
X193042Y395074D01*
X193042Y397217D02*
X204056Y397217D01*
X204056Y399360D02*
X193042Y399360D01*
X148056Y401230D02*
X137042Y401230D01*
X148056Y401230D02*
X148056Y382216D01*
X137042Y382216D01*
X137042Y401230D01*
X137042Y384359D02*
X148056Y384359D01*
X148056Y386502D02*
X137042Y386502D01*
X137042Y388645D02*
X148056Y388645D01*
X148056Y390788D02*
X137042Y390788D01*
X137042Y392931D02*
X148056Y392931D01*
X148056Y395074D02*
X137042Y395074D01*
X137042Y397217D02*
X148056Y397217D01*
X148056Y399360D02*
X137042Y399360D01*
D12*
X183041Y361231D02*
X188057Y361231D01*
X188057Y348715D01*
X183041Y348715D01*
X183041Y361231D01*
X183041Y350856D02*
X188057Y350856D01*
X188057Y352997D02*
X183041Y352997D01*
X183041Y355138D02*
X188057Y355138D01*
X188057Y357279D02*
X183041Y357279D01*
X183041Y359420D02*
X188057Y359420D01*
X178057Y361231D02*
X173041Y361231D01*
X178057Y361231D02*
X178057Y348715D01*
X173041Y348715D01*
X173041Y361231D01*
X173041Y350856D02*
X178057Y350856D01*
X178057Y352997D02*
X173041Y352997D01*
X173041Y355138D02*
X178057Y355138D01*
X178057Y357279D02*
X173041Y357279D01*
X173041Y359420D02*
X178057Y359420D01*
X168057Y361231D02*
X163041Y361231D01*
X168057Y361231D02*
X168057Y348715D01*
X163041Y348715D01*
X163041Y361231D01*
X163041Y350856D02*
X168057Y350856D01*
X168057Y352997D02*
X163041Y352997D01*
X163041Y355138D02*
X168057Y355138D01*
X168057Y357279D02*
X163041Y357279D01*
X163041Y359420D02*
X168057Y359420D01*
X158057Y361231D02*
X153041Y361231D01*
X158057Y361231D02*
X158057Y348715D01*
X153041Y348715D01*
X153041Y361231D01*
X153041Y350856D02*
X158057Y350856D01*
X158057Y352997D02*
X153041Y352997D01*
X153041Y355138D02*
X158057Y355138D01*
X158057Y357279D02*
X153041Y357279D01*
X153041Y359420D02*
X158057Y359420D01*
D13*
X323144Y366719D02*
X323144Y373707D01*
X330132Y373707D01*
X330132Y366719D01*
X323144Y366719D01*
X323144Y370788D02*
X330132Y370788D01*
X305604Y373707D02*
X305604Y366719D01*
X305604Y373707D02*
X312592Y373707D01*
X312592Y366719D01*
X305604Y366719D01*
X305604Y370788D02*
X312592Y370788D01*
D14*
X314376Y350465D02*
X304360Y350465D01*
X304360Y359481D01*
X314376Y359481D01*
X314376Y350465D01*
X314376Y352606D02*
X304360Y352606D01*
X304360Y354747D02*
X314376Y354747D01*
X314376Y356888D02*
X304360Y356888D01*
X304360Y359029D02*
X314376Y359029D01*
X321360Y350465D02*
X331376Y350465D01*
X321360Y350465D02*
X321360Y359481D01*
X331376Y359481D01*
X331376Y350465D01*
X331376Y352606D02*
X321360Y352606D01*
X321360Y354747D02*
X331376Y354747D01*
X331376Y356888D02*
X321360Y356888D01*
X321360Y359029D02*
X331376Y359029D01*
D15*
X164198Y50173D03*
X338188Y603893D03*
D11*
X386515Y467991D02*
X389808Y457482D01*
X371665Y451797D01*
X368372Y462306D01*
X386515Y467991D01*
X378504Y453940D02*
X370993Y453940D01*
X370322Y456083D02*
X385343Y456083D01*
X389575Y458226D02*
X369650Y458226D01*
X368979Y460369D02*
X388903Y460369D01*
X388232Y462512D02*
X369029Y462512D01*
X375869Y464655D02*
X387560Y464655D01*
X386889Y466798D02*
X382708Y466798D01*
X373062Y510920D02*
X369769Y521429D01*
X373062Y510920D02*
X354919Y505235D01*
X351626Y515744D01*
X369769Y521429D01*
X361758Y507378D02*
X354247Y507378D01*
X353576Y509521D02*
X368597Y509521D01*
X372829Y511664D02*
X352904Y511664D01*
X352233Y513807D02*
X372157Y513807D01*
X371486Y515950D02*
X352283Y515950D01*
X359123Y518093D02*
X370814Y518093D01*
X370143Y520236D02*
X365962Y520236D01*
D12*
X345355Y465574D02*
X346855Y460789D01*
X334913Y457046D01*
X333413Y461831D01*
X345355Y465574D01*
X341744Y459187D02*
X334242Y459187D01*
X333571Y461328D02*
X346686Y461328D01*
X346015Y463469D02*
X338639Y463469D01*
X343865Y470331D02*
X342365Y475116D01*
X343865Y470331D02*
X331923Y466588D01*
X330423Y471373D01*
X342365Y475116D01*
X338754Y468729D02*
X331252Y468729D01*
X330581Y470870D02*
X343696Y470870D01*
X343025Y473011D02*
X335649Y473011D01*
X340874Y479874D02*
X339374Y484659D01*
X340874Y479874D02*
X328932Y476131D01*
X327432Y480916D01*
X339374Y484659D01*
X335763Y478272D02*
X328261Y478272D01*
X327590Y480413D02*
X340705Y480413D01*
X340034Y482554D02*
X332658Y482554D01*
X337884Y489416D02*
X336384Y494201D01*
X337884Y489416D02*
X325942Y485673D01*
X324442Y490458D01*
X336384Y494201D01*
X332773Y487814D02*
X325271Y487814D01*
X324600Y489955D02*
X337715Y489955D01*
X337044Y492096D02*
X329668Y492096D01*
D11*
X945771Y195974D02*
X942186Y185561D01*
X945771Y195974D02*
X963748Y189783D01*
X960163Y179370D01*
X942186Y185561D01*
X953940Y181513D02*
X960901Y181513D01*
X961639Y183656D02*
X947718Y183656D01*
X942268Y185799D02*
X962376Y185799D01*
X963114Y187942D02*
X943006Y187942D01*
X943744Y190085D02*
X962871Y190085D01*
X956648Y192228D02*
X944481Y192228D01*
X945219Y194371D02*
X950426Y194371D01*
X927539Y143025D02*
X923954Y132612D01*
X927539Y143025D02*
X945516Y136834D01*
X941931Y126421D01*
X923954Y132612D01*
X935708Y128564D02*
X942669Y128564D01*
X943407Y130707D02*
X929486Y130707D01*
X924036Y132850D02*
X944144Y132850D01*
X944882Y134993D02*
X924774Y134993D01*
X925512Y137136D02*
X944639Y137136D01*
X938416Y139279D02*
X926249Y139279D01*
X926987Y141422D02*
X932194Y141422D01*
D12*
X976749Y163083D02*
X978382Y167824D01*
X990215Y163749D01*
X988582Y159008D01*
X976749Y163083D01*
X982365Y161149D02*
X989319Y161149D01*
X990057Y163290D02*
X976820Y163290D01*
X977558Y165431D02*
X985331Y165431D01*
X979114Y167572D02*
X978295Y167572D01*
X975126Y158369D02*
X973493Y153628D01*
X975126Y158369D02*
X986959Y154294D01*
X985326Y149553D01*
X973493Y153628D01*
X979109Y151694D02*
X986063Y151694D01*
X986801Y153835D02*
X973564Y153835D01*
X974302Y155976D02*
X982075Y155976D01*
X975858Y158117D02*
X975039Y158117D01*
X971871Y148914D02*
X970238Y144173D01*
X971871Y148914D02*
X983704Y144839D01*
X982071Y140098D01*
X970238Y144173D01*
X975854Y142239D02*
X982808Y142239D01*
X983546Y144380D02*
X970309Y144380D01*
X971047Y146521D02*
X978820Y146521D01*
X972603Y148662D02*
X971784Y148662D01*
X968615Y139459D02*
X966982Y134718D01*
X968615Y139459D02*
X980448Y135384D01*
X978815Y130643D01*
X966982Y134718D01*
X972598Y132784D02*
X979552Y132784D01*
X980290Y134925D02*
X967053Y134925D01*
X967791Y137066D02*
X975564Y137066D01*
X969347Y139207D02*
X968528Y139207D01*
D11*
X1140050Y131981D02*
X1148903Y125430D01*
X1140050Y131981D02*
X1151359Y147264D01*
X1160212Y140713D01*
X1148903Y125430D01*
X1150489Y127573D02*
X1146007Y127573D01*
X1143111Y129716D02*
X1152075Y129716D01*
X1153660Y131859D02*
X1140215Y131859D01*
X1141545Y134002D02*
X1155246Y134002D01*
X1156832Y136145D02*
X1143131Y136145D01*
X1144717Y138288D02*
X1158418Y138288D01*
X1160003Y140431D02*
X1146303Y140431D01*
X1147889Y142574D02*
X1157697Y142574D01*
X1154801Y144717D02*
X1149474Y144717D01*
X1151060Y146860D02*
X1151905Y146860D01*
X1185066Y98671D02*
X1193919Y92120D01*
X1185066Y98671D02*
X1196375Y113954D01*
X1205228Y107403D01*
X1193919Y92120D01*
X1195505Y94263D02*
X1191023Y94263D01*
X1188127Y96406D02*
X1197091Y96406D01*
X1198676Y98549D02*
X1185231Y98549D01*
X1186561Y100692D02*
X1200262Y100692D01*
X1201848Y102835D02*
X1188147Y102835D01*
X1189733Y104978D02*
X1203434Y104978D01*
X1205019Y107121D02*
X1191319Y107121D01*
X1192905Y109264D02*
X1202713Y109264D01*
X1199817Y111407D02*
X1194490Y111407D01*
X1196076Y113550D02*
X1196921Y113550D01*
D12*
X1180735Y151634D02*
X1176703Y154618D01*
X1184147Y164678D01*
X1188179Y161694D01*
X1180735Y151634D01*
X1182319Y153775D02*
X1177842Y153775D01*
X1177663Y155916D02*
X1183904Y155916D01*
X1185488Y158057D02*
X1179248Y158057D01*
X1180832Y160198D02*
X1187072Y160198D01*
X1187307Y162339D02*
X1182416Y162339D01*
X1184000Y164480D02*
X1184415Y164480D01*
X1184741Y148669D02*
X1188773Y145685D01*
X1184741Y148669D02*
X1192185Y158729D01*
X1196217Y155745D01*
X1188773Y145685D01*
X1190357Y147826D02*
X1185880Y147826D01*
X1185701Y149967D02*
X1191942Y149967D01*
X1193526Y152108D02*
X1187286Y152108D01*
X1188870Y154249D02*
X1195110Y154249D01*
X1195345Y156390D02*
X1190454Y156390D01*
X1192038Y158531D02*
X1192453Y158531D01*
X1192780Y142721D02*
X1196812Y139737D01*
X1192780Y142721D02*
X1200224Y152781D01*
X1204256Y149797D01*
X1196812Y139737D01*
X1198396Y141878D02*
X1193919Y141878D01*
X1193740Y144019D02*
X1199981Y144019D01*
X1201565Y146160D02*
X1195325Y146160D01*
X1196909Y148301D02*
X1203149Y148301D01*
X1203384Y150442D02*
X1198493Y150442D01*
X1200077Y152583D02*
X1200492Y152583D01*
X1200818Y136773D02*
X1204850Y133789D01*
X1200818Y136773D02*
X1208262Y146833D01*
X1212294Y143849D01*
X1204850Y133789D01*
X1206434Y135930D02*
X1201957Y135930D01*
X1201778Y138071D02*
X1208019Y138071D01*
X1209603Y140212D02*
X1203363Y140212D01*
X1204947Y142353D02*
X1211187Y142353D01*
X1211422Y144494D02*
X1206531Y144494D01*
X1208115Y146635D02*
X1208530Y146635D01*
D11*
X1257581Y297858D02*
X1266548Y304254D01*
X1257581Y297858D02*
X1246540Y313336D01*
X1255507Y319732D01*
X1266548Y304254D01*
X1260585Y300001D02*
X1256052Y300001D01*
X1254524Y302144D02*
X1263590Y302144D01*
X1266524Y304287D02*
X1252995Y304287D01*
X1251466Y306430D02*
X1264996Y306430D01*
X1263467Y308573D02*
X1249938Y308573D01*
X1248409Y310716D02*
X1261938Y310716D01*
X1260410Y312859D02*
X1246880Y312859D01*
X1248876Y315002D02*
X1258881Y315002D01*
X1257352Y317145D02*
X1251880Y317145D01*
X1254885Y319288D02*
X1255824Y319288D01*
X1303172Y330377D02*
X1312139Y336773D01*
X1303172Y330377D02*
X1292131Y345855D01*
X1301098Y352251D01*
X1312139Y336773D01*
X1306176Y332520D02*
X1301643Y332520D01*
X1300115Y334663D02*
X1309181Y334663D01*
X1312115Y336806D02*
X1298586Y336806D01*
X1297057Y338949D02*
X1310587Y338949D01*
X1309058Y341092D02*
X1295529Y341092D01*
X1294000Y343235D02*
X1307529Y343235D01*
X1306001Y345378D02*
X1292471Y345378D01*
X1294467Y347521D02*
X1304472Y347521D01*
X1302943Y349664D02*
X1297471Y349664D01*
X1300476Y351807D02*
X1301415Y351807D01*
D12*
X1251462Y342625D02*
X1247379Y339712D01*
X1240112Y349901D01*
X1244195Y352814D01*
X1251462Y342625D01*
X1250380Y341853D02*
X1245852Y341853D01*
X1244325Y343994D02*
X1250486Y343994D01*
X1248959Y346135D02*
X1242798Y346135D01*
X1241271Y348276D02*
X1247432Y348276D01*
X1245905Y350417D02*
X1240835Y350417D01*
X1243836Y352558D02*
X1244378Y352558D01*
X1255520Y345519D02*
X1259603Y348432D01*
X1255520Y345519D02*
X1248253Y355708D01*
X1252336Y358621D01*
X1259603Y348432D01*
X1258521Y347660D02*
X1253993Y347660D01*
X1252466Y349801D02*
X1258627Y349801D01*
X1257100Y351942D02*
X1250939Y351942D01*
X1249412Y354083D02*
X1255573Y354083D01*
X1254046Y356224D02*
X1248976Y356224D01*
X1251977Y358365D02*
X1252519Y358365D01*
X1263661Y351326D02*
X1267744Y354239D01*
X1263661Y351326D02*
X1256394Y361515D01*
X1260477Y364428D01*
X1267744Y354239D01*
X1266662Y353467D02*
X1262134Y353467D01*
X1260607Y355608D02*
X1266768Y355608D01*
X1265241Y357749D02*
X1259080Y357749D01*
X1257553Y359890D02*
X1263714Y359890D01*
X1262187Y362031D02*
X1257117Y362031D01*
X1260118Y364172D02*
X1260660Y364172D01*
X1271802Y357133D02*
X1275885Y360046D01*
X1271802Y357133D02*
X1264535Y367322D01*
X1268618Y370235D01*
X1275885Y360046D01*
X1274803Y359274D02*
X1270275Y359274D01*
X1268748Y361415D02*
X1274909Y361415D01*
X1273382Y363556D02*
X1267221Y363556D01*
X1265694Y365697D02*
X1271855Y365697D01*
X1270328Y367838D02*
X1265258Y367838D01*
X1268259Y369979D02*
X1268801Y369979D01*
D11*
X951146Y401230D02*
X940132Y401230D01*
X951146Y401230D02*
X951146Y382216D01*
X940132Y382216D01*
X940132Y401230D01*
X940132Y384359D02*
X951146Y384359D01*
X951146Y386502D02*
X940132Y386502D01*
X940132Y388645D02*
X951146Y388645D01*
X951146Y390788D02*
X940132Y390788D01*
X940132Y392931D02*
X951146Y392931D01*
X951146Y395074D02*
X940132Y395074D01*
X940132Y397217D02*
X951146Y397217D01*
X951146Y399360D02*
X940132Y399360D01*
X895146Y401230D02*
X884132Y401230D01*
X895146Y401230D02*
X895146Y382216D01*
X884132Y382216D01*
X884132Y401230D01*
X884132Y384359D02*
X895146Y384359D01*
X895146Y386502D02*
X884132Y386502D01*
X884132Y388645D02*
X895146Y388645D01*
X895146Y390788D02*
X884132Y390788D01*
X884132Y392931D02*
X895146Y392931D01*
X895146Y395074D02*
X884132Y395074D01*
X884132Y397217D02*
X895146Y397217D01*
X895146Y399360D02*
X884132Y399360D01*
D12*
X930131Y361231D02*
X935147Y361231D01*
X935147Y348715D01*
X930131Y348715D01*
X930131Y361231D01*
X930131Y350856D02*
X935147Y350856D01*
X935147Y352997D02*
X930131Y352997D01*
X930131Y355138D02*
X935147Y355138D01*
X935147Y357279D02*
X930131Y357279D01*
X930131Y359420D02*
X935147Y359420D01*
X925147Y361231D02*
X920131Y361231D01*
X925147Y361231D02*
X925147Y348715D01*
X920131Y348715D01*
X920131Y361231D01*
X920131Y350856D02*
X925147Y350856D01*
X925147Y352997D02*
X920131Y352997D01*
X920131Y355138D02*
X925147Y355138D01*
X925147Y357279D02*
X920131Y357279D01*
X920131Y359420D02*
X925147Y359420D01*
X915147Y361231D02*
X910131Y361231D01*
X915147Y361231D02*
X915147Y348715D01*
X910131Y348715D01*
X910131Y361231D01*
X910131Y350856D02*
X915147Y350856D01*
X915147Y352997D02*
X910131Y352997D01*
X910131Y355138D02*
X915147Y355138D01*
X915147Y357279D02*
X910131Y357279D01*
X910131Y359420D02*
X915147Y359420D01*
X905147Y361231D02*
X900131Y361231D01*
X905147Y361231D02*
X905147Y348715D01*
X900131Y348715D01*
X900131Y361231D01*
X900131Y350856D02*
X905147Y350856D01*
X905147Y352997D02*
X900131Y352997D01*
X900131Y355138D02*
X905147Y355138D01*
X905147Y357279D02*
X900131Y357279D01*
X900131Y359420D02*
X905147Y359420D01*
D13*
X1070235Y366719D02*
X1070235Y373707D01*
X1077223Y373707D01*
X1077223Y366719D01*
X1070235Y366719D01*
X1070235Y370788D02*
X1077223Y370788D01*
X1052695Y373707D02*
X1052695Y366719D01*
X1052695Y373707D02*
X1059683Y373707D01*
X1059683Y366719D01*
X1052695Y366719D01*
X1052695Y370788D02*
X1059683Y370788D01*
D14*
X1061467Y350465D02*
X1051451Y350465D01*
X1051451Y359481D01*
X1061467Y359481D01*
X1061467Y350465D01*
X1061467Y352606D02*
X1051451Y352606D01*
X1051451Y354747D02*
X1061467Y354747D01*
X1061467Y356888D02*
X1051451Y356888D01*
X1051451Y359029D02*
X1061467Y359029D01*
X1068451Y350465D02*
X1078467Y350465D01*
X1068451Y350465D02*
X1068451Y359481D01*
X1078467Y359481D01*
X1078467Y350465D01*
X1078467Y352606D02*
X1068451Y352606D01*
X1068451Y354747D02*
X1078467Y354747D01*
X1078467Y356888D02*
X1068451Y356888D01*
X1068451Y359029D02*
X1078467Y359029D01*
D15*
X911289Y50173D03*
X1085279Y603893D03*
D11*
X1133605Y467991D02*
X1136898Y457482D01*
X1118755Y451797D01*
X1115462Y462306D01*
X1133605Y467991D01*
X1125594Y453940D02*
X1118083Y453940D01*
X1117412Y456083D02*
X1132433Y456083D01*
X1136665Y458226D02*
X1116740Y458226D01*
X1116069Y460369D02*
X1135993Y460369D01*
X1135322Y462512D02*
X1116119Y462512D01*
X1122959Y464655D02*
X1134650Y464655D01*
X1133979Y466798D02*
X1129798Y466798D01*
X1120152Y510920D02*
X1116859Y521429D01*
X1120152Y510920D02*
X1102009Y505235D01*
X1098716Y515744D01*
X1116859Y521429D01*
X1108848Y507378D02*
X1101337Y507378D01*
X1100666Y509521D02*
X1115687Y509521D01*
X1119919Y511664D02*
X1099994Y511664D01*
X1099323Y513807D02*
X1119247Y513807D01*
X1118576Y515950D02*
X1099373Y515950D01*
X1106213Y518093D02*
X1117904Y518093D01*
X1117233Y520236D02*
X1113052Y520236D01*
D12*
X1092445Y465574D02*
X1093945Y460789D01*
X1082003Y457046D01*
X1080503Y461831D01*
X1092445Y465574D01*
X1088834Y459187D02*
X1081332Y459187D01*
X1080661Y461328D02*
X1093776Y461328D01*
X1093105Y463469D02*
X1085729Y463469D01*
X1090955Y470331D02*
X1089455Y475116D01*
X1090955Y470331D02*
X1079013Y466588D01*
X1077513Y471373D01*
X1089455Y475116D01*
X1085844Y468729D02*
X1078342Y468729D01*
X1077671Y470870D02*
X1090786Y470870D01*
X1090115Y473011D02*
X1082739Y473011D01*
X1087964Y479874D02*
X1086464Y484659D01*
X1087964Y479874D02*
X1076022Y476131D01*
X1074522Y480916D01*
X1086464Y484659D01*
X1082853Y478272D02*
X1075351Y478272D01*
X1074680Y480413D02*
X1087795Y480413D01*
X1087124Y482554D02*
X1079748Y482554D01*
X1084974Y489416D02*
X1083474Y494201D01*
X1084974Y489416D02*
X1073032Y485673D01*
X1071532Y490458D01*
X1083474Y494201D01*
X1079863Y487814D02*
X1072361Y487814D01*
X1071690Y489955D02*
X1084805Y489955D01*
X1084134Y492096D02*
X1076758Y492096D01*
D11*
X1692886Y195974D02*
X1689301Y185561D01*
X1692886Y195974D02*
X1710863Y189783D01*
X1707278Y179370D01*
X1689301Y185561D01*
X1701055Y181513D02*
X1708016Y181513D01*
X1708754Y183656D02*
X1694833Y183656D01*
X1689383Y185799D02*
X1709491Y185799D01*
X1710229Y187942D02*
X1690121Y187942D01*
X1690859Y190085D02*
X1709986Y190085D01*
X1703763Y192228D02*
X1691596Y192228D01*
X1692334Y194371D02*
X1697541Y194371D01*
X1674655Y143025D02*
X1671070Y132612D01*
X1674655Y143025D02*
X1692632Y136834D01*
X1689047Y126421D01*
X1671070Y132612D01*
X1682824Y128564D02*
X1689785Y128564D01*
X1690523Y130707D02*
X1676602Y130707D01*
X1671152Y132850D02*
X1691260Y132850D01*
X1691998Y134993D02*
X1671890Y134993D01*
X1672628Y137136D02*
X1691755Y137136D01*
X1685532Y139279D02*
X1673365Y139279D01*
X1674103Y141422D02*
X1679310Y141422D01*
D12*
X1723865Y163083D02*
X1725498Y167824D01*
X1737331Y163749D01*
X1735698Y159008D01*
X1723865Y163083D01*
X1729481Y161149D02*
X1736435Y161149D01*
X1737173Y163290D02*
X1723936Y163290D01*
X1724674Y165431D02*
X1732447Y165431D01*
X1726230Y167572D02*
X1725411Y167572D01*
X1722242Y158369D02*
X1720609Y153628D01*
X1722242Y158369D02*
X1734075Y154294D01*
X1732442Y149553D01*
X1720609Y153628D01*
X1726225Y151694D02*
X1733179Y151694D01*
X1733917Y153835D02*
X1720680Y153835D01*
X1721418Y155976D02*
X1729191Y155976D01*
X1722974Y158117D02*
X1722155Y158117D01*
X1718986Y148914D02*
X1717353Y144173D01*
X1718986Y148914D02*
X1730819Y144839D01*
X1729186Y140098D01*
X1717353Y144173D01*
X1722969Y142239D02*
X1729923Y142239D01*
X1730661Y144380D02*
X1717424Y144380D01*
X1718162Y146521D02*
X1725935Y146521D01*
X1719718Y148662D02*
X1718899Y148662D01*
X1715731Y139459D02*
X1714098Y134718D01*
X1715731Y139459D02*
X1727564Y135384D01*
X1725931Y130643D01*
X1714098Y134718D01*
X1719714Y132784D02*
X1726668Y132784D01*
X1727406Y134925D02*
X1714169Y134925D01*
X1714907Y137066D02*
X1722680Y137066D01*
X1716463Y139207D02*
X1715644Y139207D01*
D11*
X1887165Y131981D02*
X1896018Y125430D01*
X1887165Y131981D02*
X1898474Y147264D01*
X1907327Y140713D01*
X1896018Y125430D01*
X1897604Y127573D02*
X1893122Y127573D01*
X1890226Y129716D02*
X1899190Y129716D01*
X1900775Y131859D02*
X1887330Y131859D01*
X1888660Y134002D02*
X1902361Y134002D01*
X1903947Y136145D02*
X1890246Y136145D01*
X1891832Y138288D02*
X1905533Y138288D01*
X1907118Y140431D02*
X1893418Y140431D01*
X1895004Y142574D02*
X1904812Y142574D01*
X1901916Y144717D02*
X1896589Y144717D01*
X1898175Y146860D02*
X1899020Y146860D01*
X1932181Y98671D02*
X1941034Y92120D01*
X1932181Y98671D02*
X1943490Y113954D01*
X1952343Y107403D01*
X1941034Y92120D01*
X1942620Y94263D02*
X1938138Y94263D01*
X1935242Y96406D02*
X1944206Y96406D01*
X1945791Y98549D02*
X1932346Y98549D01*
X1933676Y100692D02*
X1947377Y100692D01*
X1948963Y102835D02*
X1935262Y102835D01*
X1936848Y104978D02*
X1950549Y104978D01*
X1952134Y107121D02*
X1938434Y107121D01*
X1940020Y109264D02*
X1949828Y109264D01*
X1946932Y111407D02*
X1941605Y111407D01*
X1943191Y113550D02*
X1944036Y113550D01*
D12*
X1927850Y151634D02*
X1923818Y154618D01*
X1931262Y164678D01*
X1935294Y161694D01*
X1927850Y151634D01*
X1929434Y153775D02*
X1924957Y153775D01*
X1924778Y155916D02*
X1931019Y155916D01*
X1932603Y158057D02*
X1926363Y158057D01*
X1927947Y160198D02*
X1934187Y160198D01*
X1934422Y162339D02*
X1929531Y162339D01*
X1931115Y164480D02*
X1931530Y164480D01*
X1931857Y148669D02*
X1935889Y145685D01*
X1931857Y148669D02*
X1939301Y158729D01*
X1943333Y155745D01*
X1935889Y145685D01*
X1937473Y147826D02*
X1932996Y147826D01*
X1932817Y149967D02*
X1939058Y149967D01*
X1940642Y152108D02*
X1934402Y152108D01*
X1935986Y154249D02*
X1942226Y154249D01*
X1942461Y156390D02*
X1937570Y156390D01*
X1939154Y158531D02*
X1939569Y158531D01*
X1939895Y142721D02*
X1943927Y139737D01*
X1939895Y142721D02*
X1947339Y152781D01*
X1951371Y149797D01*
X1943927Y139737D01*
X1945511Y141878D02*
X1941034Y141878D01*
X1940855Y144019D02*
X1947096Y144019D01*
X1948680Y146160D02*
X1942440Y146160D01*
X1944024Y148301D02*
X1950264Y148301D01*
X1950499Y150442D02*
X1945608Y150442D01*
X1947192Y152583D02*
X1947607Y152583D01*
X1947934Y136773D02*
X1951966Y133789D01*
X1947934Y136773D02*
X1955378Y146833D01*
X1959410Y143849D01*
X1951966Y133789D01*
X1953550Y135930D02*
X1949073Y135930D01*
X1948894Y138071D02*
X1955135Y138071D01*
X1956719Y140212D02*
X1950479Y140212D01*
X1952063Y142353D02*
X1958303Y142353D01*
X1958538Y144494D02*
X1953647Y144494D01*
X1955231Y146635D02*
X1955646Y146635D01*
D11*
X2004697Y297858D02*
X2013664Y304254D01*
X2004697Y297858D02*
X1993656Y313336D01*
X2002623Y319732D01*
X2013664Y304254D01*
X2007701Y300001D02*
X2003168Y300001D01*
X2001640Y302144D02*
X2010706Y302144D01*
X2013640Y304287D02*
X2000111Y304287D01*
X1998582Y306430D02*
X2012112Y306430D01*
X2010583Y308573D02*
X1997054Y308573D01*
X1995525Y310716D02*
X2009054Y310716D01*
X2007526Y312859D02*
X1993996Y312859D01*
X1995992Y315002D02*
X2005997Y315002D01*
X2004468Y317145D02*
X1998996Y317145D01*
X2002001Y319288D02*
X2002940Y319288D01*
X2050287Y330377D02*
X2059254Y336773D01*
X2050287Y330377D02*
X2039246Y345855D01*
X2048213Y352251D01*
X2059254Y336773D01*
X2053291Y332520D02*
X2048758Y332520D01*
X2047230Y334663D02*
X2056296Y334663D01*
X2059230Y336806D02*
X2045701Y336806D01*
X2044172Y338949D02*
X2057702Y338949D01*
X2056173Y341092D02*
X2042644Y341092D01*
X2041115Y343235D02*
X2054644Y343235D01*
X2053116Y345378D02*
X2039586Y345378D01*
X2041582Y347521D02*
X2051587Y347521D01*
X2050058Y349664D02*
X2044586Y349664D01*
X2047591Y351807D02*
X2048530Y351807D01*
D12*
X1998578Y342625D02*
X1994495Y339712D01*
X1987228Y349901D01*
X1991311Y352814D01*
X1998578Y342625D01*
X1997496Y341853D02*
X1992968Y341853D01*
X1991441Y343994D02*
X1997602Y343994D01*
X1996075Y346135D02*
X1989914Y346135D01*
X1988387Y348276D02*
X1994548Y348276D01*
X1993021Y350417D02*
X1987951Y350417D01*
X1990952Y352558D02*
X1991494Y352558D01*
X2002636Y345519D02*
X2006719Y348432D01*
X2002636Y345519D02*
X1995369Y355708D01*
X1999452Y358621D01*
X2006719Y348432D01*
X2005637Y347660D02*
X2001109Y347660D01*
X1999582Y349801D02*
X2005743Y349801D01*
X2004216Y351942D02*
X1998055Y351942D01*
X1996528Y354083D02*
X2002689Y354083D01*
X2001162Y356224D02*
X1996092Y356224D01*
X1999093Y358365D02*
X1999635Y358365D01*
X2010777Y351326D02*
X2014860Y354239D01*
X2010777Y351326D02*
X2003510Y361515D01*
X2007593Y364428D01*
X2014860Y354239D01*
X2013778Y353467D02*
X2009250Y353467D01*
X2007723Y355608D02*
X2013884Y355608D01*
X2012357Y357749D02*
X2006196Y357749D01*
X2004669Y359890D02*
X2010830Y359890D01*
X2009303Y362031D02*
X2004233Y362031D01*
X2007234Y364172D02*
X2007776Y364172D01*
X2018918Y357133D02*
X2023001Y360046D01*
X2018918Y357133D02*
X2011651Y367322D01*
X2015734Y370235D01*
X2023001Y360046D01*
X2021919Y359274D02*
X2017391Y359274D01*
X2015864Y361415D02*
X2022025Y361415D01*
X2020498Y363556D02*
X2014337Y363556D01*
X2012810Y365697D02*
X2018971Y365697D01*
X2017444Y367838D02*
X2012374Y367838D01*
X2015375Y369979D02*
X2015917Y369979D01*
D11*
X1698261Y401230D02*
X1687247Y401230D01*
X1698261Y401230D02*
X1698261Y382216D01*
X1687247Y382216D01*
X1687247Y401230D01*
X1687247Y384359D02*
X1698261Y384359D01*
X1698261Y386502D02*
X1687247Y386502D01*
X1687247Y388645D02*
X1698261Y388645D01*
X1698261Y390788D02*
X1687247Y390788D01*
X1687247Y392931D02*
X1698261Y392931D01*
X1698261Y395074D02*
X1687247Y395074D01*
X1687247Y397217D02*
X1698261Y397217D01*
X1698261Y399360D02*
X1687247Y399360D01*
X1642261Y401230D02*
X1631247Y401230D01*
X1642261Y401230D02*
X1642261Y382216D01*
X1631247Y382216D01*
X1631247Y401230D01*
X1631247Y384359D02*
X1642261Y384359D01*
X1642261Y386502D02*
X1631247Y386502D01*
X1631247Y388645D02*
X1642261Y388645D01*
X1642261Y390788D02*
X1631247Y390788D01*
X1631247Y392931D02*
X1642261Y392931D01*
X1642261Y395074D02*
X1631247Y395074D01*
X1631247Y397217D02*
X1642261Y397217D01*
X1642261Y399360D02*
X1631247Y399360D01*
D12*
X1677246Y361231D02*
X1682262Y361231D01*
X1682262Y348715D01*
X1677246Y348715D01*
X1677246Y361231D01*
X1677246Y350856D02*
X1682262Y350856D01*
X1682262Y352997D02*
X1677246Y352997D01*
X1677246Y355138D02*
X1682262Y355138D01*
X1682262Y357279D02*
X1677246Y357279D01*
X1677246Y359420D02*
X1682262Y359420D01*
X1672262Y361231D02*
X1667246Y361231D01*
X1672262Y361231D02*
X1672262Y348715D01*
X1667246Y348715D01*
X1667246Y361231D01*
X1667246Y350856D02*
X1672262Y350856D01*
X1672262Y352997D02*
X1667246Y352997D01*
X1667246Y355138D02*
X1672262Y355138D01*
X1672262Y357279D02*
X1667246Y357279D01*
X1667246Y359420D02*
X1672262Y359420D01*
X1662262Y361231D02*
X1657246Y361231D01*
X1662262Y361231D02*
X1662262Y348715D01*
X1657246Y348715D01*
X1657246Y361231D01*
X1657246Y350856D02*
X1662262Y350856D01*
X1662262Y352997D02*
X1657246Y352997D01*
X1657246Y355138D02*
X1662262Y355138D01*
X1662262Y357279D02*
X1657246Y357279D01*
X1657246Y359420D02*
X1662262Y359420D01*
X1652262Y361231D02*
X1647246Y361231D01*
X1652262Y361231D02*
X1652262Y348715D01*
X1647246Y348715D01*
X1647246Y361231D01*
X1647246Y350856D02*
X1652262Y350856D01*
X1652262Y352997D02*
X1647246Y352997D01*
X1647246Y355138D02*
X1652262Y355138D01*
X1652262Y357279D02*
X1647246Y357279D01*
X1647246Y359420D02*
X1652262Y359420D01*
D13*
X1817350Y366719D02*
X1817350Y373707D01*
X1824338Y373707D01*
X1824338Y366719D01*
X1817350Y366719D01*
X1817350Y370788D02*
X1824338Y370788D01*
X1799810Y373707D02*
X1799810Y366719D01*
X1799810Y373707D02*
X1806798Y373707D01*
X1806798Y366719D01*
X1799810Y366719D01*
X1799810Y370788D02*
X1806798Y370788D01*
D14*
X1808582Y350465D02*
X1798566Y350465D01*
X1798566Y359481D01*
X1808582Y359481D01*
X1808582Y350465D01*
X1808582Y352606D02*
X1798566Y352606D01*
X1798566Y354747D02*
X1808582Y354747D01*
X1808582Y356888D02*
X1798566Y356888D01*
X1798566Y359029D02*
X1808582Y359029D01*
X1815566Y350465D02*
X1825582Y350465D01*
X1815566Y350465D02*
X1815566Y359481D01*
X1825582Y359481D01*
X1825582Y350465D01*
X1825582Y352606D02*
X1815566Y352606D01*
X1815566Y354747D02*
X1825582Y354747D01*
X1825582Y356888D02*
X1815566Y356888D01*
X1815566Y359029D02*
X1825582Y359029D01*
D15*
X1658404Y50173D03*
X1832394Y603893D03*
D11*
X1880721Y467991D02*
X1884014Y457482D01*
X1865871Y451797D01*
X1862578Y462306D01*
X1880721Y467991D01*
X1872710Y453940D02*
X1865199Y453940D01*
X1864528Y456083D02*
X1879549Y456083D01*
X1883781Y458226D02*
X1863856Y458226D01*
X1863185Y460369D02*
X1883109Y460369D01*
X1882438Y462512D02*
X1863235Y462512D01*
X1870075Y464655D02*
X1881766Y464655D01*
X1881095Y466798D02*
X1876914Y466798D01*
X1867267Y510920D02*
X1863974Y521429D01*
X1867267Y510920D02*
X1849124Y505235D01*
X1845831Y515744D01*
X1863974Y521429D01*
X1855963Y507378D02*
X1848452Y507378D01*
X1847781Y509521D02*
X1862802Y509521D01*
X1867034Y511664D02*
X1847109Y511664D01*
X1846438Y513807D02*
X1866362Y513807D01*
X1865691Y515950D02*
X1846488Y515950D01*
X1853328Y518093D02*
X1865019Y518093D01*
X1864348Y520236D02*
X1860167Y520236D01*
D12*
X1839561Y465574D02*
X1841061Y460789D01*
X1829119Y457046D01*
X1827619Y461831D01*
X1839561Y465574D01*
X1835950Y459187D02*
X1828448Y459187D01*
X1827777Y461328D02*
X1840892Y461328D01*
X1840221Y463469D02*
X1832845Y463469D01*
X1838070Y470331D02*
X1836570Y475116D01*
X1838070Y470331D02*
X1826128Y466588D01*
X1824628Y471373D01*
X1836570Y475116D01*
X1832959Y468729D02*
X1825457Y468729D01*
X1824786Y470870D02*
X1837901Y470870D01*
X1837230Y473011D02*
X1829854Y473011D01*
X1835080Y479874D02*
X1833580Y484659D01*
X1835080Y479874D02*
X1823138Y476131D01*
X1821638Y480916D01*
X1833580Y484659D01*
X1829969Y478272D02*
X1822467Y478272D01*
X1821796Y480413D02*
X1834911Y480413D01*
X1834240Y482554D02*
X1826864Y482554D01*
X1832090Y489416D02*
X1830590Y494201D01*
X1832090Y489416D02*
X1820148Y485673D01*
X1818648Y490458D01*
X1830590Y494201D01*
X1826979Y487814D02*
X1819477Y487814D01*
X1818806Y489955D02*
X1831921Y489955D01*
X1831250Y492096D02*
X1823874Y492096D01*
D11*
X198681Y833972D02*
X195096Y823559D01*
X198681Y833972D02*
X216658Y827781D01*
X213073Y817368D01*
X195096Y823559D01*
X206850Y819511D02*
X213811Y819511D01*
X214549Y821654D02*
X200628Y821654D01*
X195178Y823797D02*
X215286Y823797D01*
X216024Y825940D02*
X195916Y825940D01*
X196654Y828083D02*
X215781Y828083D01*
X209558Y830226D02*
X197391Y830226D01*
X198129Y832369D02*
X203336Y832369D01*
X180449Y781023D02*
X176864Y770610D01*
X180449Y781023D02*
X198426Y774832D01*
X194841Y764419D01*
X176864Y770610D01*
X188618Y766562D02*
X195579Y766562D01*
X196317Y768705D02*
X182396Y768705D01*
X176946Y770848D02*
X197054Y770848D01*
X197792Y772991D02*
X177684Y772991D01*
X178422Y775134D02*
X197549Y775134D01*
X191326Y777277D02*
X179159Y777277D01*
X179897Y779420D02*
X185104Y779420D01*
D12*
X229659Y801080D02*
X231292Y805821D01*
X243125Y801746D01*
X241492Y797005D01*
X229659Y801080D01*
X235275Y799146D02*
X242229Y799146D01*
X242967Y801287D02*
X229730Y801287D01*
X230468Y803428D02*
X238241Y803428D01*
X232024Y805569D02*
X231205Y805569D01*
X228036Y796366D02*
X226403Y791625D01*
X228036Y796366D02*
X239869Y792291D01*
X238236Y787550D01*
X226403Y791625D01*
X232019Y789691D02*
X238973Y789691D01*
X239711Y791832D02*
X226474Y791832D01*
X227212Y793973D02*
X234985Y793973D01*
X228768Y796114D02*
X227949Y796114D01*
X224781Y786911D02*
X223148Y782170D01*
X224781Y786911D02*
X236614Y782836D01*
X234981Y778095D01*
X223148Y782170D01*
X228764Y780236D02*
X235718Y780236D01*
X236456Y782377D02*
X223219Y782377D01*
X223957Y784518D02*
X231730Y784518D01*
X225513Y786659D02*
X224694Y786659D01*
X221525Y777456D02*
X219892Y772715D01*
X221525Y777456D02*
X233358Y773381D01*
X231725Y768640D01*
X219892Y772715D01*
X225508Y770781D02*
X232462Y770781D01*
X233200Y772922D02*
X219963Y772922D01*
X220701Y775063D02*
X228474Y775063D01*
X222257Y777204D02*
X221438Y777204D01*
D11*
X392960Y769978D02*
X401813Y763427D01*
X392960Y769978D02*
X404269Y785261D01*
X413122Y778710D01*
X401813Y763427D01*
X403399Y765570D02*
X398917Y765570D01*
X396021Y767713D02*
X404985Y767713D01*
X406570Y769856D02*
X393125Y769856D01*
X394455Y771999D02*
X408156Y771999D01*
X409742Y774142D02*
X396041Y774142D01*
X397627Y776285D02*
X411328Y776285D01*
X412913Y778428D02*
X399213Y778428D01*
X400799Y780571D02*
X410607Y780571D01*
X407711Y782714D02*
X402384Y782714D01*
X403970Y784857D02*
X404815Y784857D01*
X437976Y736668D02*
X446829Y730117D01*
X437976Y736668D02*
X449285Y751951D01*
X458138Y745400D01*
X446829Y730117D01*
X448415Y732260D02*
X443933Y732260D01*
X441037Y734403D02*
X450001Y734403D01*
X451586Y736546D02*
X438141Y736546D01*
X439471Y738689D02*
X453172Y738689D01*
X454758Y740832D02*
X441057Y740832D01*
X442643Y742975D02*
X456344Y742975D01*
X457929Y745118D02*
X444229Y745118D01*
X445815Y747261D02*
X455623Y747261D01*
X452727Y749404D02*
X447400Y749404D01*
X448986Y751547D02*
X449831Y751547D01*
D12*
X433644Y789631D02*
X429612Y792615D01*
X437056Y802675D01*
X441088Y799691D01*
X433644Y789631D01*
X435228Y791772D02*
X430751Y791772D01*
X430572Y793913D02*
X436813Y793913D01*
X438397Y796054D02*
X432157Y796054D01*
X433741Y798195D02*
X439981Y798195D01*
X440216Y800336D02*
X435325Y800336D01*
X436909Y802477D02*
X437324Y802477D01*
X437651Y786667D02*
X441683Y783683D01*
X437651Y786667D02*
X445095Y796727D01*
X449127Y793743D01*
X441683Y783683D01*
X443267Y785824D02*
X438790Y785824D01*
X438611Y787965D02*
X444852Y787965D01*
X446436Y790106D02*
X440196Y790106D01*
X441780Y792247D02*
X448020Y792247D01*
X448255Y794388D02*
X443364Y794388D01*
X444948Y796529D02*
X445363Y796529D01*
X445690Y780718D02*
X449722Y777734D01*
X445690Y780718D02*
X453134Y790778D01*
X457166Y787794D01*
X449722Y777734D01*
X451306Y779875D02*
X446829Y779875D01*
X446650Y782016D02*
X452891Y782016D01*
X454475Y784157D02*
X448235Y784157D01*
X449819Y786298D02*
X456059Y786298D01*
X456294Y788439D02*
X451403Y788439D01*
X452987Y790580D02*
X453402Y790580D01*
X453728Y774770D02*
X457760Y771786D01*
X453728Y774770D02*
X461172Y784830D01*
X465204Y781846D01*
X457760Y771786D01*
X459344Y773927D02*
X454867Y773927D01*
X454688Y776068D02*
X460929Y776068D01*
X462513Y778209D02*
X456273Y778209D01*
X457857Y780350D02*
X464097Y780350D01*
X464332Y782491D02*
X459441Y782491D01*
X461025Y784632D02*
X461440Y784632D01*
D11*
X510491Y935855D02*
X519458Y942251D01*
X510491Y935855D02*
X499450Y951333D01*
X508417Y957729D01*
X519458Y942251D01*
X513495Y937998D02*
X508962Y937998D01*
X507434Y940141D02*
X516500Y940141D01*
X519434Y942284D02*
X505905Y942284D01*
X504376Y944427D02*
X517906Y944427D01*
X516377Y946570D02*
X502848Y946570D01*
X501319Y948713D02*
X514848Y948713D01*
X513320Y950856D02*
X499790Y950856D01*
X501786Y952999D02*
X511791Y952999D01*
X510262Y955142D02*
X504790Y955142D01*
X507795Y957285D02*
X508734Y957285D01*
X556082Y968374D02*
X565049Y974770D01*
X556082Y968374D02*
X545041Y983852D01*
X554008Y990248D01*
X565049Y974770D01*
X559086Y970517D02*
X554553Y970517D01*
X553025Y972660D02*
X562091Y972660D01*
X565025Y974803D02*
X551496Y974803D01*
X549967Y976946D02*
X563497Y976946D01*
X561968Y979089D02*
X548439Y979089D01*
X546910Y981232D02*
X560439Y981232D01*
X558911Y983375D02*
X545381Y983375D01*
X547377Y985518D02*
X557382Y985518D01*
X555853Y987661D02*
X550381Y987661D01*
X553386Y989804D02*
X554325Y989804D01*
D12*
X504372Y980622D02*
X500289Y977709D01*
X493022Y987898D01*
X497105Y990811D01*
X504372Y980622D01*
X503290Y979850D02*
X498762Y979850D01*
X497235Y981991D02*
X503396Y981991D01*
X501869Y984132D02*
X495708Y984132D01*
X494181Y986273D02*
X500342Y986273D01*
X498815Y988414D02*
X493745Y988414D01*
X496746Y990555D02*
X497288Y990555D01*
X508430Y983516D02*
X512513Y986429D01*
X508430Y983516D02*
X501163Y993705D01*
X505246Y996618D01*
X512513Y986429D01*
X511431Y985657D02*
X506903Y985657D01*
X505376Y987798D02*
X511537Y987798D01*
X510010Y989939D02*
X503849Y989939D01*
X502322Y992080D02*
X508483Y992080D01*
X506956Y994221D02*
X501886Y994221D01*
X504887Y996362D02*
X505429Y996362D01*
X516571Y989323D02*
X520654Y992236D01*
X516571Y989323D02*
X509304Y999512D01*
X513387Y1002425D01*
X520654Y992236D01*
X519572Y991464D02*
X515044Y991464D01*
X513517Y993605D02*
X519678Y993605D01*
X518151Y995746D02*
X511990Y995746D01*
X510463Y997887D02*
X516624Y997887D01*
X515097Y1000028D02*
X510027Y1000028D01*
X513028Y1002169D02*
X513570Y1002169D01*
X524712Y995130D02*
X528795Y998043D01*
X524712Y995130D02*
X517445Y1005319D01*
X521528Y1008232D01*
X528795Y998043D01*
X527713Y997271D02*
X523185Y997271D01*
X521658Y999412D02*
X527819Y999412D01*
X526292Y1001553D02*
X520131Y1001553D01*
X518604Y1003694D02*
X524765Y1003694D01*
X523238Y1005835D02*
X518168Y1005835D01*
X521169Y1007976D02*
X521711Y1007976D01*
D11*
X204056Y1039227D02*
X193042Y1039227D01*
X204056Y1039227D02*
X204056Y1020213D01*
X193042Y1020213D01*
X193042Y1039227D01*
X193042Y1022356D02*
X204056Y1022356D01*
X204056Y1024499D02*
X193042Y1024499D01*
X193042Y1026642D02*
X204056Y1026642D01*
X204056Y1028785D02*
X193042Y1028785D01*
X193042Y1030928D02*
X204056Y1030928D01*
X204056Y1033071D02*
X193042Y1033071D01*
X193042Y1035214D02*
X204056Y1035214D01*
X204056Y1037357D02*
X193042Y1037357D01*
X148056Y1039227D02*
X137042Y1039227D01*
X148056Y1039227D02*
X148056Y1020213D01*
X137042Y1020213D01*
X137042Y1039227D01*
X137042Y1022356D02*
X148056Y1022356D01*
X148056Y1024499D02*
X137042Y1024499D01*
X137042Y1026642D02*
X148056Y1026642D01*
X148056Y1028785D02*
X137042Y1028785D01*
X137042Y1030928D02*
X148056Y1030928D01*
X148056Y1033071D02*
X137042Y1033071D01*
X137042Y1035214D02*
X148056Y1035214D01*
X148056Y1037357D02*
X137042Y1037357D01*
D12*
X183041Y999228D02*
X188057Y999228D01*
X188057Y986712D01*
X183041Y986712D01*
X183041Y999228D01*
X183041Y988853D02*
X188057Y988853D01*
X188057Y990994D02*
X183041Y990994D01*
X183041Y993135D02*
X188057Y993135D01*
X188057Y995276D02*
X183041Y995276D01*
X183041Y997417D02*
X188057Y997417D01*
X178057Y999228D02*
X173041Y999228D01*
X178057Y999228D02*
X178057Y986712D01*
X173041Y986712D01*
X173041Y999228D01*
X173041Y988853D02*
X178057Y988853D01*
X178057Y990994D02*
X173041Y990994D01*
X173041Y993135D02*
X178057Y993135D01*
X178057Y995276D02*
X173041Y995276D01*
X173041Y997417D02*
X178057Y997417D01*
X168057Y999228D02*
X163041Y999228D01*
X168057Y999228D02*
X168057Y986712D01*
X163041Y986712D01*
X163041Y999228D01*
X163041Y988853D02*
X168057Y988853D01*
X168057Y990994D02*
X163041Y990994D01*
X163041Y993135D02*
X168057Y993135D01*
X168057Y995276D02*
X163041Y995276D01*
X163041Y997417D02*
X168057Y997417D01*
X158057Y999228D02*
X153041Y999228D01*
X158057Y999228D02*
X158057Y986712D01*
X153041Y986712D01*
X153041Y999228D01*
X153041Y988853D02*
X158057Y988853D01*
X158057Y990994D02*
X153041Y990994D01*
X153041Y993135D02*
X158057Y993135D01*
X158057Y995276D02*
X153041Y995276D01*
X153041Y997417D02*
X158057Y997417D01*
D13*
X323144Y1004717D02*
X323144Y1011705D01*
X330132Y1011705D01*
X330132Y1004717D01*
X323144Y1004717D01*
X323144Y1008786D02*
X330132Y1008786D01*
X305604Y1011705D02*
X305604Y1004717D01*
X305604Y1011705D02*
X312592Y1011705D01*
X312592Y1004717D01*
X305604Y1004717D01*
X305604Y1008786D02*
X312592Y1008786D01*
D14*
X314376Y988463D02*
X304360Y988463D01*
X304360Y997479D01*
X314376Y997479D01*
X314376Y988463D01*
X314376Y990604D02*
X304360Y990604D01*
X304360Y992745D02*
X314376Y992745D01*
X314376Y994886D02*
X304360Y994886D01*
X304360Y997027D02*
X314376Y997027D01*
X321360Y988463D02*
X331376Y988463D01*
X321360Y988463D02*
X321360Y997479D01*
X331376Y997479D01*
X331376Y988463D01*
X331376Y990604D02*
X321360Y990604D01*
X321360Y992745D02*
X331376Y992745D01*
X331376Y994886D02*
X321360Y994886D01*
X321360Y997027D02*
X331376Y997027D01*
D15*
X164198Y688171D03*
X338188Y1241891D03*
D11*
X386515Y1105989D02*
X389808Y1095480D01*
X371665Y1089795D01*
X368372Y1100304D01*
X386515Y1105989D01*
X378504Y1091938D02*
X370993Y1091938D01*
X370322Y1094081D02*
X385343Y1094081D01*
X389575Y1096224D02*
X369650Y1096224D01*
X368979Y1098367D02*
X388903Y1098367D01*
X388232Y1100510D02*
X369029Y1100510D01*
X375869Y1102653D02*
X387560Y1102653D01*
X386889Y1104796D02*
X382708Y1104796D01*
X373062Y1148917D02*
X369769Y1159426D01*
X373062Y1148917D02*
X354919Y1143232D01*
X351626Y1153741D01*
X369769Y1159426D01*
X361758Y1145375D02*
X354247Y1145375D01*
X353576Y1147518D02*
X368597Y1147518D01*
X372829Y1149661D02*
X352904Y1149661D01*
X352233Y1151804D02*
X372157Y1151804D01*
X371486Y1153947D02*
X352283Y1153947D01*
X359123Y1156090D02*
X370814Y1156090D01*
X370143Y1158233D02*
X365962Y1158233D01*
D12*
X345355Y1103571D02*
X346855Y1098786D01*
X334913Y1095043D01*
X333413Y1099828D01*
X345355Y1103571D01*
X341744Y1097184D02*
X334242Y1097184D01*
X333571Y1099325D02*
X346686Y1099325D01*
X346015Y1101466D02*
X338639Y1101466D01*
X343865Y1108328D02*
X342365Y1113113D01*
X343865Y1108328D02*
X331923Y1104585D01*
X330423Y1109370D01*
X342365Y1113113D01*
X338754Y1106726D02*
X331252Y1106726D01*
X330581Y1108867D02*
X343696Y1108867D01*
X343025Y1111008D02*
X335649Y1111008D01*
X340874Y1117871D02*
X339374Y1122656D01*
X340874Y1117871D02*
X328932Y1114128D01*
X327432Y1118913D01*
X339374Y1122656D01*
X335763Y1116269D02*
X328261Y1116269D01*
X327590Y1118410D02*
X340705Y1118410D01*
X340034Y1120551D02*
X332658Y1120551D01*
X337884Y1127413D02*
X336384Y1132198D01*
X337884Y1127413D02*
X325942Y1123670D01*
X324442Y1128455D01*
X336384Y1132198D01*
X332773Y1125811D02*
X325271Y1125811D01*
X324600Y1127952D02*
X337715Y1127952D01*
X337044Y1130093D02*
X329668Y1130093D01*
D11*
X945771Y833972D02*
X942186Y823559D01*
X945771Y833972D02*
X963748Y827781D01*
X960163Y817368D01*
X942186Y823559D01*
X953940Y819511D02*
X960901Y819511D01*
X961639Y821654D02*
X947718Y821654D01*
X942268Y823797D02*
X962376Y823797D01*
X963114Y825940D02*
X943006Y825940D01*
X943744Y828083D02*
X962871Y828083D01*
X956648Y830226D02*
X944481Y830226D01*
X945219Y832369D02*
X950426Y832369D01*
X927539Y781023D02*
X923954Y770610D01*
X927539Y781023D02*
X945516Y774832D01*
X941931Y764419D01*
X923954Y770610D01*
X935708Y766562D02*
X942669Y766562D01*
X943407Y768705D02*
X929486Y768705D01*
X924036Y770848D02*
X944144Y770848D01*
X944882Y772991D02*
X924774Y772991D01*
X925512Y775134D02*
X944639Y775134D01*
X938416Y777277D02*
X926249Y777277D01*
X926987Y779420D02*
X932194Y779420D01*
D12*
X976749Y801080D02*
X978382Y805821D01*
X990215Y801746D01*
X988582Y797005D01*
X976749Y801080D01*
X982365Y799146D02*
X989319Y799146D01*
X990057Y801287D02*
X976820Y801287D01*
X977558Y803428D02*
X985331Y803428D01*
X979114Y805569D02*
X978295Y805569D01*
X975126Y796366D02*
X973493Y791625D01*
X975126Y796366D02*
X986959Y792291D01*
X985326Y787550D01*
X973493Y791625D01*
X979109Y789691D02*
X986063Y789691D01*
X986801Y791832D02*
X973564Y791832D01*
X974302Y793973D02*
X982075Y793973D01*
X975858Y796114D02*
X975039Y796114D01*
X971871Y786911D02*
X970238Y782170D01*
X971871Y786911D02*
X983704Y782836D01*
X982071Y778095D01*
X970238Y782170D01*
X975854Y780236D02*
X982808Y780236D01*
X983546Y782377D02*
X970309Y782377D01*
X971047Y784518D02*
X978820Y784518D01*
X972603Y786659D02*
X971784Y786659D01*
X968615Y777456D02*
X966982Y772715D01*
X968615Y777456D02*
X980448Y773381D01*
X978815Y768640D01*
X966982Y772715D01*
X972598Y770781D02*
X979552Y770781D01*
X980290Y772922D02*
X967053Y772922D01*
X967791Y775063D02*
X975564Y775063D01*
X969347Y777204D02*
X968528Y777204D01*
D11*
X1140050Y769978D02*
X1148903Y763427D01*
X1140050Y769978D02*
X1151359Y785261D01*
X1160212Y778710D01*
X1148903Y763427D01*
X1150489Y765570D02*
X1146007Y765570D01*
X1143111Y767713D02*
X1152075Y767713D01*
X1153660Y769856D02*
X1140215Y769856D01*
X1141545Y771999D02*
X1155246Y771999D01*
X1156832Y774142D02*
X1143131Y774142D01*
X1144717Y776285D02*
X1158418Y776285D01*
X1160003Y778428D02*
X1146303Y778428D01*
X1147889Y780571D02*
X1157697Y780571D01*
X1154801Y782714D02*
X1149474Y782714D01*
X1151060Y784857D02*
X1151905Y784857D01*
X1185066Y736668D02*
X1193919Y730117D01*
X1185066Y736668D02*
X1196375Y751951D01*
X1205228Y745400D01*
X1193919Y730117D01*
X1195505Y732260D02*
X1191023Y732260D01*
X1188127Y734403D02*
X1197091Y734403D01*
X1198676Y736546D02*
X1185231Y736546D01*
X1186561Y738689D02*
X1200262Y738689D01*
X1201848Y740832D02*
X1188147Y740832D01*
X1189733Y742975D02*
X1203434Y742975D01*
X1205019Y745118D02*
X1191319Y745118D01*
X1192905Y747261D02*
X1202713Y747261D01*
X1199817Y749404D02*
X1194490Y749404D01*
X1196076Y751547D02*
X1196921Y751547D01*
D12*
X1180735Y789631D02*
X1176703Y792615D01*
X1184147Y802675D01*
X1188179Y799691D01*
X1180735Y789631D01*
X1182319Y791772D02*
X1177842Y791772D01*
X1177663Y793913D02*
X1183904Y793913D01*
X1185488Y796054D02*
X1179248Y796054D01*
X1180832Y798195D02*
X1187072Y798195D01*
X1187307Y800336D02*
X1182416Y800336D01*
X1184000Y802477D02*
X1184415Y802477D01*
X1184741Y786667D02*
X1188773Y783683D01*
X1184741Y786667D02*
X1192185Y796727D01*
X1196217Y793743D01*
X1188773Y783683D01*
X1190357Y785824D02*
X1185880Y785824D01*
X1185701Y787965D02*
X1191942Y787965D01*
X1193526Y790106D02*
X1187286Y790106D01*
X1188870Y792247D02*
X1195110Y792247D01*
X1195345Y794388D02*
X1190454Y794388D01*
X1192038Y796529D02*
X1192453Y796529D01*
X1192780Y780718D02*
X1196812Y777734D01*
X1192780Y780718D02*
X1200224Y790778D01*
X1204256Y787794D01*
X1196812Y777734D01*
X1198396Y779875D02*
X1193919Y779875D01*
X1193740Y782016D02*
X1199981Y782016D01*
X1201565Y784157D02*
X1195325Y784157D01*
X1196909Y786298D02*
X1203149Y786298D01*
X1203384Y788439D02*
X1198493Y788439D01*
X1200077Y790580D02*
X1200492Y790580D01*
X1200818Y774770D02*
X1204850Y771786D01*
X1200818Y774770D02*
X1208262Y784830D01*
X1212294Y781846D01*
X1204850Y771786D01*
X1206434Y773927D02*
X1201957Y773927D01*
X1201778Y776068D02*
X1208019Y776068D01*
X1209603Y778209D02*
X1203363Y778209D01*
X1204947Y780350D02*
X1211187Y780350D01*
X1211422Y782491D02*
X1206531Y782491D01*
X1208115Y784632D02*
X1208530Y784632D01*
D11*
X1257581Y935855D02*
X1266548Y942251D01*
X1257581Y935855D02*
X1246540Y951333D01*
X1255507Y957729D01*
X1266548Y942251D01*
X1260585Y937998D02*
X1256052Y937998D01*
X1254524Y940141D02*
X1263590Y940141D01*
X1266524Y942284D02*
X1252995Y942284D01*
X1251466Y944427D02*
X1264996Y944427D01*
X1263467Y946570D02*
X1249938Y946570D01*
X1248409Y948713D02*
X1261938Y948713D01*
X1260410Y950856D02*
X1246880Y950856D01*
X1248876Y952999D02*
X1258881Y952999D01*
X1257352Y955142D02*
X1251880Y955142D01*
X1254885Y957285D02*
X1255824Y957285D01*
X1303172Y968374D02*
X1312139Y974770D01*
X1303172Y968374D02*
X1292131Y983852D01*
X1301098Y990248D01*
X1312139Y974770D01*
X1306176Y970517D02*
X1301643Y970517D01*
X1300115Y972660D02*
X1309181Y972660D01*
X1312115Y974803D02*
X1298586Y974803D01*
X1297057Y976946D02*
X1310587Y976946D01*
X1309058Y979089D02*
X1295529Y979089D01*
X1294000Y981232D02*
X1307529Y981232D01*
X1306001Y983375D02*
X1292471Y983375D01*
X1294467Y985518D02*
X1304472Y985518D01*
X1302943Y987661D02*
X1297471Y987661D01*
X1300476Y989804D02*
X1301415Y989804D01*
D12*
X1251462Y980622D02*
X1247379Y977709D01*
X1240112Y987898D01*
X1244195Y990811D01*
X1251462Y980622D01*
X1250380Y979850D02*
X1245852Y979850D01*
X1244325Y981991D02*
X1250486Y981991D01*
X1248959Y984132D02*
X1242798Y984132D01*
X1241271Y986273D02*
X1247432Y986273D01*
X1245905Y988414D02*
X1240835Y988414D01*
X1243836Y990555D02*
X1244378Y990555D01*
X1255520Y983516D02*
X1259603Y986429D01*
X1255520Y983516D02*
X1248253Y993705D01*
X1252336Y996618D01*
X1259603Y986429D01*
X1258521Y985657D02*
X1253993Y985657D01*
X1252466Y987798D02*
X1258627Y987798D01*
X1257100Y989939D02*
X1250939Y989939D01*
X1249412Y992080D02*
X1255573Y992080D01*
X1254046Y994221D02*
X1248976Y994221D01*
X1251977Y996362D02*
X1252519Y996362D01*
X1263661Y989323D02*
X1267744Y992236D01*
X1263661Y989323D02*
X1256394Y999512D01*
X1260477Y1002425D01*
X1267744Y992236D01*
X1266662Y991464D02*
X1262134Y991464D01*
X1260607Y993605D02*
X1266768Y993605D01*
X1265241Y995746D02*
X1259080Y995746D01*
X1257553Y997887D02*
X1263714Y997887D01*
X1262187Y1000028D02*
X1257117Y1000028D01*
X1260118Y1002169D02*
X1260660Y1002169D01*
X1271802Y995130D02*
X1275885Y998043D01*
X1271802Y995130D02*
X1264535Y1005319D01*
X1268618Y1008232D01*
X1275885Y998043D01*
X1274803Y997271D02*
X1270275Y997271D01*
X1268748Y999412D02*
X1274909Y999412D01*
X1273382Y1001553D02*
X1267221Y1001553D01*
X1265694Y1003694D02*
X1271855Y1003694D01*
X1270328Y1005835D02*
X1265258Y1005835D01*
X1268259Y1007976D02*
X1268801Y1007976D01*
D11*
X951146Y1039227D02*
X940132Y1039227D01*
X951146Y1039227D02*
X951146Y1020213D01*
X940132Y1020213D01*
X940132Y1039227D01*
X940132Y1022356D02*
X951146Y1022356D01*
X951146Y1024499D02*
X940132Y1024499D01*
X940132Y1026642D02*
X951146Y1026642D01*
X951146Y1028785D02*
X940132Y1028785D01*
X940132Y1030928D02*
X951146Y1030928D01*
X951146Y1033071D02*
X940132Y1033071D01*
X940132Y1035214D02*
X951146Y1035214D01*
X951146Y1037357D02*
X940132Y1037357D01*
X895146Y1039227D02*
X884132Y1039227D01*
X895146Y1039227D02*
X895146Y1020213D01*
X884132Y1020213D01*
X884132Y1039227D01*
X884132Y1022356D02*
X895146Y1022356D01*
X895146Y1024499D02*
X884132Y1024499D01*
X884132Y1026642D02*
X895146Y1026642D01*
X895146Y1028785D02*
X884132Y1028785D01*
X884132Y1030928D02*
X895146Y1030928D01*
X895146Y1033071D02*
X884132Y1033071D01*
X884132Y1035214D02*
X895146Y1035214D01*
X895146Y1037357D02*
X884132Y1037357D01*
D12*
X930131Y999228D02*
X935147Y999228D01*
X935147Y986712D01*
X930131Y986712D01*
X930131Y999228D01*
X930131Y988853D02*
X935147Y988853D01*
X935147Y990994D02*
X930131Y990994D01*
X930131Y993135D02*
X935147Y993135D01*
X935147Y995276D02*
X930131Y995276D01*
X930131Y997417D02*
X935147Y997417D01*
X925147Y999228D02*
X920131Y999228D01*
X925147Y999228D02*
X925147Y986712D01*
X920131Y986712D01*
X920131Y999228D01*
X920131Y988853D02*
X925147Y988853D01*
X925147Y990994D02*
X920131Y990994D01*
X920131Y993135D02*
X925147Y993135D01*
X925147Y995276D02*
X920131Y995276D01*
X920131Y997417D02*
X925147Y997417D01*
X915147Y999228D02*
X910131Y999228D01*
X915147Y999228D02*
X915147Y986712D01*
X910131Y986712D01*
X910131Y999228D01*
X910131Y988853D02*
X915147Y988853D01*
X915147Y990994D02*
X910131Y990994D01*
X910131Y993135D02*
X915147Y993135D01*
X915147Y995276D02*
X910131Y995276D01*
X910131Y997417D02*
X915147Y997417D01*
X905147Y999228D02*
X900131Y999228D01*
X905147Y999228D02*
X905147Y986712D01*
X900131Y986712D01*
X900131Y999228D01*
X900131Y988853D02*
X905147Y988853D01*
X905147Y990994D02*
X900131Y990994D01*
X900131Y993135D02*
X905147Y993135D01*
X905147Y995276D02*
X900131Y995276D01*
X900131Y997417D02*
X905147Y997417D01*
D13*
X1070235Y1004717D02*
X1070235Y1011705D01*
X1077223Y1011705D01*
X1077223Y1004717D01*
X1070235Y1004717D01*
X1070235Y1008786D02*
X1077223Y1008786D01*
X1052695Y1011705D02*
X1052695Y1004717D01*
X1052695Y1011705D02*
X1059683Y1011705D01*
X1059683Y1004717D01*
X1052695Y1004717D01*
X1052695Y1008786D02*
X1059683Y1008786D01*
D14*
X1061467Y988463D02*
X1051451Y988463D01*
X1051451Y997479D01*
X1061467Y997479D01*
X1061467Y988463D01*
X1061467Y990604D02*
X1051451Y990604D01*
X1051451Y992745D02*
X1061467Y992745D01*
X1061467Y994886D02*
X1051451Y994886D01*
X1051451Y997027D02*
X1061467Y997027D01*
X1068451Y988463D02*
X1078467Y988463D01*
X1068451Y988463D02*
X1068451Y997479D01*
X1078467Y997479D01*
X1078467Y988463D01*
X1078467Y990604D02*
X1068451Y990604D01*
X1068451Y992745D02*
X1078467Y992745D01*
X1078467Y994886D02*
X1068451Y994886D01*
X1068451Y997027D02*
X1078467Y997027D01*
D15*
X911289Y688171D03*
X1085279Y1241891D03*
D11*
X1133605Y1105989D02*
X1136898Y1095480D01*
X1118755Y1089795D01*
X1115462Y1100304D01*
X1133605Y1105989D01*
X1125594Y1091938D02*
X1118083Y1091938D01*
X1117412Y1094081D02*
X1132433Y1094081D01*
X1136665Y1096224D02*
X1116740Y1096224D01*
X1116069Y1098367D02*
X1135993Y1098367D01*
X1135322Y1100510D02*
X1116119Y1100510D01*
X1122959Y1102653D02*
X1134650Y1102653D01*
X1133979Y1104796D02*
X1129798Y1104796D01*
X1120152Y1148917D02*
X1116859Y1159426D01*
X1120152Y1148917D02*
X1102009Y1143232D01*
X1098716Y1153741D01*
X1116859Y1159426D01*
X1108848Y1145375D02*
X1101337Y1145375D01*
X1100666Y1147518D02*
X1115687Y1147518D01*
X1119919Y1149661D02*
X1099994Y1149661D01*
X1099323Y1151804D02*
X1119247Y1151804D01*
X1118576Y1153947D02*
X1099373Y1153947D01*
X1106213Y1156090D02*
X1117904Y1156090D01*
X1117233Y1158233D02*
X1113052Y1158233D01*
D12*
X1092445Y1103571D02*
X1093945Y1098786D01*
X1082003Y1095043D01*
X1080503Y1099828D01*
X1092445Y1103571D01*
X1088834Y1097184D02*
X1081332Y1097184D01*
X1080661Y1099325D02*
X1093776Y1099325D01*
X1093105Y1101466D02*
X1085729Y1101466D01*
X1090955Y1108328D02*
X1089455Y1113113D01*
X1090955Y1108328D02*
X1079013Y1104585D01*
X1077513Y1109370D01*
X1089455Y1113113D01*
X1085844Y1106726D02*
X1078342Y1106726D01*
X1077671Y1108867D02*
X1090786Y1108867D01*
X1090115Y1111008D02*
X1082739Y1111008D01*
X1087964Y1117871D02*
X1086464Y1122656D01*
X1087964Y1117871D02*
X1076022Y1114128D01*
X1074522Y1118913D01*
X1086464Y1122656D01*
X1082853Y1116269D02*
X1075351Y1116269D01*
X1074680Y1118410D02*
X1087795Y1118410D01*
X1087124Y1120551D02*
X1079748Y1120551D01*
X1084974Y1127413D02*
X1083474Y1132198D01*
X1084974Y1127413D02*
X1073032Y1123670D01*
X1071532Y1128455D01*
X1083474Y1132198D01*
X1079863Y1125811D02*
X1072361Y1125811D01*
X1071690Y1127952D02*
X1084805Y1127952D01*
X1084134Y1130093D02*
X1076758Y1130093D01*
D11*
X1692886Y833972D02*
X1689301Y823559D01*
X1692886Y833972D02*
X1710863Y827781D01*
X1707278Y817368D01*
X1689301Y823559D01*
X1701055Y819511D02*
X1708016Y819511D01*
X1708754Y821654D02*
X1694833Y821654D01*
X1689383Y823797D02*
X1709491Y823797D01*
X1710229Y825940D02*
X1690121Y825940D01*
X1690859Y828083D02*
X1709986Y828083D01*
X1703763Y830226D02*
X1691596Y830226D01*
X1692334Y832369D02*
X1697541Y832369D01*
X1674655Y781023D02*
X1671070Y770610D01*
X1674655Y781023D02*
X1692632Y774832D01*
X1689047Y764419D01*
X1671070Y770610D01*
X1682824Y766562D02*
X1689785Y766562D01*
X1690523Y768705D02*
X1676602Y768705D01*
X1671152Y770848D02*
X1691260Y770848D01*
X1691998Y772991D02*
X1671890Y772991D01*
X1672628Y775134D02*
X1691755Y775134D01*
X1685532Y777277D02*
X1673365Y777277D01*
X1674103Y779420D02*
X1679310Y779420D01*
D12*
X1723865Y801080D02*
X1725498Y805821D01*
X1737331Y801746D01*
X1735698Y797005D01*
X1723865Y801080D01*
X1729481Y799146D02*
X1736435Y799146D01*
X1737173Y801287D02*
X1723936Y801287D01*
X1724674Y803428D02*
X1732447Y803428D01*
X1726230Y805569D02*
X1725411Y805569D01*
X1722242Y796366D02*
X1720609Y791625D01*
X1722242Y796366D02*
X1734075Y792291D01*
X1732442Y787550D01*
X1720609Y791625D01*
X1726225Y789691D02*
X1733179Y789691D01*
X1733917Y791832D02*
X1720680Y791832D01*
X1721418Y793973D02*
X1729191Y793973D01*
X1722974Y796114D02*
X1722155Y796114D01*
X1718986Y786911D02*
X1717353Y782170D01*
X1718986Y786911D02*
X1730819Y782836D01*
X1729186Y778095D01*
X1717353Y782170D01*
X1722969Y780236D02*
X1729923Y780236D01*
X1730661Y782377D02*
X1717424Y782377D01*
X1718162Y784518D02*
X1725935Y784518D01*
X1719718Y786659D02*
X1718899Y786659D01*
X1715731Y777456D02*
X1714098Y772715D01*
X1715731Y777456D02*
X1727564Y773381D01*
X1725931Y768640D01*
X1714098Y772715D01*
X1719714Y770781D02*
X1726668Y770781D01*
X1727406Y772922D02*
X1714169Y772922D01*
X1714907Y775063D02*
X1722680Y775063D01*
X1716463Y777204D02*
X1715644Y777204D01*
D11*
X1887165Y769978D02*
X1896018Y763427D01*
X1887165Y769978D02*
X1898474Y785261D01*
X1907327Y778710D01*
X1896018Y763427D01*
X1897604Y765570D02*
X1893122Y765570D01*
X1890226Y767713D02*
X1899190Y767713D01*
X1900775Y769856D02*
X1887330Y769856D01*
X1888660Y771999D02*
X1902361Y771999D01*
X1903947Y774142D02*
X1890246Y774142D01*
X1891832Y776285D02*
X1905533Y776285D01*
X1907118Y778428D02*
X1893418Y778428D01*
X1895004Y780571D02*
X1904812Y780571D01*
X1901916Y782714D02*
X1896589Y782714D01*
X1898175Y784857D02*
X1899020Y784857D01*
X1932181Y736668D02*
X1941034Y730117D01*
X1932181Y736668D02*
X1943490Y751951D01*
X1952343Y745400D01*
X1941034Y730117D01*
X1942620Y732260D02*
X1938138Y732260D01*
X1935242Y734403D02*
X1944206Y734403D01*
X1945791Y736546D02*
X1932346Y736546D01*
X1933676Y738689D02*
X1947377Y738689D01*
X1948963Y740832D02*
X1935262Y740832D01*
X1936848Y742975D02*
X1950549Y742975D01*
X1952134Y745118D02*
X1938434Y745118D01*
X1940020Y747261D02*
X1949828Y747261D01*
X1946932Y749404D02*
X1941605Y749404D01*
X1943191Y751547D02*
X1944036Y751547D01*
D12*
X1927850Y789631D02*
X1923818Y792615D01*
X1931262Y802675D01*
X1935294Y799691D01*
X1927850Y789631D01*
X1929434Y791772D02*
X1924957Y791772D01*
X1924778Y793913D02*
X1931019Y793913D01*
X1932603Y796054D02*
X1926363Y796054D01*
X1927947Y798195D02*
X1934187Y798195D01*
X1934422Y800336D02*
X1929531Y800336D01*
X1931115Y802477D02*
X1931530Y802477D01*
X1931857Y786667D02*
X1935889Y783683D01*
X1931857Y786667D02*
X1939301Y796727D01*
X1943333Y793743D01*
X1935889Y783683D01*
X1937473Y785824D02*
X1932996Y785824D01*
X1932817Y787965D02*
X1939058Y787965D01*
X1940642Y790106D02*
X1934402Y790106D01*
X1935986Y792247D02*
X1942226Y792247D01*
X1942461Y794388D02*
X1937570Y794388D01*
X1939154Y796529D02*
X1939569Y796529D01*
X1939895Y780718D02*
X1943927Y777734D01*
X1939895Y780718D02*
X1947339Y790778D01*
X1951371Y787794D01*
X1943927Y777734D01*
X1945511Y779875D02*
X1941034Y779875D01*
X1940855Y782016D02*
X1947096Y782016D01*
X1948680Y784157D02*
X1942440Y784157D01*
X1944024Y786298D02*
X1950264Y786298D01*
X1950499Y788439D02*
X1945608Y788439D01*
X1947192Y790580D02*
X1947607Y790580D01*
X1947934Y774770D02*
X1951966Y771786D01*
X1947934Y774770D02*
X1955378Y784830D01*
X1959410Y781846D01*
X1951966Y771786D01*
X1953550Y773927D02*
X1949073Y773927D01*
X1948894Y776068D02*
X1955135Y776068D01*
X1956719Y778209D02*
X1950479Y778209D01*
X1952063Y780350D02*
X1958303Y780350D01*
X1958538Y782491D02*
X1953647Y782491D01*
X1955231Y784632D02*
X1955646Y784632D01*
D11*
X2004697Y935855D02*
X2013664Y942251D01*
X2004697Y935855D02*
X1993656Y951333D01*
X2002623Y957729D01*
X2013664Y942251D01*
X2007701Y937998D02*
X2003168Y937998D01*
X2001640Y940141D02*
X2010706Y940141D01*
X2013640Y942284D02*
X2000111Y942284D01*
X1998582Y944427D02*
X2012112Y944427D01*
X2010583Y946570D02*
X1997054Y946570D01*
X1995525Y948713D02*
X2009054Y948713D01*
X2007526Y950856D02*
X1993996Y950856D01*
X1995992Y952999D02*
X2005997Y952999D01*
X2004468Y955142D02*
X1998996Y955142D01*
X2002001Y957285D02*
X2002940Y957285D01*
X2050287Y968374D02*
X2059254Y974770D01*
X2050287Y968374D02*
X2039246Y983852D01*
X2048213Y990248D01*
X2059254Y974770D01*
X2053291Y970517D02*
X2048758Y970517D01*
X2047230Y972660D02*
X2056296Y972660D01*
X2059230Y974803D02*
X2045701Y974803D01*
X2044172Y976946D02*
X2057702Y976946D01*
X2056173Y979089D02*
X2042644Y979089D01*
X2041115Y981232D02*
X2054644Y981232D01*
X2053116Y983375D02*
X2039586Y983375D01*
X2041582Y985518D02*
X2051587Y985518D01*
X2050058Y987661D02*
X2044586Y987661D01*
X2047591Y989804D02*
X2048530Y989804D01*
D12*
X1998578Y980622D02*
X1994495Y977709D01*
X1987228Y987898D01*
X1991311Y990811D01*
X1998578Y980622D01*
X1997496Y979850D02*
X1992968Y979850D01*
X1991441Y981991D02*
X1997602Y981991D01*
X1996075Y984132D02*
X1989914Y984132D01*
X1988387Y986273D02*
X1994548Y986273D01*
X1993021Y988414D02*
X1987951Y988414D01*
X1990952Y990555D02*
X1991494Y990555D01*
X2002636Y983516D02*
X2006719Y986429D01*
X2002636Y983516D02*
X1995369Y993705D01*
X1999452Y996618D01*
X2006719Y986429D01*
X2005637Y985657D02*
X2001109Y985657D01*
X1999582Y987798D02*
X2005743Y987798D01*
X2004216Y989939D02*
X1998055Y989939D01*
X1996528Y992080D02*
X2002689Y992080D01*
X2001162Y994221D02*
X1996092Y994221D01*
X1999093Y996362D02*
X1999635Y996362D01*
X2010777Y989323D02*
X2014860Y992236D01*
X2010777Y989323D02*
X2003510Y999512D01*
X2007593Y1002425D01*
X2014860Y992236D01*
X2013778Y991464D02*
X2009250Y991464D01*
X2007723Y993605D02*
X2013884Y993605D01*
X2012357Y995746D02*
X2006196Y995746D01*
X2004669Y997887D02*
X2010830Y997887D01*
X2009303Y1000028D02*
X2004233Y1000028D01*
X2007234Y1002169D02*
X2007776Y1002169D01*
X2018918Y995130D02*
X2023001Y998043D01*
X2018918Y995130D02*
X2011651Y1005319D01*
X2015734Y1008232D01*
X2023001Y998043D01*
X2021919Y997271D02*
X2017391Y997271D01*
X2015864Y999412D02*
X2022025Y999412D01*
X2020498Y1001553D02*
X2014337Y1001553D01*
X2012810Y1003694D02*
X2018971Y1003694D01*
X2017444Y1005835D02*
X2012374Y1005835D01*
X2015375Y1007976D02*
X2015917Y1007976D01*
D11*
X1698261Y1039227D02*
X1687247Y1039227D01*
X1698261Y1039227D02*
X1698261Y1020213D01*
X1687247Y1020213D01*
X1687247Y1039227D01*
X1687247Y1022356D02*
X1698261Y1022356D01*
X1698261Y1024499D02*
X1687247Y1024499D01*
X1687247Y1026642D02*
X1698261Y1026642D01*
X1698261Y1028785D02*
X1687247Y1028785D01*
X1687247Y1030928D02*
X1698261Y1030928D01*
X1698261Y1033071D02*
X1687247Y1033071D01*
X1687247Y1035214D02*
X1698261Y1035214D01*
X1698261Y1037357D02*
X1687247Y1037357D01*
X1642261Y1039227D02*
X1631247Y1039227D01*
X1642261Y1039227D02*
X1642261Y1020213D01*
X1631247Y1020213D01*
X1631247Y1039227D01*
X1631247Y1022356D02*
X1642261Y1022356D01*
X1642261Y1024499D02*
X1631247Y1024499D01*
X1631247Y1026642D02*
X1642261Y1026642D01*
X1642261Y1028785D02*
X1631247Y1028785D01*
X1631247Y1030928D02*
X1642261Y1030928D01*
X1642261Y1033071D02*
X1631247Y1033071D01*
X1631247Y1035214D02*
X1642261Y1035214D01*
X1642261Y1037357D02*
X1631247Y1037357D01*
D12*
X1677246Y999228D02*
X1682262Y999228D01*
X1682262Y986712D01*
X1677246Y986712D01*
X1677246Y999228D01*
X1677246Y988853D02*
X1682262Y988853D01*
X1682262Y990994D02*
X1677246Y990994D01*
X1677246Y993135D02*
X1682262Y993135D01*
X1682262Y995276D02*
X1677246Y995276D01*
X1677246Y997417D02*
X1682262Y997417D01*
X1672262Y999228D02*
X1667246Y999228D01*
X1672262Y999228D02*
X1672262Y986712D01*
X1667246Y986712D01*
X1667246Y999228D01*
X1667246Y988853D02*
X1672262Y988853D01*
X1672262Y990994D02*
X1667246Y990994D01*
X1667246Y993135D02*
X1672262Y993135D01*
X1672262Y995276D02*
X1667246Y995276D01*
X1667246Y997417D02*
X1672262Y997417D01*
X1662262Y999228D02*
X1657246Y999228D01*
X1662262Y999228D02*
X1662262Y986712D01*
X1657246Y986712D01*
X1657246Y999228D01*
X1657246Y988853D02*
X1662262Y988853D01*
X1662262Y990994D02*
X1657246Y990994D01*
X1657246Y993135D02*
X1662262Y993135D01*
X1662262Y995276D02*
X1657246Y995276D01*
X1657246Y997417D02*
X1662262Y997417D01*
X1652262Y999228D02*
X1647246Y999228D01*
X1652262Y999228D02*
X1652262Y986712D01*
X1647246Y986712D01*
X1647246Y999228D01*
X1647246Y988853D02*
X1652262Y988853D01*
X1652262Y990994D02*
X1647246Y990994D01*
X1647246Y993135D02*
X1652262Y993135D01*
X1652262Y995276D02*
X1647246Y995276D01*
X1647246Y997417D02*
X1652262Y997417D01*
D13*
X1817350Y1004717D02*
X1817350Y1011705D01*
X1824338Y1011705D01*
X1824338Y1004717D01*
X1817350Y1004717D01*
X1817350Y1008786D02*
X1824338Y1008786D01*
X1799810Y1011705D02*
X1799810Y1004717D01*
X1799810Y1011705D02*
X1806798Y1011705D01*
X1806798Y1004717D01*
X1799810Y1004717D01*
X1799810Y1008786D02*
X1806798Y1008786D01*
D14*
X1808582Y988463D02*
X1798566Y988463D01*
X1798566Y997479D01*
X1808582Y997479D01*
X1808582Y988463D01*
X1808582Y990604D02*
X1798566Y990604D01*
X1798566Y992745D02*
X1808582Y992745D01*
X1808582Y994886D02*
X1798566Y994886D01*
X1798566Y997027D02*
X1808582Y997027D01*
X1815566Y988463D02*
X1825582Y988463D01*
X1815566Y988463D02*
X1815566Y997479D01*
X1825582Y997479D01*
X1825582Y988463D01*
X1825582Y990604D02*
X1815566Y990604D01*
X1815566Y992745D02*
X1825582Y992745D01*
X1825582Y994886D02*
X1815566Y994886D01*
X1815566Y997027D02*
X1825582Y997027D01*
D15*
X1658404Y688171D03*
X1832394Y1241891D03*
D11*
X1880721Y1105989D02*
X1884014Y1095480D01*
X1865871Y1089795D01*
X1862578Y1100304D01*
X1880721Y1105989D01*
X1872710Y1091938D02*
X1865199Y1091938D01*
X1864528Y1094081D02*
X1879549Y1094081D01*
X1883781Y1096224D02*
X1863856Y1096224D01*
X1863185Y1098367D02*
X1883109Y1098367D01*
X1882438Y1100510D02*
X1863235Y1100510D01*
X1870075Y1102653D02*
X1881766Y1102653D01*
X1881095Y1104796D02*
X1876914Y1104796D01*
X1867267Y1148917D02*
X1863974Y1159426D01*
X1867267Y1148917D02*
X1849124Y1143232D01*
X1845831Y1153741D01*
X1863974Y1159426D01*
X1855963Y1145375D02*
X1848452Y1145375D01*
X1847781Y1147518D02*
X1862802Y1147518D01*
X1867034Y1149661D02*
X1847109Y1149661D01*
X1846438Y1151804D02*
X1866362Y1151804D01*
X1865691Y1153947D02*
X1846488Y1153947D01*
X1853328Y1156090D02*
X1865019Y1156090D01*
X1864348Y1158233D02*
X1860167Y1158233D01*
D12*
X1839561Y1103571D02*
X1841061Y1098786D01*
X1829119Y1095043D01*
X1827619Y1099828D01*
X1839561Y1103571D01*
X1835950Y1097184D02*
X1828448Y1097184D01*
X1827777Y1099325D02*
X1840892Y1099325D01*
X1840221Y1101466D02*
X1832845Y1101466D01*
X1838070Y1108328D02*
X1836570Y1113113D01*
X1838070Y1108328D02*
X1826128Y1104585D01*
X1824628Y1109370D01*
X1836570Y1113113D01*
X1832959Y1106726D02*
X1825457Y1106726D01*
X1824786Y1108867D02*
X1837901Y1108867D01*
X1837230Y1111008D02*
X1829854Y1111008D01*
X1835080Y1117871D02*
X1833580Y1122656D01*
X1835080Y1117871D02*
X1823138Y1114128D01*
X1821638Y1118913D01*
X1833580Y1122656D01*
X1829969Y1116269D02*
X1822467Y1116269D01*
X1821796Y1118410D02*
X1834911Y1118410D01*
X1834240Y1120551D02*
X1826864Y1120551D01*
X1832090Y1127413D02*
X1830590Y1132198D01*
X1832090Y1127413D02*
X1820148Y1123670D01*
X1818648Y1128455D01*
X1830590Y1132198D01*
X1826979Y1125811D02*
X1819477Y1125811D01*
X1818806Y1127952D02*
X1831921Y1127952D01*
X1831250Y1130093D02*
X1823874Y1130093D01*
D15*
X80000Y1290000D03*
X2120000Y1290000D03*
D16*
X70945Y-20000D02*
X70948Y-19778D01*
X70956Y-19556D01*
X70970Y-19334D01*
X70989Y-19112D01*
X71013Y-18892D01*
X71043Y-18671D01*
X71078Y-18452D01*
X71119Y-18233D01*
X71165Y-18016D01*
X71216Y-17800D01*
X71273Y-17585D01*
X71335Y-17371D01*
X71402Y-17160D01*
X71474Y-16949D01*
X71552Y-16741D01*
X71634Y-16535D01*
X71722Y-16331D01*
X71814Y-16128D01*
X71912Y-15929D01*
X72014Y-15732D01*
X72121Y-15537D01*
X72233Y-15345D01*
X72350Y-15156D01*
X72471Y-14969D01*
X72597Y-14786D01*
X72727Y-14606D01*
X72862Y-14429D01*
X73000Y-14256D01*
X73143Y-14086D01*
X73291Y-13919D01*
X73442Y-13756D01*
X73597Y-13597D01*
X73756Y-13442D01*
X73919Y-13291D01*
X74086Y-13143D01*
X74256Y-13000D01*
X74429Y-12862D01*
X74606Y-12727D01*
X74786Y-12597D01*
X74969Y-12471D01*
X75156Y-12350D01*
X75345Y-12233D01*
X75537Y-12121D01*
X75732Y-12014D01*
X75929Y-11912D01*
X76128Y-11814D01*
X76331Y-11722D01*
X76535Y-11634D01*
X76741Y-11552D01*
X76949Y-11474D01*
X77160Y-11402D01*
X77371Y-11335D01*
X77585Y-11273D01*
X77800Y-11216D01*
X78016Y-11165D01*
X78233Y-11119D01*
X78452Y-11078D01*
X78671Y-11043D01*
X78892Y-11013D01*
X79112Y-10989D01*
X79334Y-10970D01*
X79556Y-10956D01*
X79778Y-10948D01*
X80000Y-10945D01*
X80222Y-10948D01*
X80444Y-10956D01*
X80666Y-10970D01*
X80888Y-10989D01*
X81108Y-11013D01*
X81329Y-11043D01*
X81548Y-11078D01*
X81767Y-11119D01*
X81984Y-11165D01*
X82200Y-11216D01*
X82415Y-11273D01*
X82629Y-11335D01*
X82840Y-11402D01*
X83051Y-11474D01*
X83259Y-11552D01*
X83465Y-11634D01*
X83669Y-11722D01*
X83872Y-11814D01*
X84071Y-11912D01*
X84268Y-12014D01*
X84463Y-12121D01*
X84655Y-12233D01*
X84844Y-12350D01*
X85031Y-12471D01*
X85214Y-12597D01*
X85394Y-12727D01*
X85571Y-12862D01*
X85744Y-13000D01*
X85914Y-13143D01*
X86081Y-13291D01*
X86244Y-13442D01*
X86403Y-13597D01*
X86558Y-13756D01*
X86709Y-13919D01*
X86857Y-14086D01*
X87000Y-14256D01*
X87138Y-14429D01*
X87273Y-14606D01*
X87403Y-14786D01*
X87529Y-14969D01*
X87650Y-15156D01*
X87767Y-15345D01*
X87879Y-15537D01*
X87986Y-15732D01*
X88088Y-15929D01*
X88186Y-16128D01*
X88278Y-16331D01*
X88366Y-16535D01*
X88448Y-16741D01*
X88526Y-16949D01*
X88598Y-17160D01*
X88665Y-17371D01*
X88727Y-17585D01*
X88784Y-17800D01*
X88835Y-18016D01*
X88881Y-18233D01*
X88922Y-18452D01*
X88957Y-18671D01*
X88987Y-18892D01*
X89011Y-19112D01*
X89030Y-19334D01*
X89044Y-19556D01*
X89052Y-19778D01*
X89055Y-20000D01*
X89052Y-20222D01*
X89044Y-20444D01*
X89030Y-20666D01*
X89011Y-20888D01*
X88987Y-21108D01*
X88957Y-21329D01*
X88922Y-21548D01*
X88881Y-21767D01*
X88835Y-21984D01*
X88784Y-22200D01*
X88727Y-22415D01*
X88665Y-22629D01*
X88598Y-22840D01*
X88526Y-23051D01*
X88448Y-23259D01*
X88366Y-23465D01*
X88278Y-23669D01*
X88186Y-23872D01*
X88088Y-24071D01*
X87986Y-24268D01*
X87879Y-24463D01*
X87767Y-24655D01*
X87650Y-24844D01*
X87529Y-25031D01*
X87403Y-25214D01*
X87273Y-25394D01*
X87138Y-25571D01*
X87000Y-25744D01*
X86857Y-25914D01*
X86709Y-26081D01*
X86558Y-26244D01*
X86403Y-26403D01*
X86244Y-26558D01*
X86081Y-26709D01*
X85914Y-26857D01*
X85744Y-27000D01*
X85571Y-27138D01*
X85394Y-27273D01*
X85214Y-27403D01*
X85031Y-27529D01*
X84844Y-27650D01*
X84655Y-27767D01*
X84463Y-27879D01*
X84268Y-27986D01*
X84071Y-28088D01*
X83872Y-28186D01*
X83669Y-28278D01*
X83465Y-28366D01*
X83259Y-28448D01*
X83051Y-28526D01*
X82840Y-28598D01*
X82629Y-28665D01*
X82415Y-28727D01*
X82200Y-28784D01*
X81984Y-28835D01*
X81767Y-28881D01*
X81548Y-28922D01*
X81329Y-28957D01*
X81108Y-28987D01*
X80888Y-29011D01*
X80666Y-29030D01*
X80444Y-29044D01*
X80222Y-29052D01*
X80000Y-29055D01*
X79778Y-29052D01*
X79556Y-29044D01*
X79334Y-29030D01*
X79112Y-29011D01*
X78892Y-28987D01*
X78671Y-28957D01*
X78452Y-28922D01*
X78233Y-28881D01*
X78016Y-28835D01*
X77800Y-28784D01*
X77585Y-28727D01*
X77371Y-28665D01*
X77160Y-28598D01*
X76949Y-28526D01*
X76741Y-28448D01*
X76535Y-28366D01*
X76331Y-28278D01*
X76128Y-28186D01*
X75929Y-28088D01*
X75732Y-27986D01*
X75537Y-27879D01*
X75345Y-27767D01*
X75156Y-27650D01*
X74969Y-27529D01*
X74786Y-27403D01*
X74606Y-27273D01*
X74429Y-27138D01*
X74256Y-27000D01*
X74086Y-26857D01*
X73919Y-26709D01*
X73756Y-26558D01*
X73597Y-26403D01*
X73442Y-26244D01*
X73291Y-26081D01*
X73143Y-25914D01*
X73000Y-25744D01*
X72862Y-25571D01*
X72727Y-25394D01*
X72597Y-25214D01*
X72471Y-25031D01*
X72350Y-24844D01*
X72233Y-24655D01*
X72121Y-24463D01*
X72014Y-24268D01*
X71912Y-24071D01*
X71814Y-23872D01*
X71722Y-23669D01*
X71634Y-23465D01*
X71552Y-23259D01*
X71474Y-23051D01*
X71402Y-22840D01*
X71335Y-22629D01*
X71273Y-22415D01*
X71216Y-22200D01*
X71165Y-21984D01*
X71119Y-21767D01*
X71078Y-21548D01*
X71043Y-21329D01*
X71013Y-21108D01*
X70989Y-20888D01*
X70970Y-20666D01*
X70956Y-20444D01*
X70948Y-20222D01*
X70945Y-20000D01*
D17*
X80000Y-20000D03*
M02*
